<svg xmlns="http://www.w3.org/2000/svg" viewBox="0 0 96.59 181.03"><path d="M56.31,6.83c0,.38.22,1,.26,1.42.1.9.56,1.92.61,2.83,0,.53.52,1.24.56,1.76l1.52-.29,0-.18c-.15-.88-.44-1.78-.57-2.66,0-.31-.4-.63-.45-.94C58.09,8,58,7.19,57.85,6.42c-.06-.33.1-.65-.39-1a1.13,1.13,0,0,0-1.13.4C56.14,6.23,56.26,6.42,56.31,6.83Z" fill="#020202"/><path d="M55.07,13.36c-.12-.57-.25-1.13-.33-1.71s-.19-1.13-.29-1.63A17.17,17.17,0,0,0,54,7.76c-.23-.61.15-1.61-1-1.63a.91.91,0,0,0-.92,1,5.31,5.31,0,0,0,.4.88c.13.34,0,.63.07,1,.15.73.22,1.47.34,2.2s.34,1.69.51,2.53Z" fill="#020202"/><path d="M60.21,5c.1.73.41,1.42.57,2.15.32,1.5.57,3,.87,4.53l.09.43,1.63-.31v-.07c-.18-1.19-.74-3.57-1-4.75s-.1-1-.3-2.15c-.16-.8-.79-.77-1.33-.64A1,1,0,0,0,60.21,5Z" fill="#020202"/><path d="M64.5,5c.19.64.39,1.29.54,1.94s.09,1.51.25,2.3l.4,2.12L67.34,11v-.11c-.11-.59-.27-1.16-.37-1.76l-.7-3.84c-.13-.69-.08-1.42-.23-2.12a.83.83,0,0,0-.66-.44,1.37,1.37,0,0,0-1.18.68C64,3.84,64.38,4.52,64.5,5Z" fill="#020202"/><path d="M70.84,6.4c-.08-.47,0-1-.12-1.42A22,22,0,0,0,70,2.6a2.16,2.16,0,0,0-.5-.84c-.08-.07-.46.17-.69.29-.54.28-.51.61-.28,1.18a17.9,17.9,0,0,1,.66,2.85c.18.9.35,1.8.48,2.71a13.59,13.59,0,0,0,.4,1.68l1.5-.29a5.92,5.92,0,0,1-.23-1Z" fill="#020202"/><path d="M73,3.54c.11,1.11.34,1.89.46,3,.1,1,.54,2.11.76,3.13l1.51-.29v0a13.24,13.24,0,0,0-.28-1.8C75.3,7,75.09,6.37,75,5.78S74.72,4.63,74.65,4,74,2.63,74.11,2.15c.22-.75.11-1.41-.61-1.56-.28-.07-.74-.08-.92.18C72.21,1.31,73,2.91,73,3.54Z" fill="#020202"/><path d="M79.2,5.54c-.13-.68-.17-1.38-.31-2.06a19,19,0,0,0-.52-2A5.33,5.33,0,0,0,78,.39.74.74,0,0,0,77.28,0a.71.71,0,0,0-.52.49c-.38,1.16.3,1.86.58,3,.38,1.48.3,2.71.61,3.8.18.61.35,1.07.49,1.58l1.44-.28c-.09-.5-.19-1-.23-1.28C79.54,6.7,79.32,6.13,79.2,5.54Z" fill="#020202"/><path d="M60.72,38.57V39a5.25,5.25,0,0,0,.1,1.65l0,.06a2.12,2.12,0,0,1-.07-.64A7.45,7.45,0,0,0,60.72,38.57Z" fill="#020202"/><path d="M66.75,40.83c0-.58,0-1.59,0-2.11a11.65,11.65,0,0,0-.12-1.44C66.65,38.27,66.73,39.72,66.75,40.83Z" fill="#020202"/><path d="M65.07,40.55v0Z" fill="#020202"/><path d="M70.74,39v0Z" fill="#020202"/><path d="M75,39.69c0-.37,0-.76,0-1.14l0-.18v1.32Z" fill="#020202"/><path d="M79.37,39.51c0-.22-.06-.49-.1-.78,0,.29.07.58.1.85Z" fill="#020202"/><path d="M83.55,40.08c0-.82-.07-1.87-.12-3,0,.38,0,.77,0,1.16C83.42,38.87,83.54,39.47,83.55,40.08Z" fill="#020202"/><path d="M62.55,41.78v-.17c0-.38,0-.78,0-1.17v0c-.06-.85,0-1.57-.07-2.44,0-.69-.11-1.36-.15-2.05s0-1.36,0-2.07a11.24,11.24,0,0,0,0-1.64c-.13-1-.39-1.93-.52-2.91s-.22-2.16-.35-3.25c-.08-.62-.16-1.24-.3-1.85-.28-1.26-.17-2.27-.46-3.53-.16-.67-.21-1.56-.31-2.25-.14-1-.29-2-.46-3l-.55-2.85-.77,0-.75.33v0c0,.55,0,1.12.06,1.66.11.69.34,1.35.49,2s.12,1.25.27,2,0,1.29.17,1.95a13.87,13.87,0,0,1,.3,2.24,2.93,2.93,0,0,0,.23,1.5,3.86,3.86,0,0,1,.18,1.17c0,.25.12,1.38.18,1.69.15.73.25,1.46.35,2.19.16,1.25.29,2.51.42,3.75.06.58,0,1.22.11,1.8,0,0,.05.56,0,.56,0,.36.07.53.08.73,0,.37,0,.84,0,1.14a8.74,8.74,0,0,0,.09,1.33,7.45,7.45,0,0,1,.05,1.48,2.12,2.12,0,0,0,.07.64A4.35,4.35,0,0,1,61,41.8l.64.13Z" fill="#020202"/><path d="M58.29,41.83c0-.54,0-1.08,0-1.64s0-.93,0-1.38v-.19c0-1,0-2.16,0-3.21s-.33-1.82-.47-2.74c-.09-.54,0-1.07-.14-1.61s-.06-1.24-.2-1.84,0-1.38-.18-2.07c-.23-1.1-.22-2.28-.44-3.39l-.84-4.51c-.15-.84-.27-1.69-.39-2.54s-.21-1.79-.35-2.68l-.13-.67-.86,0-.85.35c0,.23.09.47.13.69l.67,3.89.78,4.88c.15.83.23,1.62.39,2.44.23,1.21.07,2.53.27,3.74.14.8.26,1.43.4,2.23s0,1.72.14,2.48.24,1.32.3,2c0,.4-.1.81-.09,1.21,0,.79.13,1.5.14,2.27s0,1.56.06,2.35l.88.06Z" fill="#020202"/><path d="M66.74,41.74v-.91c0-1.11-.1-2.56-.15-3.55l0-.4c0-.14-.09-.48-.13-.71,0-.5-.12-1-.16-1.49-.05-1-.07-1.9-.16-2.85,0-.67-.2-1.34-.26-2-.09-.92-.12-1.85-.21-2.77-.18-1.57-.4-3.13-.62-4.69l-.39-2.6-.33-2.33c-.12-.75-.28-1.5-.42-2.24s-.3-1.43-.44-2.14c-.08-.42,0-.86-.09-1.29l-.87-.07-.76.38c.28,1.43.59,2.85.79,4.3.09.63,0,1.29.09,1.92s.29,1.05.39,1.59c.12.7.16,1.42.27,2.12.33,2.33.63,4.67.92,7l.32,3c.17,1.62.15,3.26.17,4.87a6,6,0,0,0,.2.94,4.28,4.28,0,0,1,.09.87c0,.43.06.62.07,1v2.08l.84.15Z" fill="#020202"/><path d="M70.79,41.69v-.11l-.05-1.8v-1c0-.72-.22-1.79-.25-2.5,0,0,0-.08,0-.12,0-.56-.07-1.11-.1-1.68,0-.83-.16-1.66-.23-2.49s-.06-1.63-.15-2.44c-.11-1.09-.29-2.18-.41-3.27s-.17-2.09-.32-3.13-.37-2-.56-2.94c-.1-.57-.17-1.15-.25-1.73l-.53-3.25-.5-3.33c-.05-.31-.05-.63-.09-.94l-.88-.06-.77.38.11.58.29,1.63c.2,1.18.39,2.37.55,3.55L67,19.68c.28,1.91.55,3.83.79,5.74,0,.41.09.82.17,1.22s.22.92.27,1.38c.07.63.06,1.26.1,1.89.14,2,.49,3.45.57,5.47,0,.84,0,2.29,0,3.13,0,.27.1.54.11.82,0,.1,0,.2,0,.31,0,.69,0,1.38,0,2.07l.9.22Z" fill="#020202"/><path d="M75,41.64a7.25,7.25,0,0,1-.05-1v-2.9c0-.48,0-.89,0-1.37,0-.23-.16-1.05-.2-1.85h0c0-.35,0-.69,0-1,0-.5-.12-1-.18-1.49-.17-1.63-.33-3.23-.49-4.83-.09-.77-.17-1.53-.25-2.31-.06-.44,0-.89-.06-1.33-.19-1.26-.41-2.52-.66-3.76-.28-1.39-.21-2.66-.49-4.05-.22-1.1-.36-2.22-.52-3.33a14.42,14.42,0,0,0-.6-2.17l-.78-.07-.72.36a13.21,13.21,0,0,1,.46,2,15.56,15.56,0,0,0,.22,1.94c.47,2,.7,3.84,1,5.87.14,1,.18,1.93.29,2.9.2,1.8.36,3.59.67,5.38.09.59.12,1.18.19,1.77.13,1.24.31,2.47.37,3.71s0,2.67,0,4c0,.66.16,1.33.19,2h0c0,.52,0,1,.09,1.6l.8.19Z" fill="#020202"/><path d="M79.35,41.59v0a13.14,13.14,0,0,0,0-1.88v-.1c0-.27-.07-.56-.1-.85s-.07-.63-.08-.95S79,36.91,79,36.51c0,0-.11-.78-.14-1s0-.71-.07-1.06c-.15-1.57-.15-3.92-.32-5.46-.22-2.23-.53-3.52-.83-5.73-.09-.63,0-1.2-.06-1.82-.08-.84-.34-1.67-.43-2.51s-.1-2-.26-2.84-.27-1.45-.43-2.28c-.1-.59-.2-1.18-.27-1.78-.09-.89-.34-1.76-.45-2.65L75,9l-.71.64c0,.15.08.32.1.46.15,1.12.28,1.91.42,3,.07.65.34,1.29.41,1.95.19,1.75.53,3.18.67,4.94.25,3,.63,5.63.94,8.57,0,.42.15.84.2,1.26l.35,3c.13,1.17.07,2.19.16,3.37.06.74.09,1.41.11,2.1,0,1,.19,2.18.21,3.24l.81.15Z" fill="#020202"/><path d="M83.56,41.54V40.08c0-.61-.13-1.21-.14-1.81,0-.39,0-.78,0-1.16s0-.67,0-1A18,18,0,0,0,83.22,34l0-.22q0-.43-.06-.81c-.13-1.68-.42-2.32-.53-4,0-.51-.35-.86-.29-1.4a8.14,8.14,0,0,0,.1-1,7.61,7.61,0,0,0-.31-1.09c0-.27,0-.58,0-.86C82,23.8,82,22.87,82,22s-.33-1.72-.43-2.61l-.34-3.32c0-.44-.18-1.25-.26-1.69s-.26-1.6-.31-2.09c-.16-1.5-.47-1.25-.59-2.75,0-.19-.08-.57-.14-1l-.7-.31-.74.59a5.91,5.91,0,0,1,.19,1c.11.76.4,1.6.44,2.36s.14,2,.22,2.71l.31,2.4c.23,1.59.48,3.18.66,4.78.07.69.27,1.35.29,2s.19,1.31.21,2.16a24.41,24.41,0,0,0,.36,3c.22,1.47.43,2.95.55,4.46.08,1,0,1.94,0,2.91,0,.51.1,1,.13,1.54s0,.83,0,1.24h0c0,.16,0,.32,0,.47.08.66.13,1.17.2,1.73l.79.17Z" fill="#020202"/><path d="M56.92,64.62c-.05.11-.1.2-.16.31a3.31,3.31,0,0,0-.54,1.24v.06a1.39,1.39,0,0,1,.18-.51A4.16,4.16,0,0,0,56.92,64.62Z" fill="#020202"/><path d="M61.34,69.16c.3-.46.68-1.33.9-1.77a8.92,8.92,0,0,0,.49-1.28C62.39,67,61.8,68.23,61.34,69.16Z" fill="#020202"/><path d="M60,68.13l.29-.57C60.18,67.73,60.05,68,60,68.13Z" fill="#020202"/><path d="M65.71,69.42l-.07.13Z" fill="#020202"/><path d="M69.14,72.07c.19-.36.43-.71.59-1.08l.07-.19-.74,1.4Z" fill="#020202"/><path d="M73.08,74c.1-.24.21-.53.33-.84-.13.31-.25.62-.37.92Z" fill="#020202"/><path d="M76.45,76.54c.42-.87,1-2.06,1.5-3.24l-.62,1.23C77,75.18,76.77,75.88,76.45,76.54Z" fill="#020202"/><path d="M57.24,67.87l.07-.13a6,6,0,0,0,.46-.91l0,0c.28-.69.62-1.19.92-1.92.23-.56.45-1.13.65-1.71s.48-1.12.72-1.71a9.54,9.54,0,0,0,.52-1.38c.2-.85.25-1.75.43-2.62s.44-1.91.59-2.9a12.29,12.29,0,0,0,.21-1.71c.05-1.19.38-2.07.39-3.28,0-.64.14-1.47.2-2.12.07-.95.12-1.91.15-2.87l0-2.79-.75-.17L61,41.8v0c0,.53-.21,1-.24,1.56s.1,1.33.1,2-.13,1.16-.13,1.85-.24,1.17-.26,1.79a10.91,10.91,0,0,1-.23,2,2.48,2.48,0,0,0-.14,1.37A3.17,3.17,0,0,1,60,53.48c0,.22-.26,1.2-.28,1.49-.06.66-.19,1.29-.3,1.93-.23,1.08-.46,2.16-.78,3.19-.14.49-.36,1-.51,1.49,0,0-.15.46-.19.45-.08.31-.12.44-.18.61a6.52,6.52,0,0,1-.4.91,5.43,5.43,0,0,0-.43,1.07,4.16,4.16,0,0,1-.53,1.1,1.39,1.39,0,0,0-.18.51,2.46,2.46,0,0,1-.32.89l.51.41Z" fill="#020202"/><path d="M53.51,65.8q.32-.57.6-1.14l.51-.94s.05-.09.08-.14a21.36,21.36,0,0,0,1.09-2.43,15.09,15.09,0,0,0,.47-2.26c.11-.43.29-.85.36-1.3A12.76,12.76,0,0,0,57,56.08c0-.6.37-1.1.39-1.72a10.18,10.18,0,0,1,.23-1.45c.09-.5.17-1,.21-1.49.07-1.34.15-2.71.2-4.09,0-.77.07-1.56.13-2.34s.13-1.67.16-2.51v-.65l-.84-.15-.9.18v.65l-.1,3.61c-.05,1.49-.19,2.93-.29,4.36-.05.73-.17,1.39-.21,2.11-.1,1-.58,2-.74,3-.08.68-.15,1.18-.26,1.83s-.5,1.29-.63,1.9A13.81,13.81,0,0,1,54,60.92a7.2,7.2,0,0,1-.49.85c-.28.54-.4,1.16-.68,1.63S52.3,64.46,52,65l.74.48Z" fill="#020202"/><path d="M60.9,69.9l0-.05.4-.69c.46-.93,1-2.16,1.39-3l.15-.36a6.53,6.53,0,0,0,.18-.66c.14-.46.26-.92.43-1.36.33-.84.63-1.71.9-2.58.2-.61.25-1.26.42-1.88.24-.85.46-1.71.66-2.57.3-1.49.5-3,.68-4.51l.25-2.54.18-2.28c0-.74,0-1.49,0-2.23s0-1.43,0-2.14c0-.42.12-.84.14-1.26l-.84-.22-.82.23c0,1.43.06,2.84,0,4.25,0,.61-.23,1.22-.3,1.83s.05,1.05,0,1.57c0,.68-.17,1.35-.24,2q-.37,3.34-1,6.59c-.21.9-.43,1.81-.67,2.7a28.36,28.36,0,0,1-1.64,4.22,6,6,0,0,0-.21.86,2.93,2.93,0,0,1-.27.77c-.2.33-.2.52-.37.85l-.07.15-.29.57c-.09.22-.23.41-.34.62l-.19.35.66.53Z" fill="#020202"/><path d="M64.44,71.86l.06-.09c.32-.52.56-1.08.83-1.62l.31-.6.07-.13.07-.15c.36-.63.58-1.72.89-2.37a.76.76,0,0,0,0-.11c.22-.52.38-1.06.59-1.59.32-.78.51-1.61.75-2.41s.53-1.56.73-2.35c.3-1.08.43-2.18.67-3.26s.46-2.06.58-3.11.15-2,.2-3c0-.58.12-1.16.15-1.75.08-1.1.13-2.2.18-3.3l.15-3.38c0-.32.06-.63.08-.94l-.86-.21-.82.23v.58c0,.55,0,1.1,0,1.65,0,1.19-.09,2.38-.16,3.57l-.21,2.61c-.19,1.9-.39,3.81-.73,5.69L67.81,57c-.07.46-.07.93-.17,1.38-.12.61-.35,1.2-.52,1.79-.26,1-.47,1.8-.68,2.63a18.24,18.24,0,0,1-.82,2.59c-.29.78-1,2-1.3,2.81-.11.24-.16.51-.28.75l-.12.29c-.29.61-.6,1.22-1,1.8l.67.64Z" fill="#020202"/><path d="M68.16,73.93c.16-.34.32-.68.5-1l.4-.75.74-1.4c.12-.21.22-.42.32-.63.22-.46.41-.86.59-1.33.1-.24.34-1.09.63-1.89h0c.15-.34.31-.67.45-1a13.42,13.42,0,0,0,.41-1.54c.24-.85.48-1.68.68-2.51s.43-1.66.6-2.49.36-1.6.48-2.41c.08-.46.27-.91.34-1.37.16-1.33.31-2.66.35-4s.41-2.74.45-4.21c0-1.16.11-2.32.15-3.47a14.12,14.12,0,0,0-.2-2.3l-.75-.22-.78.24a11.69,11.69,0,0,1,.09,2.12c-.06.66-.17,1.33-.17,2a44.7,44.7,0,0,1-.32,6.1c-.08,1-.33,2-.47,3l-1,5.54c-.11.61-.3,1.21-.44,1.81a38,38,0,0,1-1.09,3.74,38.27,38.27,0,0,1-1.74,3.8c-.32.61-.5,1.32-.8,1.94h0c-.24.48-.5,1-.73,1.51l.58.58Z" fill="#020202"/><path d="M71.93,76v0A10.13,10.13,0,0,0,73,74.12L73,74c.12-.3.24-.61.37-.92s.28-.68.42-1,.25-1,.44-1.36c0,0,.27-.83.36-1.08s.27-.73.4-1.11l1-2.88a29.73,29.73,0,0,0,.9-2.9,56.58,56.58,0,0,0,1.1-6.3c.12-.7.34-1.26.46-1.93.15-.92.11-1.85.23-2.74s.36-2.08.41-3,0-1.57.06-2.46q0-1,.09-1.89c.07-.95,0-1.89,0-2.82l-.72-.51-.82.53c0,.16,0,.33,0,.48,0,1.17-.08,2-.16,3.18-.06.69.08,1.4,0,2.09-.19,1.85-.19,3.4-.48,5.26-.52,3.13-1,6-1.7,9.17-.12.45-.17.92-.28,1.37-.23,1.08-.57,2.15-.86,3.23-.41,1.23-.85,2.25-1.35,3.45-.31.76-.56,1.44-.9,2.14-.54.94-.94,2.28-1.52,3.29l.6.56Z" fill="#020202"/><path d="M75.61,78.06c.32-.56.67-1.14.8-1.43l0-.09c.32-.66.56-1.36.88-2L78,73.3c.17-.35.35-.7.5-1.06a16.19,16.19,0,0,0,.8-2.31l.08-.25.31-.89a17.18,17.18,0,0,0,.61-2.27c.15-.67.31-1.33.56-2.26.16-.58,0-1.07.25-1.64a8.09,8.09,0,0,0,.45-1,9.55,9.55,0,0,0,.08-1.3c0-.31.19-.64.25-1,.19-1,.54-2,.71-3s.17-2,.31-3c.16-1.22.34-2.45.47-3.66.06-.48.11-1.39.12-1.87s.08-1.76.13-2.29c.14-1.62-.23-1.41-.06-3,0-.2,0-.61,0-1l-.64-.45-.83.47c0,.31,0,.63,0,1-.05.81.09,1.75,0,2.55s-.26,2.11-.33,2.9-.17,1.74-.24,2.62c-.16,1.75-.32,3.52-.61,5.29-.11.76-.15,1.53-.33,2.28-.22.92-.24,1.47-.51,2.4s-.51,2.31-.73,3.33c-.15.84-.38,1.67-.6,2.5A25.15,25.15,0,0,1,78,68.93c-.18.52-.4,1-.62,1.54L76.65,72c-.25.53-.39,1.09-.65,1.66L75.36,75h0a4.66,4.66,0,0,0-.25.5c-.28.73-.52,1.28-.8,1.87l.58.57Z" fill="#020202"/><path d="M40.86,79.81l-.29.08a2.75,2.75,0,0,0-1.13.31l0,0a.89.89,0,0,1,.43-.15A2.33,2.33,0,0,0,40.86,79.81Z" fill="#020202"/><path d="M40.33,86.07a14.52,14.52,0,0,0,1.86-.4,12.82,12.82,0,0,0,1.23-.44l-1.49.48Z" fill="#020202"/><path d="M40.27,84.36l.59-.12Z" fill="#020202"/><path d="M42.86,89.65l-.14,0Z" fill="#020202"/><path d="M43,94a11.1,11.1,0,0,0,1.28-.24l.2-.07c-.53.15-1.09.22-1.63.33Z" fill="#020202"/><path d="M44,98.21c.27-.07.6-.17.93-.28l-1,.3Z" fill="#020202"/><path d="M44,102.47a32.08,32.08,0,0,0,3.86-1c-.5.13-1,.25-1.49.39C45.6,102,44.82,102.29,44,102.47Z" fill="#020202"/><path d="M38.88,82.05,39,82a4.83,4.83,0,0,0,.88-.2h0c.31-.08.61-.15.91-.2l.92-.26.75-.24c.25-.12.49-.23.74-.33.51-.21,1-.34,1.54-.56A6.58,6.58,0,0,0,46,79.71c.64-.47,1.26-.95,1.87-1.47.35-.27.72-.5,1.08-.77L50,76.64a7.48,7.48,0,0,0,1.11-1.07c.36-.4.72-.7,1.06-1a7,7,0,0,0,1-1.07A19.09,19.09,0,0,1,54.48,72,25.3,25.3,0,0,0,56,70l.66-1,.59-1.07-.58-.5-.77-.25h0c-.28.36-.62.67-.87,1s-.53,1-.81,1.48-.68.75-1,1.25-.77.69-1.1,1.12a6.08,6.08,0,0,1-1.23,1.3,2.34,2.34,0,0,0-.84.87,2.68,2.68,0,0,1-.65.65c-.14.16-.87.64-1,.83a9.59,9.59,0,0,1-1.3,1.1,11.24,11.24,0,0,1-1.18.81,14,14,0,0,1-1.22.73c-.38.2-.84.35-1.21.59,0,0-.38.15-.4.12l-.48.23a4.36,4.36,0,0,1-.79.27,3.59,3.59,0,0,0-.91.3,2.33,2.33,0,0,1-1,.27.89.89,0,0,0-.43.15,1.63,1.63,0,0,1-.76.3v.64Z" fill="#020202"/><path d="M38.22,77.83c.34,0,.67-.17,1-.19a3.77,3.77,0,0,0,.85-.17l.12,0c.32-.08.67-.13,1-.22l1-.37a11.57,11.57,0,0,0,1.55-1c.3-.23.65-.34,1-.56a10.42,10.42,0,0,0,1.06-.72c.35-.33.84-.48,1.19-.85.57-.55,1.27-1,1.84-1.64.36-.45.72-.88,1.09-1.3s.69-.9,1-1.34.77-1,1.15-1.52.85-1,1.17-1.64l.25-.45-.67-.52L52,65l-.24.43c-.23.4-.51.78-.76,1.17a13,13,0,0,1-.79,1.15l-.52.7-.56.67c-.36.46-.75.87-1.13,1.3s-.8.79-1.18,1.23a4,4,0,0,1-1,.75c-.36.22-.72.44-1,.67s-.69.66-1.11,1a4.55,4.55,0,0,1-.69.38,3.78,3.78,0,0,0-.7.3c-.18.11-.35.24-.52.36a3,3,0,0,1-.53.28c-.23.1-.5,0-.73.14-.44.09-.81.3-1.24.42s-.86.22-1.28.26l.09.87Z" fill="#020202"/><path d="M39.52,86.19h.06a3.74,3.74,0,0,0,.75-.12l1.6-.36,1.49-.48.35-.11a3.05,3.05,0,0,0,.58-.31c.41-.2.81-.4,1.23-.57.79-.34,1.59-.69,2.36-1.09.53-.32,1-.71,1.54-1,.7-.48,1.45-.89,2.12-1.4s1.14-.9,1.68-1.4,1.07-1,1.58-1.51S56,76.65,56.51,76s1-1.08,1.41-1.67.84-1.14,1.22-1.74l1-1.74c.2-.35.5-.63.72-1l-.63-.59-.82-.21a24.81,24.81,0,0,1-2.08,3.31c-.36.45-.83.81-1.19,1.25s-.53.82-.84,1.2A17,17,0,0,1,54,76.23a32,32,0,0,1-4.71,4.09,23.84,23.84,0,0,1-2.18,1.41,18.41,18.41,0,0,1-1.9.91l-2,.68a3.51,3.51,0,0,0-.72.37,3.74,3.74,0,0,1-.7.27c-.35.09-.5.18-.83.25l-.15,0-.59.12-.65.14-.36,0v.84Z" fill="#020202"/><path d="M40.14,90.19h.11c.61-.06,1.19-.28,1.8-.38l.67-.13.14,0,.17,0c.7-.2,1.7-.67,2.39-.89l.12,0L47.12,88c.8-.3,1.51-.78,2.28-1.14s1.46-.77,2.18-1.19c.47-.29.91-.65,1.36-1s.9-.65,1.33-1a28.09,28.09,0,0,0,2.46-2,25.29,25.29,0,0,0,2-2.25c.4-.43.78-.88,1.17-1.33.73-.84,1.37-1.75,2-2.64s1.32-1.85,1.93-2.81c.16-.27.37-.52.54-.79l-.64-.6L63,71.05l-.29.5a13.79,13.79,0,0,1-.85,1.38c-.32.49-.64,1-1,1.47l-1.08,1.4c-.52.68-1.11,1.3-1.65,2s-1.29,1.39-1.95,2.06-1.36,1.32-2.11,1.89c-.31.26-.62.51-.91.78a8,8,0,0,1-1,.91c-.52.34-1,.67-1.58,1-.87.46-1.55,1-2.3,1.37a13.18,13.18,0,0,1-2.41,1.18c-.76.33-2.16.61-2.93.86a4.25,4.25,0,0,1-.75.28l-.29.09c-.66.12-1.31.32-2,.38l-.09.91Z" fill="#020202"/><path d="M40.79,94.39l1.14-.24.88-.16c.54-.11,1.1-.18,1.63-.33l.71-.19c.53-.14,1-.26,1.5-.44.26-.09,1.08-.53,1.93-.86h0a9.88,9.88,0,0,0,1.12-.4c.51-.24,1-.56,1.48-.82a52,52,0,0,0,4.61-2.89c.73-.48,1.38-1,2-1.58A13.21,13.21,0,0,0,59,85.6l1.52-1.48c.48-.52.93-1.05,1.39-1.58s1-1.12,1.52-1.65a12.17,12.17,0,0,0,1.46-1.71c.35-.51.72-1,1.09-1.5l1.06-1.53a12.38,12.38,0,0,0,1.09-2.22l-.54-.58-.79-.16a10.32,10.32,0,0,1-1.07,2,18,18,0,0,0-1.24,1.67,31.12,31.12,0,0,1-4,5c-.36.38-.73.74-1.11,1.09l-1.19,1c-1.45,1.3-3,2.45-4.57,3.65a16.1,16.1,0,0,1-1.63,1,27.71,27.71,0,0,1-3.55,1.94c-.68.26-1.37.5-2.06.73s-1.42.36-2.12.55-1.37.48-2.07.64h0c-.56.1-1.11.29-1.7.39l-.11.82Z" fill="#020202"/><path d="M41.45,98.64h0a12,12,0,0,0,2.32-.38l.11,0,1-.3c.39-.11.75-.27,1.13-.37s1-.46,1.48-.6l.48-.19c.26-.1.54-.24.67-.3L49.9,96a44.58,44.58,0,0,0,6-3A32.91,32.91,0,0,0,58.75,91l2.63-2.26c.55-.52,1.15-.84,1.71-1.34.76-.66,1.32-1.52,2-2.21a33.71,33.71,0,0,0,2.33-2.45c.6-.79,1-1.43,1.59-2.23.43-.56.78-1.17,1.21-1.73A31.27,31.27,0,0,0,71.93,76l-.35-.85-1,.1c-.09.17-.18.34-.27.48-.66,1.12-1.2,1.86-2,2.92-.42.63-.79,1.32-1.26,1.91-.63.8-1.22,1.51-1.82,2.22a18.12,18.12,0,0,1-2,2.11,59.73,59.73,0,0,1-7.77,6.37c-.43.26-.83.57-1.26.85a33.23,33.23,0,0,1-3.14,1.8,11.82,11.82,0,0,1-1.85.79l-1.89.7c-.85.29-1.62.53-2.41.77-1.14.2-2.54.74-3.79.94l-.09.82Z" fill="#020202"/><path d="M42.09,102.8a17,17,0,0,0,1.82-.3l.11,0c.8-.18,1.58-.44,2.37-.63.49-.14,1-.26,1.49-.39s.88-.22,1.31-.36A19,19,0,0,0,51.77,100l.27-.13c.36-.15.71-.28,1-.43,2-1,2.7-1.57,4.57-2.67.58-.34.88-.82,1.49-1.13a10.16,10.16,0,0,0,1.15-.56,11.32,11.32,0,0,0,1.08-1c.26-.23.61-.42.89-.63.88-.7,1.92-1.3,2.74-2.06s1.58-1.58,2.37-2.39l1.49-1.49L70.22,86a15.53,15.53,0,0,0,1.34-1.69l1.6-2.13c1.11-1.54.71-1.5,1.8-3,.14-.2.39-.61.65-1l-.29-.78-1,.07a10.22,10.22,0,0,1-.57,1.05,25.63,25.63,0,0,1-1.57,2.5c-.55.71-1.56,1.87-2.12,2.58s-1.29,1.5-1.92,2.26-1.33,1.48-2,2.2S64.72,89.35,64,90a17.26,17.26,0,0,1-1.91,1.71c-.88.61-1.24,1.1-2.18,1.65s-2.13,1.53-3.13,2.16a33.91,33.91,0,0,1-5,2.84,28.92,28.92,0,0,1-3.58,1.2c-.64.19-1.26.45-1.9.66s-1.06.25-1.57.38h0l-.6.13a20.22,20.22,0,0,1-2.19.59l-.13.82Z" fill="#020202"/><path d="M24.45,73.7l-.13-.23c-.2-.34-.25-.65-.53-.87l0,0a.77.77,0,0,1,.22.33A1.9,1.9,0,0,0,24.45,73.7Z" fill="#020202"/><path d="M18.36,75a8.34,8.34,0,0,0,.84,1.63c.22.36.47.7.72,1-.23-.37-.52-.82-.82-1.28A12.65,12.65,0,0,1,18.36,75Z" fill="#020202"/><path d="M20,74.47l.24.51A4.85,4.85,0,0,0,20,74.47Z" fill="#020202"/><path d="M15.55,78.33l-.08-.13Z" fill="#020202"/><path d="M11.39,79.55a6.12,6.12,0,0,0,.6,1.2l.13.18-.42-.74-.37-.78Z" fill="#020202"/><path d="M7.57,81.67a5.88,5.88,0,0,0,.55.87,9.6,9.6,0,0,1-.6-1Z" fill="#020202"/><path d="M3.44,82.72c.26.53.56,1.17.93,1.8s.8,1.27,1.24,1.93c-.28-.48-.55-1-.84-1.44A24.45,24.45,0,0,1,3.44,82.72Z" fill="#020202"/><path d="M21.88,72.62a.6.6,0,0,0,.06.11c.11.23.25.47.39.71v0c.24.52.55,1,.85,1.49a7.67,7.67,0,0,0,.9,1.16c.29.42.6.8.92,1.2a3.75,3.75,0,0,0,.81.92c.29.21.6.4.9.6s.64.33.94.53c.64.46,1.33.84,2,1.24a9.4,9.4,0,0,0,1.24.49c.43.15.79.26,1.15.42a3.06,3.06,0,0,0,1.17.34A3.6,3.6,0,0,1,34,82l.38.11.35,0c.33,0,.65.06,1,.11a10,10,0,0,0,1.09,0,15.22,15.22,0,0,0,2.12-.21V81.3l-.25-.77h0a7.3,7.3,0,0,0-1.13-.1,13,13,0,0,0-1.38.18c-.5.06-.73-.17-1.16-.13s-.71-.26-1.09-.31c-.22,0-.44,0-.66-.1a3,3,0,0,1-.64-.28,1.49,1.49,0,0,0-.9-.27,2,2,0,0,1-.69-.27c-.07,0-.28-.12-.47-.24L30,78.72a5.11,5.11,0,0,1-1.29-.67,16.82,16.82,0,0,1-2-1.5,9.71,9.71,0,0,0-.81-.89s-.27-.26-.24-.29L25.37,75c-.14-.2-.34-.43-.44-.61a4,4,0,0,0-.48-.7,1.9,1.9,0,0,1-.47-.8.77.77,0,0,0-.22-.33c-.17-.18-.4-.36-.46-.55l-.61.17Z" fill="#020202"/><path d="M25.82,71a3.73,3.73,0,0,1,.36.72,2.26,2.26,0,0,0,.32.64l.05.09a7.72,7.72,0,0,0,.93,1.5,9.35,9.35,0,0,0,1.3.94c.26.17.43.43.68.61s.54.44.86.59.6.47.95.63a3.36,3.36,0,0,1,.43.2l.41.19a3.13,3.13,0,0,0,.83.35c.39,0,.76.2,1.12.23s.71.13,1,.13a2.57,2.57,0,0,1,.55,0l.27,0h.36a6.64,6.64,0,0,1,.77,0,5,5,0,0,0,.77,0l.39,0,0-.83L38,76.12l-.36,0-.5,0c-.16,0-.33,0-.49,0a4.37,4.37,0,0,1-.89,0,4.81,4.81,0,0,1-.88-.11,2.42,2.42,0,0,0-.47-.07c-.16,0-.33-.11-.5-.14l-.52-.13a3.05,3.05,0,0,0-.53-.2,2.2,2.2,0,0,1-.39-.17,3.27,3.27,0,0,1-.35-.3,7.1,7.1,0,0,0-.73-.53c-.33-.22-.68-.27-1-.51a7.89,7.89,0,0,1-.85-.89c-.24-.23-.62-.36-.79-.63s-.12-.4-.24-.55c-.22-.3-.38-.56-.6-.84a7.76,7.76,0,0,0-.45-.86l-.82.31Z" fill="#020202"/><path d="M18,74.25a.13.13,0,0,0,0,.06l.32.66a12.65,12.65,0,0,0,.74,1.39c.3.46.59.91.82,1.28.07.11.14.2.21.29a4.23,4.23,0,0,0,.47.44c.29.32.58.65.86,1l.85.93a6.24,6.24,0,0,0,.89.89c.46.38.94.73,1.42,1.08.33.23.65.48,1,.73a5.59,5.59,0,0,0,1,.68,19.17,19.17,0,0,0,3.75,1.71,18.63,18.63,0,0,0,2.19.59,11.92,11.92,0,0,0,2,.33,10.52,10.52,0,0,0,2,0c.63,0,1.28,0,1.91-.16a11.08,11.08,0,0,1,1.15,0l.06-.85-.32-.79c-.6.06-1.19.19-1.79.22s-1.2.06-1.79,0-1-.28-1.44-.33-.85,0-1.27-.09a7.48,7.48,0,0,1-.82-.18c-.26-.1-.53-.2-.8-.28a23.13,23.13,0,0,1-2.64-1,24.82,24.82,0,0,1-2.49-1.45,11.24,11.24,0,0,1-1-.7L24.28,80a14.92,14.92,0,0,1-2.56-3.06c-.16-.2-.38-.35-.55-.55a2.89,2.89,0,0,1-.42-.57c-.15-.31-.33-.39-.47-.68L20.22,75,20,74.47l-.27-.56c-.05-.11-.11-.2-.15-.31l-.81.21Z" fill="#020202"/><path d="M14.3,75.82l0,.11c.27.56.59,1.09.84,1.65a5.92,5.92,0,0,0,.3.62l.08.13.09.14a22.43,22.43,0,0,0,1.53,2.06.87.87,0,0,0,.08.1L18.31,82c.58.62,1.21,1.2,1.81,1.81s1.21,1.14,1.86,1.67a30.31,30.31,0,0,0,2.85,1.8l1.39.81c.48.23,1,.46,1.47.67l.71.28.75.19,1.48.38c.58.14,1.17.25,1.75.37l.83.16.84.07,1.69.13c1.14,0,2.29.05,3.43-.1.32,0,.65,0,1,0l.09-.87-.35-.79-.56.06c-.54,0-1.06.16-1.6.16l-1.74,0c-.58,0-1.14-.09-1.71-.14a20.71,20.71,0,0,1-2.48-.42,7.8,7.8,0,0,1-1.34-.36l-1.33-.41c-.85-.37-1.72-.7-2.54-1.13-.35-.19-.7-.38-1-.55a6.32,6.32,0,0,1-1.22-.61c-.5-.35-1-.75-1.44-1.13A25.08,25.08,0,0,1,19,80.4c-.24-.33-.56-.79-.87-1.24s-.54-1-.77-1.31-.35-.4-.5-.62L16.71,77l-.86-1.8-.91.13Z" fill="#020202"/><path d="M10.38,77.48c.2.37.41.72.56,1.08l.39.85.37.78.42.74.39.66A9,9,0,0,0,13.38,83c.18.22.85.92,1.42,1.66h0a8.87,8.87,0,0,0,.77,1c.39.44.85.81,1.27,1.21.71.65,1.45,1.23,2.17,1.85s1.53,1.1,2.29,1.65,1.56.92,2.35,1.38a10.4,10.4,0,0,0,1.38.78c.7.29,1.39.6,2.11.82s1.47.42,2.2.6,1.61.36,2.39.58a10.12,10.12,0,0,0,2.45.38c1.4.12,2.7.08,4,.08a15.19,15.19,0,0,0,2.58-.49l.14-.77-.37-.74a13.8,13.8,0,0,1-2.31.36,20.16,20.16,0,0,0-2.19-.06A22.66,22.66,0,0,1,32.65,93L31,92.69l-.84-.17-.83-.25c-.53-.16-1.05-.35-1.56-.54s-1-.46-1.5-.68l-1.38-.64-1.32-.75c-.9-.46-1.73-1-2.59-1.57a10.93,10.93,0,0,1-1.59-1.21c-.52-.45-1.1-.85-1.58-1.34s-1-1-1.46-1.49a22.74,22.74,0,0,1-2.5-3.71,10.45,10.45,0,0,0-.62-.91,7.2,7.2,0,0,1-.58-1h0c-.24-.52-.54-1-.84-1.58L11,77Z" fill="#020202"/><path d="M6.42,79.16v0a18.7,18.7,0,0,0,1,2.28l.06.11a9.6,9.6,0,0,0,.6,1c.24.35.49.69.71,1s.73.9,1,1.34l.35.42.51.58L11.57,87c.64.8,1.53,1.69,2.38,2.64A33.28,33.28,0,0,0,16.57,92a34.1,34.1,0,0,0,3.15,2.09c1.05.52,2.05,1.12,3.4,1.7.78.34,1.38.78,2.14,1.12,1.06.41,2.21.6,3.29,1a30.2,30.2,0,0,0,3.81.91c1.18.1,2.07.12,3.24.19.79,0,1.57,0,2.35,0a29.39,29.39,0,0,0,3.5-.33l.52-.78-.75-.73c-.2,0-.41.07-.59.08l-1.91.17c-.61,0-1.21,0-1.92,0-.42,0-.83,0-1.26.07a11.83,11.83,0,0,1-1.33,0l-1.69-.18c-.54-.06-1.06-.19-1.58-.28a16.23,16.23,0,0,1-3.15-.81,35.83,35.83,0,0,1-9.67-5c-.45-.29-.87-.61-1.3-.94L15.35,89c-.47-.42-.92-.88-1.37-1.32a28,28,0,0,1-2.67-3.27c-.57-.73-1-1.48-1.47-2.21-.31-.52-.66-1.12-1-1.74s-.73-1.25-1-1.86l-.82.1Z" fill="#020202"/><path d="M2.54,80.8c.31.72.68,1.48.84,1.82l.06.1A24.45,24.45,0,0,0,4.77,85c.29.47.56,1,.84,1.44a14.17,14.17,0,0,0,.76,1.24c.6.8,1.25,1.57,1.92,2.3l.21.24c.26.33.55.59.78.85.83.87,1.46,1.43,2.08,2s1.32,1,2.21,1.79c.55.5,1.16.59,1.72,1.11a13.44,13.44,0,0,0,1,1,8.16,8.16,0,0,0,1.45.72c.35.17.69.46,1,.66.55.32,1.09.67,1.64,1s1.16.63,1.75.9a18.41,18.41,0,0,0,1.81.72c.63.19,1.26.37,1.9.59a36.16,36.16,0,0,0,4.89,1.31,19.37,19.37,0,0,0,2.65.31l1.67.11c.65.06,1.18,0,1.56,0,2.17,0,1.88-.25,4-.36.28,0,.82-.07,1.39-.14l.52-.7-.74-.75a11.48,11.48,0,0,1-1.33.19c-.53,0-1.09.15-1.66.21a13.65,13.65,0,0,1-1.68,0c-.51,0-1.17-.05-1.9-.12l-2-.23c-.6-.07-1.22-.12-1.8-.23l-1.75-.35L28,100.49,26.32,100l-1.66-.54c-.54-.2-1.06-.44-1.58-.67a18,18,0,0,1-2.64-1.2c-1-.64-1.65-.86-2.61-1.55s-2.41-1.59-3.39-2.39c-.8-.64-1.64-1.25-2.39-1.95s-1.49-1.45-2.21-2.2c-.85-1-1.6-2.14-2.35-3.26-.38-.61-.82-1.18-1.21-1.78a14.68,14.68,0,0,1-.87-1.5h0c-.1-.19-.19-.4-.3-.59-.46-.81-.85-1.43-1.21-2.13l-.83,0Z" fill="#020202"/><path d="M28.26,60.63a1,1,0,0,1,.26-.12,2.09,2.09,0,0,0,1-.53l0,0a.93.93,0,0,1-.38.24A2.88,2.88,0,0,0,28.26,60.63Z" fill="#020202"/><path d="M27.48,54.41c-.5.17-1.3.59-1.73.77a7.61,7.61,0,0,0-1.08.69A25.4,25.4,0,0,1,27.48,54.41Z" fill="#020202"/><path d="M27.88,56.07l-.54.25C27.5,56.25,27.73,56.15,27.88,56.07Z" fill="#020202"/><path d="M24.29,51.44l.14-.06Z" fill="#020202"/><path d="M23.32,47.21c-.4.17-.83.31-1.21.5l-.18.11,1.53-.66Z" fill="#020202"/><path d="M21.45,43.27l-.86.48.95-.52Z" fill="#020202"/><path d="M20.58,39.09l-1.71.79a18.81,18.81,0,0,0-2,1c.49-.24,1-.49,1.45-.71C19.11,39.86,19.82,39.43,20.58,39.09Z" fill="#020202"/><path d="M29.72,58.08l-.13,0a4.63,4.63,0,0,0-.82.36l0,0c-.55.31-1.11.46-1.64.8a8.07,8.07,0,0,0-1.22.81c-.37.3-.85.47-1.2.78a7.21,7.21,0,0,0-.88.66,13.44,13.44,0,0,0-1,1.59c-.15.29-.4.52-.53.81s-.3.57-.46.85a4.86,4.86,0,0,0-.31,1c-.12.36-.14.67-.25,1a1.85,1.85,0,0,0-.16,1c.07.38-.14.87-.05,1.28s0,.59,0,.89l.2.9.09.44.18.43a9.18,9.18,0,0,1,.31.88l.74-.19L23.3,72h0a4.17,4.17,0,0,0-.07-1,1.59,1.59,0,0,0-.12-.27,2.41,2.41,0,0,0-.08-.25l-.2-.51c-.17-.37,0-.64-.06-1a.93.93,0,0,1,0-.47,1.21,1.21,0,0,0,.12-.44c0-.17,0-.34,0-.52a2.78,2.78,0,0,1,.18-.48.8.8,0,0,0,.12-.68c0-.2.1-.37.16-.55a1.81,1.81,0,0,1,.16-.36,2,2,0,0,0,.2-.37l.17-.52.3-.47.24-.41c.1-.14.22-.26.33-.39a4.9,4.9,0,0,1,.69-.77l.81-.68s.28-.21.3-.19l.35-.29a2.41,2.41,0,0,1,.63-.37,2.57,2.57,0,0,0,.75-.46,2.88,2.88,0,0,1,.92-.44.93.93,0,0,0,.38-.24,1.71,1.71,0,0,1,.7-.43l-.13-.63Z" fill="#020202"/><path d="M31.21,62.08l-.49.18-.45.2c-.24.09-.54.19-.78.31l-.09,0-.82.38a5.43,5.43,0,0,0-.71.46,1.93,1.93,0,0,0-.28.22c-.07.09-.12.19-.18.28a2.9,2.9,0,0,1-.38.52c-.11.2-.3.31-.43.49a2,2,0,0,0-.39.56c-.12.23-.35.36-.4.6a.88.88,0,0,1-.12.26,1.31,1.31,0,0,1-.09.28c-.05.17-.23.35-.18.53a1.93,1.93,0,0,1,0,.34.53.53,0,0,0,0,.33,2,2,0,0,1,0,.34,1,1,0,0,1,0,.17l.05.18c.07.27,0,.55.09.87,0,.16,0,.33,0,.51l.15.55.09.28.8-.26.79-.42-.06-.23a8.36,8.36,0,0,1-.27-1.11.82.82,0,0,0,0-.27s0-.1,0-.14a.76.76,0,0,0,0-.11.65.65,0,0,0,0-.24c0-.08.05-.15,0-.22a1.93,1.93,0,0,0,0-.24.66.66,0,0,0,.09-.28.54.54,0,0,1,0-.21l.19-.16a1.63,1.63,0,0,0,.3-.34c.09-.19.07-.39.24-.6a1.18,1.18,0,0,1,.26-.29.9.9,0,0,0,.38-.25,2.11,2.11,0,0,1,.54-.63,2.06,2.06,0,0,1,.53-.17,2.19,2.19,0,0,0,.47-.29l.22-.17.28-.12c.38-.14.74-.38,1.19-.51l-.27-.84Z" fill="#020202"/><path d="M28.26,54.15l-.06,0-.72.24a25.4,25.4,0,0,0-2.81,1.46l-.31.17a3.79,3.79,0,0,0-.5.41c-.33.28-.65.56-1,.81a7.74,7.74,0,0,0-1,.75c-.31.26-.63.52-.92.79-.37.43-.68.91-1.06,1.33l-.68.92a5,5,0,0,0-.64.94,13.43,13.43,0,0,0-1.34,3.61A11.3,11.3,0,0,0,17,67.7l-.07.94c0,.32,0,.64.06,1l.09.93c.06.3.16.61.23.91l.22.88c.08.29.23.56.32.85s.13.72.22,1.08l.85-.16.68-.49c-.19-.53-.39-1-.59-1.56s-.23-1.07-.34-1.6.12-1,.08-1.4a9.1,9.1,0,0,1-.11-1.16c0-.25,0-.5,0-.76s.13-.48.18-.73A13.71,13.71,0,0,1,19.51,64c.2-.38.39-.76.57-1.15a8.28,8.28,0,0,1,.67-1.1,13.51,13.51,0,0,1,1.38-1.76,15.68,15.68,0,0,1,1.45-1.23c.57-.33,1.08-.72,1.67-1a4.75,4.75,0,0,0,.6-.52,3.1,3.1,0,0,1,.59-.41,6,6,0,0,0,.76-.39l.14-.06.54-.25a4.16,4.16,0,0,1,.62-.23l.34-.13-.16-.83Z" fill="#020202"/><path d="M26.85,50.36l-.11,0c-.29.1-.57.21-.85.33s-.56.27-.84.39l-.62.27-.14.06-.15.07c-.69.28-1.53,1-2.17,1.37a.6.6,0,0,0-.11.06c-.47.32-.92.68-1.4,1a17.26,17.26,0,0,0-1.93,1.7,21.28,21.28,0,0,0-1.75,1.8,12.57,12.57,0,0,0-1,1.41l-.46.71c-.14.25-.25.51-.38.76l-.76,1.44c-.2.51-.4,1-.57,1.53-.08.24-.16.49-.22.74l-.11.77-.21,1.54L13,68.14a8,8,0,0,0,0,1.69c.07.56.07,1.13.19,1.69l.34,1.7a16.49,16.49,0,0,0,.48,1.66c.1.31.16.63.25.94l.88-.13.67-.52-.19-.53-.52-1.5a16.89,16.89,0,0,1-.53-3.37,12.84,12.84,0,0,1,0-2.48l0-.68.14-.67.26-1.34c.1-.44.28-.87.42-1.3A7,7,0,0,1,16,62c.17-.35.34-.7.5-1.06a4.75,4.75,0,0,1,.58-1.2,10.82,10.82,0,0,1,1.13-1.4c.65-.7,1.14-1.38,1.76-1.94.3-.3.59-.6.91-.9s.71-.53,1.11-.81l.59-.39.73-.37c.5-.24,1-.51,1.33-.71s.45-.29.69-.41l.26-.14.92-.42c.31-.13.63-.23,1-.34l-.1-.92Z" fill="#020202"/><path d="M25.37,46.37a8.17,8.17,0,0,1-1.08.44l-.83.35-1.53.66a6.16,6.16,0,0,0-.68.34,14.7,14.7,0,0,0-1.4.78c-.25.12-1,.75-1.77,1.31h0c-.35.22-.71.44-1.05.68s-.87.85-1.3,1.27a26.47,26.47,0,0,0-3.81,4.61l-.4.6-.34.65-.66,1.31a8.5,8.5,0,0,0-.75,1.51A20.57,20.57,0,0,0,9.1,63.2c-.15.8-.27,1.61-.38,2.41a23.55,23.55,0,0,0-.2,5.17l.12,1.06c.06.35.14.69.2,1,.14.69.27,1.39.43,2.07a21.39,21.39,0,0,0,1.11,2.53l.8,0,.61-.54a16.35,16.35,0,0,1-.9-2.26c-.18-.74-.2-1.52-.41-2.25a8.58,8.58,0,0,1-.31-1.74c-.07-.58-.12-1.16-.17-1.73s.06-1.17.08-1.76a9.2,9.2,0,0,1,.21-1.79A16.37,16.37,0,0,1,11.23,62c.19-.5.35-1,.57-1.49l.72-1.42a31.19,31.19,0,0,1,1.61-2.74,13.54,13.54,0,0,1,1.31-1.61l.7-.82.77-.74a12.44,12.44,0,0,1,1.6-1.4c.63-.43,1.25-.87,1.89-1.23l2-1c.65-.31,1.27-.73,1.92-1h0l1.59-.71L25.84,47Z" fill="#020202"/><path d="M23.86,42.34h0a9.76,9.76,0,0,0-2.2.83l-.1,0-.95.52c-.36.21-.72.37-1.07.58s-.92.69-1.37.94c0,0-.84.57-1.08.75s-.76.54-1.14.83l-1.39,1L13,49.16a21.27,21.27,0,0,0-2.68,2.71,14.13,14.13,0,0,0-1.3,1.79c-.37.57-.71,1.12-1,1.67l-.86,1.8a17.31,17.31,0,0,0-.87,2c-.31.88-.73,1.59-1,2.45-.32,1.22-.41,2.51-.67,3.74a26.23,26.23,0,0,0-.32,4.24c.12,1.24.2,2.18.42,3.39l.52,2.54a37.48,37.48,0,0,0,1.21,3.62c.3.12.62.22.93.32.16-.31.31-.61.48-.92-.08-.2-.17-.41-.23-.59a23.13,23.13,0,0,1-1.09-4A16.86,16.86,0,0,1,6,71.28a27.75,27.75,0,0,1-.1-3.5,15.41,15.41,0,0,1,.4-3.5,29.51,29.51,0,0,1,1.88-5.72C8.59,57.69,9,56.8,9.51,56s1.08-1.65,1.67-2.48l1.06-1.35a26.52,26.52,0,0,1,2.81-2.89,13.32,13.32,0,0,1,1.74-1.3c.58-.4,1.16-.8,1.8-1.17s1.51-.93,2.27-1.3C22,45,23.21,44.18,24.4,43.77L24.31,43Z" fill="#020202"/><path d="M22.4,38.39a17.86,17.86,0,0,0-1.72.65l-.1.05c-.76.34-1.47.77-2.22,1.12-.48.22-1,.47-1.45.71s-.85.44-1.26.68a15.42,15.42,0,0,0-2.48,1.77l-.26.21-1,.71a26.49,26.49,0,0,0-2.23,2.13c-.63.62-1.21,1.37-2.09,2.34-.54.63-.74,1.22-1.3,1.87a15.27,15.27,0,0,0-1.07,1.2,12.51,12.51,0,0,0-.83,1.63c-.19.41-.49.82-.71,1.23L2.65,56.63c-.33.67-.61,1.36-.87,2s-.47,1.4-.65,2.11S.85,62.26.7,63A31.39,31.39,0,0,0,0,68.65a23,23,0,0,0,.17,2.88c.05.43.12,1.1.19,1.78s.24,1.3.31,1.7a10.54,10.54,0,0,0,.6,2.22A12.85,12.85,0,0,1,2,79.32c.08.3.28.87.5,1.48.28.13.57.24.85.35l.5-.93a13.88,13.88,0,0,1-.53-1.38c-.18-.56-.41-1.14-.63-1.73a9.1,9.1,0,0,1-.44-1.82c-.09-.56-.2-1.33-.31-2.1S1.87,71.61,1.83,71l-.1-1.94.09-2,.13-2c.09-.64.21-1.29.33-1.94s.26-1.28.41-1.92.38-1.23.59-1.84a17.69,17.69,0,0,1,1.17-3c.33-.59.56-1.06.8-1.54a8.39,8.39,0,0,1,.87-1.47c.86-1.16,1.8-2.72,2.72-3.76a20.86,20.86,0,0,1,2.24-2.51A22.9,22.9,0,0,1,13.56,45c.55-.41,1.12-.79,1.7-1.16s1.18-.64,1.76-1,1.2-.77,1.81-1.09l1.49-.7h0c.19-.09.38-.16.56-.26a22.13,22.13,0,0,1,2-1l0-.82Z" fill="#020202"/><path d="M48.49,62l.28.18a5.16,5.16,0,0,0,1.17.71H50a1.31,1.31,0,0,1-.47-.26A3.51,3.51,0,0,0,48.49,62Z" fill="#020202"/><path d="M53.55,58.15A11.93,11.93,0,0,0,51.91,57c-.38-.24-.78-.45-1.18-.65C51.51,56.87,52.72,57.52,53.55,58.15Z" fill="#020202"/><path d="M52.36,59.37,51.84,59Z" fill="#020202"/><path d="M54.37,53.84l.13.08Z" fill="#020202"/><path d="M57.44,50.77a7.67,7.67,0,0,0-1-.71l-.18-.1c.44.3.89.57,1.3.9Z" fill="#020202"/><path d="M59.8,47.09a6.3,6.3,0,0,0-.79-.42c.3.15.59.3.86.47Z" fill="#020202"/><path d="M62.78,44.09c-.78-.58-1.89-1.23-3.05-1.91.39.27.78.54,1.18.78C61.54,43.34,62.19,43.67,62.78,44.09Z" fill="#020202"/><path d="M51.77,62,51.65,62c-.27-.2-.57-.38-.86-.57l0,0c-.61-.42-1.15-.71-1.77-1.13a13.23,13.23,0,0,0-1.54-.8c-.26-.13-.51-.28-.75-.43l-.76-.4A8.23,8.23,0,0,0,44.72,58c-.77-.18-1.61-.36-2.32-.49a11.71,11.71,0,0,1-1.17-.28c-.4-.09-.81-.14-1.21-.21a5.6,5.6,0,0,0-1.42-.09c-1,0-1.74-.16-2.73-.06a14.56,14.56,0,0,1-1.75.13L33,57.16a6.24,6.24,0,0,0-1.14.24l-1.07.3-1,.38.14.74.4.7h0c.39-.06.78-.07,1.16-.15s.92-.35,1.4-.5.9,0,1.41-.19.94.06,1.41,0a5.12,5.12,0,0,1,1.61,0,1.89,1.89,0,0,0,1.08,0,2.31,2.31,0,0,1,.83,0c.18,0,.94.21,1.17.21a7.35,7.35,0,0,1,1.48.22,7.66,7.66,0,0,1,1.33.37,11.21,11.21,0,0,1,1.38.47c.42.17.86.43,1.3.57,0,0,.4.2.39.23l.53.23c.26.15.6.31.8.45a7,7,0,0,0,.94.55,3.51,3.51,0,0,1,1,.64,1.31,1.31,0,0,0,.47.26,3.28,3.28,0,0,1,.86.42l.47-.45Z" fill="#020202"/><path d="M49.25,65.49c-.36-.24-.73-.48-1.06-.75a9.31,9.31,0,0,0-.89-.61l-.11-.08a14.28,14.28,0,0,0-2.06-1.27,16.56,16.56,0,0,0-1.94-.57c-.37-.08-.69-.28-1.07-.37a3.86,3.86,0,0,1-.6-.21,1.91,1.91,0,0,0-.53-.1c-.4,0-.74-.33-1.18-.3a6,6,0,0,1-1-.13A9.77,9.77,0,0,0,37.71,61c-.48,0-1,.1-1.45.11s-1,.15-1.44.19-1.06.19-1.59.26-1.13.14-1.63.34l-.39.15.2.81.41.81.35-.13c.32-.13.71-.17,1.06-.28a6.51,6.51,0,0,1,1.1-.24c.23,0,.46-.1.7-.13l.71-.06c.48-.08.95,0,1.43-.1s.92.06,1.4,0a2.69,2.69,0,0,1,1,.22c.34.08.62.24.93.28s.39,0,.6,0l.72.16a4.23,4.23,0,0,1,.77.28,4,4,0,0,0,.74.38,6.56,6.56,0,0,1,1.32.43c.25.13.43.39.68.52.48.28.95.52,1.43.81s1,.67,1.45,1l.57-.68Z" fill="#020202"/><path d="M54.25,58.67l0-.05-.65-.47c-.83-.63-2-1.28-2.82-1.77l-.33-.19a6.55,6.55,0,0,0-.64-.22c-.43-.19-.85-.37-1.26-.58-.8-.37-1.59-.76-2.4-1.1-.59-.2-1.21-.32-1.79-.52-.8-.28-1.57-.48-2.37-.7l-2.08-.31-2.12-.11c-.79,0-1.58,0-2.37.07s-1.41.08-2.1.2-1.35.25-2,.42l-1.87.56c-.36.13-.75.15-1.13.25l.11.85.47.71a13.19,13.19,0,0,1,1.74-.59,11,11,0,0,1,1.8-.42c.55-.07,1.1,0,1.64-.06s.9-.21,1.36-.27,1.21,0,1.81,0a24.23,24.23,0,0,1,5.86.7c.81.17,1.65.52,2.48.76.67.25,1.32.57,2,.89s1.25.74,1.88,1.08c.25.13.54.19.81.31a3.09,3.09,0,0,1,.7.36,8.19,8.19,0,0,0,.82.44l.13.1.52.38.58.41.33.22.61-.59Z" fill="#020202"/><path d="M56.64,55.4l-.08-.07c-.5-.36-1-.66-1.51-1-.18-.14-.36-.26-.55-.38l-.13-.08-.14-.09c-.62-.38-1.61-.85-2.25-1.17a.27.27,0,0,0-.11,0l-1.51-.79c-.76-.38-1.58-.63-2.35-1s-1.53-.62-2.31-.89a11.16,11.16,0,0,0-1.63-.43c-.55-.11-1.09-.26-1.65-.34a24,24,0,0,0-3.17-.46c-.51,0-1,0-1.52,0l-1.53.12c-.59,0-1.18,0-1.77.1s-1.11.1-1.66.19l-1.65.3a16.21,16.21,0,0,0-1.68.36,16.19,16.19,0,0,0-1.66.43c-.3.09-.62.15-.93.24l.09.87.5.71.53-.2a11.84,11.84,0,0,1,1.54-.46c.57-.14,1.12-.32,1.7-.41l1.73-.28c.84-.11,1.69-.15,2.54-.25a30,30,0,0,1,5.6.25c.39.06.79.11,1.18.15s.91.09,1.35.19a12.29,12.29,0,0,1,1.74.59c.92.35,1.75.55,2.54.87a13.66,13.66,0,0,1,2.48,1.07c.36.2.84.49,1.32.77s.93.64,1.29.85.5.21.73.34l.27.15,1.67,1.19.72-.59Z" fill="#020202"/><path d="M59.16,52a9.3,9.3,0,0,1-.93-.6l-.68-.51c-.41-.33-.86-.6-1.3-.9l-.59-.39a10.48,10.48,0,0,0-1.28-.79c-.23-.11-1.08-.44-1.86-.85h0a10,10,0,0,0-1-.56c-.5-.23-1.05-.38-1.56-.58-.84-.36-1.71-.6-2.56-.9-.44-.14-.85-.29-1.29-.42l-1.36-.34c-.44-.11-.88-.23-1.32-.32l-1.33-.2c-.5-.07-1-.28-1.51-.32a27.85,27.85,0,0,0-4.38,0l-2.32.08a12.57,12.57,0,0,0-2.33.22c-.63.13-1.26.25-1.9.35l-1.89.44a11.38,11.38,0,0,0-2.4,1l0,.79.51.64a9.36,9.36,0,0,1,2.17-.8c.71-.13,1.43-.23,2.11-.42a25.78,25.78,0,0,1,6.5-.8,24.41,24.41,0,0,1,3.19.21c1,0,2,.3,3,.42s2,.44,3,.61c.62.16,1.22.4,1.83.6l1,.29.94.36c.62.25,1.24.49,1.85.78A33.54,33.54,0,0,1,55,51.27c.57.4,1.28.62,1.84,1h0a14.2,14.2,0,0,0,1.41.91l.65-.52Z" fill="#020202"/><path d="M61.7,48.5l0,0A16.2,16.2,0,0,0,60,47.2l-.09-.06c-.27-.17-.56-.32-.86-.47s-.66-.35-1-.53-.94-.41-1.33-.66l-.44-.21L55.63,45l-1.12-.56a47,47,0,0,0-6-2.58A24.9,24.9,0,0,0,45,41c-1.13-.23-2.26-.3-3.66-.5-.8-.07-1.49-.28-2.27-.35-1.08-.12-2.14.09-3.2.06a25.34,25.34,0,0,0-3.59.11c-1.05.13-1.82.36-2.87.54-.74.12-1.47.34-2.22.49a15.41,15.41,0,0,0-1.65.44c-.54.19-1.08.39-1.64.57l-.33.88.87.55c.18-.07.37-.15.55-.2a31.28,31.28,0,0,1,3.63-1c.79-.17,1.57-.43,2.36-.55,1.07-.17,2-.24,3-.34a18.67,18.67,0,0,1,3-.1,43.15,43.15,0,0,1,10.44,1.61c.48.15,1,.26,1.45.4,1.15.32,2.23.78,3.34,1.21,1.29.47,2.22,1.19,3.45,1.77.74.39,1.38.8,2.05,1.2.91.6,2.1,1.27,3.08,1.91l.63-.54Z" fill="#020202"/><path d="M64.19,45.1l-1.33-1-.08,0c-.59-.42-1.24-.75-1.87-1.13-.4-.24-.79-.51-1.18-.78s-.68-.47-1-.68c-.77-.41-1.57-.78-2.37-1.12l-.25-.11c-.33-.17-.64-.32-.92-.44-2-.83-2.83-1-4.86-1.7a13,13,0,0,1-1.8-.42c-.43-.18-.83-.4-1.28-.54A12.48,12.48,0,0,0,45.63,37c-.38-.08-.78-.23-1.16-.29-1.2-.19-2.45-.61-3.65-.7s-2.43-.1-3.65-.08l-2.28,0c-.75,0-1.51.07-2.27.11a16.55,16.55,0,0,0-2.32.3l-2.87.5c-2.05.45-1.69.67-3.73,1.16-.26.07-.77.24-1.3.42l-.35.8.86.58a10.88,10.88,0,0,1,1.24-.46,22,22,0,0,1,3.11-.9c1-.19,2.62-.34,3.59-.49s2.12-.19,3.19-.3a40.37,40.37,0,0,1,6.41,0A19.58,19.58,0,0,1,43.2,38a23,23,0,0,1,2.9.6c.6.18,1.29.35,2,.51l1.83.52a36,36,0,0,1,5.27,1.92c1,.54,2.06,1.17,3.06,1.78.52.33,1.08.59,1.62.9s.85.51,1.25.78h0c.15.11.3.22.46.32.66.39,1.2.67,1.75,1l.65-.5Z" fill="#020202"/><path d="M64.09,81.05l.12.35a4.3,4.3,0,0,0,.62,1.39l0,0a1.9,1.9,0,0,1-.27-.53A6,6,0,0,0,64.09,81.05Z" fill="#020202"/><path d="M70.48,81c-.16-.54-.56-1.44-.73-1.91a8.66,8.66,0,0,0-.62-1.26C69.55,78.66,70.07,80,70.48,81Z" fill="#020202"/><path d="M68.8,81.29l-.24-.63A5.87,5.87,0,0,0,68.8,81.29Z" fill="#020202"/><path d="M73.59,77.89l0,.14Z" fill="#020202"/><path d="M77.86,77.12c-.13-.37-.23-.77-.39-1.12l-.08-.17.51,1.42Z" fill="#020202"/><path d="M81.89,75.46c-.09-.22-.23-.48-.37-.75l.4.82Z" fill="#020202"/><path d="M86.05,74.63c-.34-.83-.76-1.91-1.26-3l.44,1.2C85.47,73.43,85.8,74,86.05,74.63Z" fill="#020202"/><path d="M66.82,83.25l0-.16a9.26,9.26,0,0,0-.42-1v0c-.34-.72-.54-1.38-.86-2.12-.25-.58-.55-1.14-.81-1.71s-.52-1.15-.77-1.75a7.35,7.35,0,0,0-.64-1.36c-.24-.37-.51-.73-.77-1.09s-.56-.69-.81-1c-.54-.82-1.08-1.63-1.64-2.43A10,10,0,0,0,59,69.22c-.77-.84-1.19-1.62-2-2.41-.45-.4-.94-1-1.35-1.45-.61-.63-1.26-1.21-1.9-1.81s-1.3-1-2-1.51l-.57.52-.34.73h0c.34.29.57.74.91,1s1,.63,1.4,1,.71.75,1.17,1.16.64.87,1,1.26a8.63,8.63,0,0,1,1.25,1.45,2.56,2.56,0,0,0,.85,1,3,3,0,0,1,.65.77c.14.16.66,1,.84,1.21a12.31,12.31,0,0,1,1.16,1.53c.31.46.63.91.92,1.38l.84,1.44c.28.43.45,1,.73,1.44,0,0,.24.45.21.46a4.86,4.86,0,0,1,.32.57c.13.32.32.7.4,1a6.41,6.41,0,0,0,.52,1.1,6,6,0,0,1,.5,1.26,1.9,1.9,0,0,0,.27.53,3.19,3.19,0,0,1,.51.93l.65-.09Z" fill="#020202"/><path d="M62.81,84.7l-.53-1.41c-.12-.36-.28-.79-.42-1.16l0-.17c-.35-.85-.65-1.8-1.08-2.61a16.17,16.17,0,0,0-1.35-2c-.26-.39-.4-.83-.67-1.2s-.51-.91-.84-1.3-.56-1-.93-1.45c-.61-.72-1.1-1.53-1.71-2.23-.44-.44-.88-.87-1.3-1.32s-.88-.84-1.3-1.27-1-.9-1.45-1.39-1-.94-1.51-1.41a2.94,2.94,0,0,0-.42-.3l-.6.59-.43.81a2.4,2.4,0,0,1,.41.3c.36.31.73.62,1.1.91s.72.66,1.09,1c.9.84,1.76,1.77,2.63,2.71.47.45.81,1,1.27,1.47a5.41,5.41,0,0,1,.82,1.25,11.8,11.8,0,0,0,.78,1.28c.39.54.73.92,1.13,1.46s.6,1.3.94,1.84.64.94.91,1.44c.17.3.16.69.3,1,.25.63.59,1.16.82,1.79s.53,1.27.76,2l.85-.24Z" fill="#020202"/><path d="M70.76,81.82l0-.07L70.48,81c-.41-1-.93-2.31-1.35-3.17L69,77.44c0-.12-.25-.41-.37-.6-.21-.43-.47-.84-.69-1.26-.4-.83-.76-1.67-1.23-2.46-.33-.56-.69-1.1-1.05-1.63-.48-.74-.86-1.55-1.38-2.26-.84-1.25-1.79-2.42-2.74-3.57l-1.65-1.87-1.53-1.6c-.52-.49-1.08-.95-1.61-1.42s-1.09-.82-1.61-1.25c-.31-.25-.54-.61-.86-.85l-.67.55-.31.78a26.92,26.92,0,0,1,3,2.51c.42.4.74.91,1.12,1.35s.78.62,1.14,1,.83,1,1.27,1.49a51.92,51.92,0,0,1,3.95,5.23l.76,1.17.71,1.2a15.16,15.16,0,0,1,1,2q.48,1.05.9,2.13a5.94,5.94,0,0,0,.5.77,2.68,2.68,0,0,1,.38.73,9.37,9.37,0,0,0,.4.9l.07.16.24.63c.09.23.17.47.25.71l.15.39.83-.14Z" fill="#020202"/><path d="M74.56,80.44l0-.1c-.19-.58-.46-1.12-.67-1.69L73.64,78l0-.14,0-.16c-.24-.68-.86-1.59-1.13-2.26l-.06-.1c-.23-.52-.47-1-.73-1.53-.37-.75-.78-1.49-1.21-2.21s-.73-1.47-1.17-2.16c-.6-.94-1.21-1.86-1.87-2.75S66.21,65,65.53,64.13a28.66,28.66,0,0,0-2.06-2.21c-.39-.43-.77-.89-1.19-1.3-.77-.8-1.56-1.58-2.39-2.32S58.21,56.79,57.35,56c-.24-.21-.46-.45-.71-.64L56,56l-.31.8c.15.11.31.21.46.34l1.26,1c.93.72,1.75,1.57,2.61,2.38l1.79,1.88c.61.72,1.26,1.41,1.86,2.15S64.84,66,65.38,66.8c.23.33.47.66.73,1A11.11,11.11,0,0,1,67,68.85c.34.53.6,1.09.92,1.62.49.87.94,1.61,1.41,2.33s.86,1.49,1.3,2.39.81,2.13,1.14,2.89c.11.25.28.48.38.73,0,.09.09.18.13.28.26.63.51,1.27.72,1.93l.92-.09Z" fill="#020202"/><path d="M78.57,79a6.62,6.62,0,0,1-.4-1l-.27-.77-.51-1.42-.24-.64a14.13,14.13,0,0,0-.56-1.32c-.12-.22-.53-1-.91-1.72h0c-.14-.34-.28-.68-.44-1a13.46,13.46,0,0,0-.79-1.37c-.44-.74-.88-1.48-1.31-2.22l-1.37-2.17c-.44-.69-.93-1.36-1.4-2-.28-.39-.46-.85-.77-1.21a35.75,35.75,0,0,0-2.72-3.07c-1-1.1-1.83-2.21-2.94-3.27-.95-.78-1.77-1.68-2.73-2.47A14.25,14.25,0,0,0,59.16,52l-.65.47-.26.76a10.61,10.61,0,0,1,1.81,1.31c.52.46,1,1,1.49,1.43a22.73,22.73,0,0,1,2.34,2.11L65,59.17l1,1.19c.69.76,1.25,1.61,1.86,2.42s1.12,1.54,1.66,2.31l1.63,2.32a16,16,0,0,1,1,1.58,34.77,34.77,0,0,1,1.91,3.35c.63,1.23,1.05,2.56,1.55,3.83.22.64.61,1.23.87,1.85h0c.19.49.4,1,.63,1.49l.82-.07Z" fill="#020202"/><path d="M82.61,77.52v0A10.93,10.93,0,0,0,82,75.62l0-.09-.4-.82c-.16-.31-.3-.62-.43-.93s-.51-.81-.68-1.21l-.52-1c-.16-.34-.31-.69-.5-1-.42-.75-.85-1.72-1.33-2.68s-1-1.91-1.43-2.65c-.67-1-1.22-1.87-1.81-2.67S73.6,61,72.85,60c-.45-.56-.7-1.15-1.13-1.72-.55-.77-1.34-1.39-1.93-2.14a24.7,24.7,0,0,0-2.11-2.48c-.68-.7-1.26-1.14-2-1.8-.52-.46-1-.94-1.54-1.4-.79-.71-1.63-1.32-2.46-2l-.89.24,0,1c.15.11.32.21.45.31,1,.85,1.69,1.41,2.62,2.3.53.52,1.2.92,1.72,1.45a54.11,54.11,0,0,1,3.79,4.1,91.28,91.28,0,0,1,5.53,7.73c.26.39.55.75.79,1.15.57.94,1.17,1.87,1.68,2.84s1,2.13,1.53,3.27c.34.72.65,1.37.91,2.05.31,1,1,2.11,1.36,3.12l.81-.11Z" fill="#020202"/><path d="M86.57,76.09c-.18-.54-.37-1.11-.48-1.38l0-.08c-.25-.62-.58-1.2-.82-1.82l-.44-1.2c-.13-.35-.26-.7-.41-1a17.81,17.81,0,0,0-1.08-2.08l-.12-.22-.42-.81c-.85-1.7-1.47-2.24-2.37-3.91-.29-.52-.77-.75-1-1.32A8.11,8.11,0,0,0,79,61.17a6.28,6.28,0,0,0-.87-1c-.21-.25-.35-.59-.53-.85-.58-.85-1-1.83-1.69-2.65s-1.34-1.58-2-2.39c-.84-1-1.67-2.06-2.59-3-.36-.4-1.06-1.11-1.46-1.47S68.31,48.43,67.88,48c-1.33-1.3-1.41-.84-2.75-2.13a9.3,9.3,0,0,0-.94-.77l-.82.19,0,1a6.39,6.39,0,0,1,1,.71c.69.6,1.63,1.16,2.26,1.83s1.64,1.73,2.26,2.35l2,2.09c1.27,1.41,2.54,2.81,3.65,4.31a18.58,18.58,0,0,1,1.46,1.88c.51.83.92,1.22,1.4,2.07s1.3,2,1.87,2.86a44.17,44.17,0,0,1,2.57,4.34,32.08,32.08,0,0,1,1.24,3c.22.52.51,1,.73,1.52l.51,1.25h0c.07.16.12.32.19.47.33.65.57,1.13.81,1.66l.81-.08Z" fill="#020202"/><path d="M70,108.18l0,.43a5.51,5.51,0,0,0,.19,1.7l0,.07a2.1,2.1,0,0,1-.1-.67A7.41,7.41,0,0,0,70,108.18Z" fill="#020202"/><path d="M76.12,110.19c0-.59-.1-1.6-.14-2.13a14.16,14.16,0,0,0-.18-1.44C75.88,107.61,76.05,109.07,76.12,110.19Z" fill="#020202"/><path d="M74.43,110l-.05-.72C74.39,109.5,74.4,109.81,74.43,110Z" fill="#020202"/><path d="M80,108.12v0Z" fill="#020202"/><path d="M84.31,108.62c0-.37,0-.75,0-1.12l0-.18,0,1.43Z" fill="#020202"/><path d="M88.65,108.21a6.46,6.46,0,0,0-.13-.74c0,.28.09.55.14.81Z" fill="#020202"/><path d="M92.86,108.52c-.06-.76-.15-1.76-.26-2.81,0,.37,0,.74,0,1.11C92.68,107.4,92.81,108,92.86,108.52Z" fill="#020202"/><path d="M72,111.43l0-.19c0-.4-.07-.8-.12-1.21V110c-.1-.87-.13-1.62-.2-2.51,0-.69-.15-1.38-.23-2.07s-.07-1.38-.11-2.08a14.7,14.7,0,0,0-.1-1.63c-.17-1-.47-1.88-.64-2.83s-.3-2.1-.51-3.12A17.42,17.42,0,0,0,69.68,94c-.38-1.17-.31-2.16-.71-3.32-.21-.62-.32-1.46-.5-2.09-.23-.92-.46-1.85-.76-2.75s-.59-1.7-.89-2.55l-.76.09-.69.43v0c.11.49.12,1,.27,1.49.18.62.47,1.19.7,1.8s.22,1.14.45,1.78.17,1.18.33,1.79a9.76,9.76,0,0,1,.45,2.08,2.62,2.62,0,0,0,.34,1.4,3.38,3.38,0,0,1,.24,1.09c0,.24.19,1.31.27,1.61.17.69.31,1.39.44,2.09.2,1.2.41,2.41.56,3.64.08.58.09,1.22.19,1.79,0,0,.06.57,0,.58.06.36.08.52.11.72,0,.38.09.86.08,1.17a7.22,7.22,0,0,0,.14,1.36,7.41,7.41,0,0,1,.13,1.53,2.1,2.1,0,0,0,.1.67,4.49,4.49,0,0,1,.25,1.16l.65.09Z" fill="#020202"/><path d="M67.74,111.74c0-.58-.11-1.17-.13-1.75s0-1-.08-1.45v-.2c0-1.09-.09-2.24-.2-3.29s-.4-1.81-.57-2.72c-.09-.53-.08-1-.2-1.56s-.09-1.2-.26-1.76-.09-1.32-.27-2c-.3-1-.33-2.14-.63-3.15-.37-1.38-.75-2.73-1.14-4.06-.23-.74-.39-1.51-.61-2.24S63.28,86,63,85.28l-.21-.58-.84.14-.79.46.2.57c.36,1.08.7,2.2,1,3.31.41,1.41.75,2.86,1.13,4.32.18.75.35,1.46.52,2.22.29,1.1.2,2.35.44,3.49.17.76.31,1.35.49,2.12s.09,1.67.22,2.42.3,1.31.38,2c0,.41-.06.83,0,1.25,0,.81.19,1.55.25,2.36s.13,1.68.2,2.52h.88Z" fill="#020202"/><path d="M76.17,111.12v-.07l0-.86c-.07-1.12-.24-2.58-.32-3.57l0-.41a4.52,4.52,0,0,0-.16-.71c-.08-.5-.17-1-.21-1.49-.09-1-.16-1.9-.26-2.84-.09-.67-.27-1.32-.36-2-.11-.91-.19-1.82-.33-2.72-.26-1.54-.56-3.06-.91-4.57-.17-.84-.38-1.68-.59-2.51s-.33-1.49-.54-2.22S72,85.74,71.74,85s-.47-1.33-.71-2c-.13-.39-.16-.82-.27-1.23l-.86.08-.7.49c.49,1.3.94,2.61,1.32,4,.14.6.14,1.23.28,1.83s.39,1,.52,1.49c.18.67.3,1.34.44,2,.51,2.22.91,4.5,1.32,6.77l.44,2.92c.23,1.59.26,3.24.36,4.87a6.14,6.14,0,0,0,.23.94,4.45,4.45,0,0,1,.13.88c0,.44.1.62.13,1v.19l.05.72,0,.79,0,.44.84.1Z" fill="#020202"/><path d="M80.21,110.82v-.11c0-.59-.14-1.19-.16-1.78l0-.66V108c0-.72-.3-1.77-.35-2.48a.5.5,0,0,0,0-.12c0-.56-.11-1.11-.16-1.67-.06-.83-.24-1.65-.33-2.48s-.13-1.63-.25-2.44c-.14-1.09-.39-2.16-.56-3.25s-.3-2.08-.5-3.11-.53-1.94-.79-2.9c-.16-.57-.28-1.14-.42-1.71-.26-1.07-.59-2.12-.87-3.19s-.6-2.18-1-3.25c-.1-.3-.15-.62-.24-.92l-.87.08L73,81l.19.55c.18.51.37,1,.53,1.55.35,1.14.69,2.28,1,3.44.22.84.42,1.69.62,2.54.47,1.86.85,3.74,1.2,5.63l.24,1.21c.11.45.27.9.35,1.36.1.61.11,1.25.18,1.87.22,2,.62,3.42.77,5.44.07.84.07,2.3.16,3.14,0,.27.13.54.15.81,0,.1,0,.21,0,.31l.15,2.08.91.16Z" fill="#020202"/><path d="M84.45,110.51a7,7,0,0,1-.12-1l0-.77,0-1.43,0-.64c0-.47,0-.89-.09-1.35,0-.24-.21-1-.27-1.83h0c0-.34,0-.69,0-1s-.18-1-.25-1.48c-.24-1.64-.47-3.25-.7-4.86-.12-.77-.22-1.55-.38-2.33-.08-.45,0-.92-.14-1.36-.26-1.28-.61-2.55-.95-3.8s-.46-2.72-.92-4.12c-.33-1.11-.66-2.24-1-3.37A14.79,14.79,0,0,0,78.57,79l-.79,0-.65.48a11.89,11.89,0,0,1,.78,2,15.89,15.89,0,0,0,.49,2A49.69,49.69,0,0,1,80,89.35c.2,1,.34,1.94.51,2.91.32,1.82.58,3.62,1,5.41.13.59.18,1.19.27,1.79.19,1.23.41,2.45.52,3.69s.13,2.65.16,4c0,.64.23,1.3.29,1.94h0a12.36,12.36,0,0,0,.19,1.55l.81.14Z" fill="#020202"/><path d="M88.74,110.19v0a13.48,13.48,0,0,0-.07-1.8v-.09c0-.26-.09-.53-.14-.81s-.1-.61-.13-.92-.21-.84-.23-1.23l-.17-1-.12-1c-.2-1.53-.29-3.9-.53-5.47-.32-2.27-.7-3.59-1.15-5.86-.13-.66-.07-1.25-.19-1.9-.17-.87-.48-1.71-.65-2.59s-.3-2-.57-3-.46-1.5-.73-2.36c-.19-.62-.38-1.23-.53-1.85-.22-1-.63-1.83-.91-2.77l-.85-.25-.59.78c.06.15.13.32.18.47.36,1.15.6,2,.9,3.12.18.68.53,1.32.68,2,.41,1.82.89,3.28,1.2,5.09.52,3.07,1,5.8,1.49,8.78.07.43.19.85.26,1.28.19,1,.31,2,.47,3,.18,1.16.14,2.17.29,3.33.07.72.13,1.38.19,2,0,.94.28,2.1.39,3.11l.81.1Z" fill="#020202"/><path d="M92.94,109.89c0-.51-.06-1-.07-1.29v-.08c0-.57-.18-1.12-.23-1.7,0-.37,0-.74,0-1.11s0-.65,0-1a20.06,20.06,0,0,0-.3-2l0-.22c0-.28-.06-.55-.09-.79-.21-1.68-.49-2.31-.69-4-.06-.52-.39-.87-.36-1.43a7,7,0,0,0,.05-1,8.16,8.16,0,0,0-.37-1.12c-.07-.28,0-.6-.09-.89-.13-.91-.15-1.89-.3-2.81s-.48-1.81-.65-2.75c-.2-1.17-.47-2.35-.69-3.53-.09-.48-.35-1.35-.49-1.81s-.47-1.72-.61-2.25c-.41-1.62-.65-1.3-1.06-2.93,0-.21-.18-.61-.32-1l-.75-.24-.63.74a8.14,8.14,0,0,1,.37,1,21.67,21.67,0,0,1,.83,2.51c.16.78.44,2.11.61,2.89l.6,2.54c.42,1.68.8,3.35,1.11,5,.12.72.36,1.4.43,2.12.1.89.27,1.36.34,2.24A30.11,30.11,0,0,0,90,98c.3,1.5.54,3,.72,4.48.1.94.09,1.91.14,2.85,0,.49.13,1,.19,1.48l.1,1.18h0c0,.15,0,.3,0,.44.12.62.2,1.1.3,1.61l.8.12Z" fill="#020202"/><path d="M71.75,138.59V139a5.69,5.69,0,0,0,.15,1.78l0,.07a2.18,2.18,0,0,1-.09-.69A8,8,0,0,0,71.75,138.59Z" fill="#020202"/><path d="M77.84,140.86c0-.6-.06-1.63-.08-2.17a14.61,14.61,0,0,0-.14-1.47C77.68,138.23,77.77,139.72,77.84,140.86Z" fill="#020202"/><path d="M76.15,140.62l0-.73C76.12,140.1,76.13,140.42,76.15,140.62Z" fill="#020202"/><path d="M81.78,138.88v0Z" fill="#020202"/><path d="M86.06,139.5a9.91,9.91,0,0,0,0-1.09l0-.18,0,1.4Z" fill="#020202"/><path d="M90.42,139.22c0-.21-.06-.46-.11-.72,0,.27.07.53.11.79Z" fill="#020202"/><path d="M94.61,139.62c0-.73-.1-1.68-.16-2.66,0,.34,0,.69,0,1C94.46,138.54,94.58,139.08,94.61,139.62Z" fill="#020202"/><path d="M73.68,142v-.18c0-.42,0-.84-.09-1.26v0c-.08-.91-.09-1.68-.12-2.61,0-.72-.1-1.44-.14-2.17s0-1.44,0-2.18a16.45,16.45,0,0,0,0-1.72c-.1-1-.32-2-.41-3s-.1-2.26-.16-3.39c0-.65-.06-1.3-.15-1.94-.19-1.33,0-2.36-.17-3.69-.09-.7,0-1.61-.08-2.33l-.14-3.09L72,111.43l-.76-.14-.78.25h0c0,.56-.15,1.13-.13,1.69s.19,1.4.27,2.12,0,1.28.06,2-.08,1.33,0,2a15.4,15.4,0,0,1,.1,2.35,3.17,3.17,0,0,0,.11,1.59,4.21,4.21,0,0,1,.09,1.23c0,.27,0,1.45.07,1.79.1.76.16,1.53.22,2.3l.26,4c0,.61,0,1.3.08,1.91,0,0,0,.6,0,.61,0,.38.06.56.07.77,0,.4.05.91,0,1.24a10.17,10.17,0,0,0,.09,1.43,8,8,0,0,1,.09,1.6,2.18,2.18,0,0,0,.09.69,6.08,6.08,0,0,1,.22,1.22l.64.11Z" fill="#020202"/><path d="M69.42,142.24c0-.61-.08-1.23-.09-1.84s0-1,0-1.54v-.21c0-1.14,0-2.38-.06-3.52,0-1-.29-2-.4-3-.07-.58,0-1.15-.08-1.72s0-1.32-.11-2,0-1.46-.06-2.19c-.17-1.19-.07-2.43-.2-3.63-.18-1.6-.3-3.21-.42-4.79-.07-.9-.1-1.77-.12-2.66s0-1.84-.06-2.76c0-.24,0-.47-.05-.7l-.85-.12-.88.25,0,.71c0,1.34.15,2.7.23,4.06.1,1.72.18,3.45.32,5.2.07.89.09,1.74.19,2.63.15,1.31-.1,2.7,0,4,.09.87.19,1.54.3,2.41s0,1.86.06,2.69.21,1.46.26,2.19c0,.45-.09.9-.08,1.35,0,.88.13,1.67.17,2.54s.09,1.78.14,2.67l.89,0Z" fill="#020202"/><path d="M77.86,141.79v-.07c0-.24,0-.54,0-.86-.07-1.14-.16-2.63-.22-3.64v-.42c0-.14-.09-.49-.13-.73,0-.51-.12-1-.14-1.53l-.08-2.92c0-.68-.15-1.36-.18-2.05L77,126.75l-.28-4.8-.15-2.67-.1-2.38-.17-2.29c-.06-.73-.16-1.46-.2-2.19,0-.43.07-.87.06-1.3l-.85-.17-.8.29c.11,1.47.25,2.92.29,4.4,0,.65-.11,1.3-.1,2s.19,1.1.23,1.65c0,.73,0,1.46.07,2.18.14,2.41.26,4.83.44,7.24l.19,3.05c.11,1.67,0,3.37.08,5a8.08,8.08,0,0,0,.19,1,5.65,5.65,0,0,1,.11.91,9.09,9.09,0,0,0,.09,1.06v.19l0,.73,0,.81,0,.45.84.12Z" fill="#020202"/><path d="M81.91,141.58v-.11c0-.59-.1-1.19-.11-1.78l0-.66v-.31c0-.71-.24-1.77-.26-2.48,0,0,0-.08,0-.12,0-.56-.05-1.11-.08-1.67,0-.83-.13-1.66-.17-2.49s0-1.62,0-2.43L81,126.25c0-1,0-2.09-.09-3.13s-.22-2-.31-3c0-.58-.06-1.16-.09-1.74l-.19-3.29-.11-3.36c0-.31,0-.63,0-.94l-.87-.16-.81.29,0,.58.1,1.66c.07,1.2.12,2.4.16,3.6l.12,2.64.31,5.82q0,.61.09,1.23c.06.47.17.93.2,1.4,0,.63,0,1.27,0,1.9,0,2,.35,3.48.4,5.51,0,.85,0,2.32,0,3.16,0,.28.1.55.12.82l0,.31.1,2.09.91.19Z" fill="#020202"/><path d="M86.16,141.36a8.35,8.35,0,0,1-.1-1v-.75l0-1.4v-.63c0-.46,0-.86,0-1.32,0-.23-.16-1-.19-1.78h0c0-.34,0-.67,0-1s-.1-1-.14-1.45c-.13-1.59-.2-3.15-.26-4.72l-.11-2.26c0-.43.07-.87,0-1.31-.09-1.23-.21-2.47-.34-3.71s0-2.61-.08-4c-.11-1.1-.12-2.21-.15-3.33a14.76,14.76,0,0,0-.35-2.2l-.77-.17-.75.28a13.62,13.62,0,0,1,.22,2.07,15.53,15.53,0,0,0,0,1.93c.25,2,.29,3.86.4,5.88,0,1,0,1.91,0,2.86.06,1.78.11,3.55.31,5.33.07.58.07,1.16.11,1.75.09,1.21.22,2.42.26,3.63s0,2.61,0,3.91c0,.64.18,1.29.22,1.92h0a13.82,13.82,0,0,0,.15,1.54l.81.15Z" fill="#020202"/><path d="M90.46,141.13v0a11.22,11.22,0,0,0,0-1.74v-.08c0-.26-.07-.52-.11-.79a8.75,8.75,0,0,1-.09-.88c0-.37-.18-.81-.19-1.18,0,0-.09-.73-.12-.95l-.06-1c-.13-1.48,0-3.71-.14-5.18-.11-2.14-.34-3.4-.47-5.53,0-.61.1-1.14.09-1.74,0-.81-.21-1.62-.21-2.43s.08-1.9,0-2.77S89,115.43,89,114.6c0-.58-.06-1.17-.06-1.75,0-.89-.13-1.76-.15-2.66l-.74-.43-.78.55c0,.15,0,.32,0,.46,0,1.12.06,1.91.06,3,0,.64.2,1.29.2,1.94,0,1.72.2,3.14.18,4.84,0,2.88.17,5.47.33,8.32,0,.41.11.81.14,1.22l.25,2.91c.1,1.11,0,2.08.1,3.19,0,.7.07,1.34.11,2a29.76,29.76,0,0,0,.3,3l.8.11Z" fill="#020202"/><path d="M94.66,140.91c0-.48,0-1,0-1.22v-.07c0-.54-.15-1.08-.17-1.62,0-.35,0-.7,0-1s0-.61,0-.92a17.46,17.46,0,0,0-.19-1.9l0-.2c0-.27,0-.52,0-.74-.09-1.55-.34-2.15-.38-3.7,0-.48-.31-.82-.23-1.32a7.38,7.38,0,0,0,.16-.92,7.15,7.15,0,0,0-.24-1,5.35,5.35,0,0,1,0-.8c0-.83.1-1.69.08-2.52s-.19-1.63-.2-2.48l0-3.16c0-.43-.05-1.22-.08-1.64s-.09-1.56-.08-2.05c0-1.46-.34-1.25-.28-2.72,0-.2,0-.57,0-1l-.66-.39-.8.49a6.88,6.88,0,0,1,.08,1c0,.75.22,1.61.16,2.35s-.08,1.92-.07,2.63,0,1.56.06,2.33l.22,4.59c0,.65.16,1.28.14,1.93,0,.81.1,1.25.06,2.06a20.32,20.32,0,0,0,.21,2.81c.15,1.39.3,2.78.39,4.18,0,.88,0,1.78,0,2.67,0,.47.09.94.13,1.41l.06,1.12h0a2.88,2.88,0,0,0,0,.42l.25,1.55.8.12Z" fill="#020202"/><path d="M73.37,169.34c0,.15,0,.29,0,.44a5.72,5.72,0,0,0,.15,1.78l0,.07a2.22,2.22,0,0,1-.09-.69A8,8,0,0,0,73.37,169.34Z" fill="#020202"/><path d="M79.46,171.6c0-.6-.06-1.63-.08-2.16a14.81,14.81,0,0,0-.14-1.48C79.29,169,79.4,170.47,79.46,171.6Z" fill="#020202"/><path d="M77.77,171.37l0-.73C77.74,170.85,77.75,171.16,77.77,171.37Z" fill="#020202"/><path d="M83.4,169.63v0Z" fill="#020202"/><path d="M87.68,170.25a9.91,9.91,0,0,0,0-1.09,1.1,1.1,0,0,0,0-.18c0,.46,0,.93,0,1.39Z" fill="#020202"/><path d="M92,170c0-.2-.06-.45-.11-.71,0,.27.07.53.11.79Z" fill="#020202"/><path d="M96.23,170.36c0-.72-.09-1.67-.16-2.66,0,.35,0,.7,0,1.05C96.08,169.29,96.2,169.82,96.23,170.36Z" fill="#020202"/><path d="M75.3,172.76a1.28,1.28,0,0,0,0-.19c0-.41-.05-.83-.09-1.25v-.06c-.08-.9-.09-1.68-.12-2.6,0-.73-.1-1.45-.14-2.17s0-1.44,0-2.18a16.45,16.45,0,0,0,0-1.72c-.1-1-.32-2-.41-3s-.1-2.26-.16-3.39c0-.65-.06-1.3-.15-1.95-.19-1.32,0-2.36-.17-3.69-.09-.71,0-1.63-.07-2.35,0-1-.07-2.1-.12-3.15s-.14-2-.19-3l-.75-.15-.78.24h0c0,.58-.17,1.16-.16,1.73,0,.73.17,1.45.25,2.18s0,1.31,0,2.08-.08,1.34,0,2a15.61,15.61,0,0,1,.1,2.37,3.17,3.17,0,0,0,.11,1.59,4.21,4.21,0,0,1,.09,1.23c0,.26,0,1.45.07,1.79.1.76.16,1.53.22,2.3.1,1.32.18,2.64.26,4,0,.61,0,1.3.08,1.91,0,0,0,.6,0,.61,0,.38.06.56.07.77,0,.4,0,.91,0,1.23a10.4,10.4,0,0,0,.09,1.44,8,8,0,0,1,.09,1.6,2.22,2.22,0,0,0,.09.69,6,6,0,0,1,.22,1.21l.64.11Z" fill="#020202"/><path d="M71,173c0-.62-.08-1.23-.09-1.84s0-1,0-1.54c0-.07,0-.14,0-.21,0-1.15,0-2.38-.06-3.52,0-1-.29-2-.4-3-.07-.58,0-1.15-.08-1.73s0-1.31-.11-2,0-1.46-.06-2.2c-.17-1.18-.07-2.43-.2-3.62-.18-1.61-.3-3.23-.42-4.85-.06-.9-.09-1.81-.11-2.72s0-1.91,0-2.86c0-.25,0-.49,0-.73l-.84-.15-.89.24c0,.25,0,.51,0,.75,0,1.41.12,2.82.19,4.22.09,1.76.17,3.53.31,5.28.07.9.09,1.74.19,2.64.15,1.31-.1,2.7,0,4,.09.87.19,1.54.3,2.41s0,1.86.06,2.69.21,1.46.26,2.19c0,.45-.09.9-.08,1.35,0,.87.13,1.67.17,2.54s.09,1.78.14,2.67l.89,0Z" fill="#020202"/><path d="M79.48,172.54s0,0,0-.07c0-.24,0-.54,0-.87-.06-1.13-.17-2.62-.22-3.64,0-.14,0-.29,0-.41s-.09-.5-.13-.73c0-.51-.12-1-.14-1.53,0-1,0-1.95-.08-2.92,0-.68-.15-1.37-.18-2.05,0-.94,0-1.88-.07-2.82-.07-1.6-.18-3.2-.28-4.8L78.2,150c0-.79,0-1.59-.09-2.38s-.1-1.55-.16-2.32-.13-1.48-.17-2.21c0-.44.08-.88.08-1.32l-.84-.18-.81.27c.09,1.5.2,3,.24,4.47,0,.65-.13,1.31-.11,2s.18,1.11.22,1.66c0,.73,0,1.46.07,2.19.14,2.41.26,4.83.44,7.23.07,1,.12,2,.19,3.06.11,1.66,0,3.37.08,5a8.47,8.47,0,0,0,.19,1,5.53,5.53,0,0,1,.11.9,8.73,8.73,0,0,0,.09,1.06c0,.07,0,.13,0,.2l0,.73c0,.27,0,.54,0,.81l0,.45.84.12Z" fill="#020202"/><path d="M83.53,172.33v-.11c0-.59-.1-1.19-.11-1.78,0-.22,0-.44,0-.66v-.31c0-.71-.24-1.77-.26-2.48,0,0,0-.08,0-.12,0-.56-.06-1.11-.08-1.67,0-.83-.13-1.66-.17-2.49s0-1.62,0-2.43c-.06-1.1-.18-2.19-.24-3.28s0-2.09-.09-3.13-.22-2-.31-3c0-.58,0-1.16-.08-1.74-.06-1.1-.13-2.19-.17-3.28s-.06-2.24-.08-3.36c0-.31,0-.63,0-.94l-.86-.18-.82.27,0,.59c0,.55,0,1.11.07,1.66,0,1.21.1,2.41.13,3.61,0,.89.06,1.77.11,2.65q.15,2.91.31,5.82,0,.62.09,1.23c.06.47.17.93.2,1.4,0,.63,0,1.26,0,1.89,0,2,.35,3.49.4,5.52,0,.85,0,2.31,0,3.16,0,.27.1.54.12.82l0,.31c0,.7.07,1.39.1,2.09l.91.18Z" fill="#020202"/><path d="M87.78,172.11a8.8,8.8,0,0,1-.1-1v-.76c0-.46,0-.93,0-1.39v-.63c0-.46,0-.86,0-1.32,0-.23-.16-1-.19-1.78h0c0-.34,0-.68,0-1,0-.49-.1-1-.14-1.45-.13-1.59-.2-3.15-.26-4.72,0-.75-.07-1.5-.11-2.26,0-.43.07-.88,0-1.31-.09-1.23-.21-2.47-.34-3.71s0-2.6-.07-4c-.09-1.09-.1-2.19-.12-3.29a17.11,17.11,0,0,0-.3-2.17l-.77-.18-.76.26a13.24,13.24,0,0,1,.19,2,13.7,13.7,0,0,0,0,1.92c.23,2,.27,3.83.38,5.85,0,.95,0,1.91,0,2.86.06,1.78.11,3.55.31,5.32.07.58.07,1.17.11,1.76.09,1.21.22,2.42.26,3.63s0,2.61,0,3.91c0,.64.18,1.28.22,1.92h0a14.05,14.05,0,0,0,.15,1.54l.81.15Z" fill="#020202"/><path d="M92.07,171.88a0,0,0,0,0,0,0,11.22,11.22,0,0,0,0-1.74s0-.06,0-.08c0-.26-.07-.52-.11-.79a8.75,8.75,0,0,1-.09-.88c0-.37-.18-.81-.19-1.19,0,0-.09-.72-.12-.94l-.06-1c-.13-1.47,0-3.7-.14-5.18-.11-2.13-.34-3.39-.47-5.52,0-.61.1-1.14.09-1.74,0-.81-.21-1.62-.21-2.43s.09-1.88,0-2.73-.13-1.41-.17-2.22c0-.57-.06-1.14,0-1.71,0-.87-.11-1.72-.1-2.58l-.74-.43-.79.51c0,.15,0,.31,0,.46,0,1.08,0,1.85,0,2.94,0,.64.18,1.27.18,1.91,0,1.7.18,3.1.16,4.8,0,2.87.17,5.47.33,8.32,0,.41.11.81.14,1.22.09,1,.16,1.94.25,2.9.1,1.12,0,2.09.1,3.2,0,.7.08,1.34.11,2a29.66,29.66,0,0,0,.3,3l.8.11Z" fill="#020202"/><path d="M96.28,171.66c0-.48,0-1,0-1.22,0,0,0-.05,0-.08,0-.54-.15-1.07-.17-1.61,0-.35,0-.7,0-1.05s0-.6,0-.91a17.46,17.46,0,0,0-.19-1.9c0-.06,0-.13,0-.2,0-.27,0-.52,0-.74-.09-1.55-.34-2.16-.38-3.7,0-.48-.31-.82-.23-1.33a6.79,6.79,0,0,0,.16-.92,7.33,7.33,0,0,0-.24-1,7.3,7.3,0,0,1,0-.81c0-.82.11-1.68.09-2.51s-.19-1.64-.2-2.48c0-1,0-2.08,0-3.12,0-.42,0-1.2-.08-1.61s-.07-1.52-.06-2c0-1.42-.32-1.22-.23-2.63,0-.18,0-.54,0-.92l-.65-.38-.82.46a6.24,6.24,0,0,1,.07.91c0,.72.18,1.55.12,2.26s-.1,1.88-.1,2.57,0,1.53,0,2.29c.06,1.52.17,3,.22,4.57,0,.65.16,1.28.14,1.93,0,.81.1,1.25.06,2a20.47,20.47,0,0,0,.21,2.82c.15,1.39.3,2.78.39,4.17.05.89,0,1.79,0,2.68,0,.47.09.94.13,1.41s0,.75.06,1.12h0a3,3,0,0,0,0,.42c.09.59.19,1.05.25,1.54l.8.13Z" fill="#020202"/><path d="M79.68,177.59v0Z" fill="#020202"/><path d="M82.07,177.91c0,.32,0,.63,0,.92,0-.18,0-.36,0-.55S82.07,178,82.07,177.91Z" fill="#020202"/><path d="M75.34,180.34a3.5,3.5,0,0,0,.27-1.55c0-.3,0-.6,0-.9,0-.7,0-1.41-.08-2.12,0-1-.14-2-.19-3l-1.53.08v0c0,.41-.09.83-.12,1.24a2.62,2.62,0,0,0,0,.28,3.48,3.48,0,0,0,0,.84c.09,1.57.08,3.14.16,4.7,0,.2.25.53.41.55C74.59,180.51,75.24,180.54,75.34,180.34Z" fill="#020202"/><path d="M70.85,180.89c.68-.44.4-1.14.58-1.77a6.48,6.48,0,0,0,0-1.87c0-1-.35-2-.36-3,0-.19,0-.38,0-.57s0-.48,0-.72l-1.73.09c0,.25,0,.51,0,.75,0,1,.07,2,.12,2.94h0c0,1,.11,2,.2,3a2.59,2.59,0,0,0,.19.8C70,181,70.35,181.21,70.85,180.89Z" fill="#020202"/><path d="M79.68,179.15c0-.57,0-.88,0-1.43h0v-.15c0-.5-.07-1-.11-1.5,0-.74-.13-1.48-.17-2.21,0-.44.08-.88.08-1.32l-1.65.09c0,.28,0,.56,0,.84h0c0,1.25,0,3,.08,4.25a8,8,0,0,1,0,2,.59.59,0,0,0,.27.71,4.76,4.76,0,0,1,.74.33C79.66,181,79.7,180,79.68,179.15Z" fill="#020202"/><path d="M83.66,180.66c.24-.27.19-.9.22-1.29.05-.87-.2-1.36-.17-2.23a12.28,12.28,0,0,0,0-3,9.19,9.19,0,0,1-.16-1.12c0-.24,0-.48,0-.72l-1.68.09,0,.59c0,.55.05,1.1.07,1.66q.08,1.62.12,3.24c0,.12,0,.25,0,.37s0,.37,0,.55v0h0v.1a4.18,4.18,0,0,0,.35,1.39A.75.75,0,0,0,83.66,180.66Z" fill="#020202"/><path d="M87.86,180.46a3.49,3.49,0,0,0,.26-1.29,13.33,13.33,0,0,0,.07-1.79,2.23,2.23,0,0,0,0-.23c0-.09,0-.16,0-.16-.06-.94-.06-1.77-.08-2.71a17.11,17.11,0,0,0-.3-2.17l-1.53.08.09.68c0,.41-.13,1.4-.11,1.78.07,1.44.24,2.89.21,4.33,0,1.2-.14,1.23.63,1.62C87.27,180.7,87.8,180.6,87.86,180.46Z" fill="#020202"/><path d="M92.48,179.6a21.82,21.82,0,0,0-.19-3c0-.36-.05-.73-.09-1.09s0-.7,0-1.05c0-.86-.11-1.71-.11-2.57l-1.52.08c0,.15,0,.31,0,.45,0,1.09,0,1.86,0,3a13.73,13.73,0,0,0,.14,1.41s0,.35,0,.52a4.88,4.88,0,0,1,0,2.28,1.12,1.12,0,0,0-.14.46c0,.41.69.54,1,.71A1.39,1.39,0,0,0,92.48,179.6Z" fill="#020202"/><path d="M96.4,180a6.21,6.21,0,0,0,.19-.63,7.46,7.46,0,0,0,0-1c0-.82,0-.72,0-1.54,0-.09,0-.21,0-.35,0-.46,0-1,0-1.29,0-1.41-.32-1.21-.23-2.62,0-.19,0-.54,0-.92l-1.47.07a6.5,6.5,0,0,1,.07.92h0c0,.75-.06,1.49,0,2.24,0,.39,0,.81.08,1.23a9.6,9.6,0,0,0,.11,1c.1.7-.31,1.43-.11,2.08C95.07,179.69,95.91,180.31,96.4,180Z" fill="#020202"/></svg>