<svg xmlns="http://www.w3.org/2000/svg" viewBox="0 0 71.33 171.85"><path d="M56.4,28.47c-.52-1.9-1-3.47-1.41-5.07a33.31,33.31,0,0,1-.8-4.53c0-.3.84-.95,1.31-1s1.41.46,1.46.82c.37,2.72.52,5.46.67,8.2a5.24,5.24,0,0,1,.06,1.42c0,.2-.5.41-.78.42S56.43,28.49,56.4,28.47Z" transform="translate(0 -0.22)" fill="#020202"/><path d="M57.77,35.9c1,.3.95,1.14,1,1.84a24.87,24.87,0,0,1-.11,4.56,27.86,27.86,0,0,0-.41,3.09c0,.76-.32,1.13-1.17,1.31a.43.43,0,0,1-.37-.22c-.23-2.42-.13-4.65-.54-7A13.87,13.87,0,0,0,55.84,38,1.87,1.87,0,0,1,57.77,35.9Z" transform="translate(0 -0.22)" fill="#020202"/><path d="M53.35,9.08c-.47-1.34-1.08-3.61-1.44-4.54a18.78,18.78,0,0,1-1-2.74A2.41,2.41,0,0,1,51.44.27c.09-.14.69,0,1.05.1,1.54.2,1.32,1.51,1.56,2.53s.43,4.08.7,5.16c.33,1.26.06,1.48-1.2,1.24C53.37,9.26,53.25,9,53.35,9.08Z" transform="translate(0 -0.22)" fill="#020202"/><path d="M43.29,78.87a24.6,24.6,0,0,0,1.56-2.22c.48-.7.88-1.41,1.32-2.08s.8-1.26,1.22-1.88l1.25-1.84c.17-.24,1.25-.17,1.63.12s.77,1.26.56,1.57a34.16,34.16,0,0,1-5.53,6.34,4.91,4.91,0,0,1-1.11.94c-.19.09-.64-.15-.81-.37A.89.89,0,0,1,43.29,78.87Z" transform="translate(0 -0.22)" fill="#020202"/><path d="M37.78,84.05c.19,1-.58,1.41-1.21,1.77a15.94,15.94,0,0,1-4.39,1.7c-.52.13-1.07.19-1.6.27a8.91,8.91,0,0,0-1.56.26c-.75.23-1.2,0-1.57-.8a.43.43,0,0,1,.13-.4A29.2,29.2,0,0,0,34,84.17a10.3,10.3,0,0,0,1.08-.9A1.92,1.92,0,0,1,37.78,84.05Z" transform="translate(0 -0.22)" fill="#020202"/><path d="M53.52,62.56c.29-1.38.78-3.65.87-4.63a24.51,24.51,0,0,1,.25-2.86,2.5,2.5,0,0,1,1.1-1.16c.14-.1.61.31.93.5,1.35.81.56,1.94.36,3a25.16,25.16,0,0,1-.84,2.51,24.42,24.42,0,0,0-.94,2.47c-.37,1.27-.7,1.32-1.67.47C53.44,62.72,53.49,62.39,53.52,62.56Z" transform="translate(0 -0.22)" fill="#020202"/><path d="M1.34,68.42a6.75,6.75,0,0,0,.46,1.31l.51,1.19c.38.74.79,1.42,1.13,2.11s.77,1.2,1.12,1.84.81,1.2,1.17,1.83c.14.24-.29,1.19-.7,1.45s-1.5.27-1.69-.07A19.37,19.37,0,0,1,.2,70,3.59,3.59,0,0,1,0,68.56c0-.21.5-.42.78-.43S1.31,68.4,1.34,68.42Z" transform="translate(0 -0.22)" fill="#020202"/><path d="M1.29,60.9c-.78-.63-.5-1.5-.17-2.17a12.46,12.46,0,0,1,2.69-4c.39-.39.83-.75,1.25-1.1a9,9,0,0,0,1.25-1c.53-.6,1.06-.6,1.78-.07a.44.44,0,0,1,.07.41,19.55,19.55,0,0,0-3.94,5.49,12.89,12.89,0,0,0-.3,1.34,1.67,1.67,0,0,1-.89,1A2.37,2.37,0,0,1,1.29,60.9Z" transform="translate(0 -0.22)" fill="#020202"/><path d="M12,83.69c.66.24,1.49.64,2.29,1s1.59.52,2,.64c.94.12,1.86.22,2.74.4.43.1.82.66,1.11,1.11.09.14-.3.61-.5.92a1.4,1.4,0,0,1-1.45.75,9.67,9.67,0,0,1-1.6-.53c-.28-.08-.67-.23-1.11-.41s-.89-.49-1.36-.75c-1-.48-1.8-1.13-2.33-1.37-1.23-.58-1.14-1-.12-1.71C11.9,83.59,12.21,83.69,12,83.69Z" transform="translate(0 -0.22)" fill="#020202"/><path d="M41.66,53c-.91-.38-1.75-.68-2.54-1s-1.58-.49-2.33-.77c-1.42-.45-2.82-.94-4.21-1.44-.27-.11-.48-1.17-.31-1.62s1-1,1.38-.93a28.5,28.5,0,0,1,3.9,1.65,41.25,41.25,0,0,1,3.62,2.17,5.73,5.73,0,0,1,1.19.83c.13.16,0,.66-.17.88S41.69,53,41.66,53Z" transform="translate(0 -0.22)" fill="#020202"/><path d="M48.05,57c.93-.47,1.48.19,2,.66a11,11,0,0,1,1.58,1.69c.48.61,1,1.22,1.38,1.87.6.87,1,1.88,1.64,2.68.49.59.47,1.08-.09,1.75-.07.08-.37.12-.43,0a52.77,52.77,0,0,0-4.87-5,9.44,9.44,0,0,0-1.19-.79A1.9,1.9,0,0,1,48.05,57Z" transform="translate(0 -0.22)" fill="#020202"/><path d="M23.32,47.78c-.69.08-1.59.33-2.44.47s-1.63.44-2.09.58a25.56,25.56,0,0,1-2.59,1.05,2.32,2.32,0,0,1-1.53-.38c-.15-.07,0-.68,0-1a1.36,1.36,0,0,1,.86-1.37c.5-.19,1.1-.22,1.63-.37a14.77,14.77,0,0,1,2.68-.34c1.06-.07,2.11,0,2.68-.13,1.34-.14,1.49.19,1.06,1.38C23.5,47.79,23.18,47.86,23.32,47.78Z" transform="translate(0 -0.22)" fill="#020202"/><path d="M65.57,99.58c-.56-1.89-1.12-3.44-1.57-5a43.34,43.34,0,0,1-1-4.45c0-.3.77-1,1.24-1.06s1.44.37,1.51.73a75.75,75.75,0,0,1,1,8.19,5.8,5.8,0,0,1,.09,1.43c0,.2-.49.42-.77.44S65.6,99.6,65.57,99.58Z" transform="translate(0 -0.22)" fill="#020202"/><path d="M67.16,107c1,.26,1,1.09,1.1,1.78a28.39,28.39,0,0,1,.15,4.52,22.88,22.88,0,0,0-.13,3.08c.1.75-.19,1.14-1,1.43a.44.44,0,0,1-.4-.18c-.51-2.39-.58-4.64-1.12-7-.11-.48-.29-.94-.43-1.4A1.86,1.86,0,0,1,67.16,107Z" transform="translate(0 -0.22)" fill="#020202"/><path d="M61.25,80.52c-.32-.63-.73-1.48-1.1-2.28s-.77-1.53-1-1.95a23.22,23.22,0,0,1-1.49-2.45,2.5,2.5,0,0,1,.18-1.59c.06-.15.68-.11,1-.15,1.57-.16,1.6,1.22,2.06,2.18s1.15,4,1.56,5c.51,1.22.25,1.47-1,1.39C61.29,80.69,61.13,80.4,61.25,80.52Z" transform="translate(0 -0.22)" fill="#020202"/><path d="M68.9,153.81c-.42-1.93-.85-3.53-1.12-5.16a28.54,28.54,0,0,1-.43-4.61c0-.3.91-.87,1.39-.85s1.35.58,1.37.94c.13,2.72.09,5.45.1,8.18a6,6,0,0,1,0,1.41c0,.2-.53.39-.81.39S68.93,153.83,68.9,153.81Z" transform="translate(0 -0.22)" fill="#020202"/><path d="M70.14,161.26c1,.29,1,1.11,1.06,1.8a30.69,30.69,0,0,1,.09,4.5,21.32,21.32,0,0,0-.15,3.07c.1.75-.19,1.15-1,1.43-.11,0-.38-.09-.39-.18-.52-2.39-.58-4.64-1.08-7-.1-.48-.27-.94-.41-1.41A1.86,1.86,0,0,1,70.14,161.26Z" transform="translate(0 -0.22)" fill="#020202"/><path d="M67.62,134.17c-.28-1.39-.55-3.74-.74-4.72a17.16,17.16,0,0,1-.54-2.88,2.42,2.42,0,0,1,.8-1.42c.12-.12.67.17,1,.28,1.47.47,1,1.71,1.09,2.75s-.22,4.08-.1,5.18c.15,1.29-.14,1.46-1.36,1C67.62,134.36,67.54,134,67.62,134.17Z" transform="translate(0 -0.22)" fill="#020202"/></svg>