<svg xmlns="http://www.w3.org/2000/svg" viewBox="0 0 76.98 179.64"><path d="M77,172.81c-.2-1.79,0-2.64,0-4.52-.07-1.54-.45-3.69-.56-5.13-.21-2.82-.63-5.59-.82-8.41-.52-7.95-1-15.92-1.37-23.87L73.79,123c0-.2,0-.45,0-.62v-.21c-.16-3.6-.32-7.23-.6-10.86-.14-2-.63-7.13-.63-7.6,0-.77-.74-5.33-.87-6.12-.05-.3-.31-1.92-.68-3.66s-.78-3.59-1-4.35q-.52-2.67-1-5.33a57.34,57.34,0,0,0-1.75-6.38,36.72,36.72,0,0,0-2.69-6.22h0c-.63-1.21-1.22-2.45-1.93-3.63l-.25-.5A15.71,15.71,0,0,0,60.77,65a53.92,53.92,0,0,0-5.3-7A46.2,46.2,0,0,0,49,52a40.23,40.23,0,0,0-7.62-4.65,35.69,35.69,0,0,0-8.62-2.74A38.35,38.35,0,0,0,20.07,45,27.12,27.12,0,0,0,9.38,49.32a22.64,22.64,0,0,0-7.8,9.19,24.81,24.81,0,0,0-.89,2.58c-.23.85-.32,1.71-.48,2.59a8.75,8.75,0,0,0-.12,1.38c0,.47,0,1-.07,1.48a13.1,13.1,0,0,0,0,1.64c0,.57,0,1.19.12,1.83l.36,2a21.21,21.21,0,0,0,.64,2.28A14.77,14.77,0,0,0,2,76.44,10.8,10.8,0,0,0,3,78.16a25.69,25.69,0,0,0,3,4l1.65,1.6c.59.54,1.28,1.06,2,1.69A27.41,27.41,0,0,0,21.6,90.73a27.06,27.06,0,0,0,12.93-1,46.45,46.45,0,0,0,6.29-2.43,24.7,24.7,0,0,0,8.19-6c2-2.43,3.6-4.62,5.67-7.4a32.57,32.57,0,0,0,2.25-3.54,38.1,38.1,0,0,0,1.76-3.79,55.2,55.2,0,0,0,2.48-7.9c2-8.53,2.19-16.25,2-24.7a59.13,59.13,0,0,0-.28-7.33C62,20.7,61.76,15.35,60.77,9.06c-.38-2.6-2.65-8.54-4-9-.74-.28-1.39.55-2.13.32C53-.11,51.24,4.16,51.92,7.44c.74,3.5,1.55,7,2.12,10.5.6,3.69.9,7.42,1.36,11.11.37,2.92,1.18,5.82,1.17,8.69,0,3,.3,6-.23,9.2-.74,4.57-1.18,9.43-2.66,13.9a42.86,42.86,0,0,1-3.07,7,34.71,34.71,0,0,1-4.4,6.23,29.78,29.78,0,0,1-12.15,8.51,24.68,24.68,0,0,1-8.93,1.58,18,18,0,0,1-8.44-2.34,9.87,9.87,0,0,1-1.32-.8c-.42-.3-.86-.58-1.28-.89a22.71,22.71,0,0,1-2.29-2.09,20.21,20.21,0,0,1-2-2.36,19.3,19.3,0,0,1-1.54-2.62,13.85,13.85,0,0,1-.7-11.28,15.08,15.08,0,0,1,3.12-4.9,20.85,20.85,0,0,1,4.9-3.61,25.79,25.79,0,0,1,5.94-2.13,27.74,27.74,0,0,1,6.36-.63,23.59,23.59,0,0,1,6.25,1,33,33,0,0,1,6,2.53,38.91,38.91,0,0,1,6.74,4.68,29.26,29.26,0,0,1,5.4,6.18l.52.73h0l.09.12c1.55,2.35,3.27,5.08,4.63,7.57A63.42,63.42,0,0,1,63,90a178,178,0,0,1,2.89,20.39c.47,6.43.78,13,1.16,19.49l1.1,19.54c.22,7.24-.38,14.54-.06,21.54a19.4,19.4,0,0,0,.92,5.28c.56,1.58.45,2.09.83,2.64a1.94,1.94,0,0,0,2,.73A6.6,6.6,0,0,0,77,172.81Z" fill="#020202"/></svg>