<svg xmlns="http://www.w3.org/2000/svg" viewBox="0 0 11.38 221.99"><path d="M3.65,23.56c-.09.34-.36.63-.24,1,.23.71-.28.87-.63,1a1.83,1.83,0,0,1-2.06-.28c-.63-.54-.35-.94-.29-1.59.1-.88.66-2,1.56-1.91a1.73,1.73,0,0,1,.92.49,2.73,2.73,0,0,1,.58.43,1.33,1.33,0,0,1,.18.48A.7.7,0,0,1,3.65,23.56Z" transform="translate(0 -2.91)" fill="#020202"/><path d="M2.9,31.55c.16.13.76.38.85.75C4.5,34.6,2.61,35.1,1.93,35S.51,34.47.46,34.11C.23,32.4.93,31.67,2.9,31.55Z" transform="translate(0 -2.91)" fill="#020202"/><path d="M0,5.18C0,5.12,0,5.05.07,5A10.63,10.63,0,0,0,.23,3.74c.07-.39.21-.44.6-.59a1.52,1.52,0,0,1,1.61,0c.47.23.64.46.92,1.22C3.71,5.28,3,6,1.91,6.54a.79.79,0,0,1-.62,0C1,6.35.72,6.1.45,5.87S0,5.52,0,5.18Z" transform="translate(0 -2.91)" fill="#020202"/><path d="M3.65,14.8c-.19.86-1.79,1.72-2.23,1.44C.79,15.82,0,15,0,14.33s.84-1.39,1.31-2.09A2.18,2.18,0,0,1,3.65,14.8Z" transform="translate(0 -2.91)" fill="#020202"/><path d="M4.44,61.55c-.09.34-.36.64-.24,1,.24.71-.26.87-.61,1a1.84,1.84,0,0,1-2.07-.26c-.63-.54-.36-.94-.3-1.58.09-.89.64-2,1.54-1.93a1.78,1.78,0,0,1,.93.48c.18.15.42.23.57.43a1.14,1.14,0,0,1,.19.47A.81.81,0,0,1,4.44,61.55Z" transform="translate(0 -2.91)" fill="#020202"/><path d="M3.75,69.55c.16.13.76.37.85.74.77,2.3-1.12,2.82-1.8,2.67s-1.42-.47-1.47-.83C1.08,70.42,1.78,69.68,3.75,69.55Z" transform="translate(0 -2.91)" fill="#020202"/><path d="M.65,43.21A1,1,0,0,1,.7,43a10.85,10.85,0,0,0,.15-1.23c.07-.39.2-.45.59-.6a1.53,1.53,0,0,1,1.62,0c.46.22.64.45.93,1.21.35.92-.31,1.69-1.44,2.2a.79.79,0,0,1-.62,0,10.39,10.39,0,0,1-.85-.67C.73,43.6.58,43.55.65,43.21Z" transform="translate(0 -2.91)" fill="#020202"/><path d="M4.37,52.8c-.19.85-1.78,1.73-2.23,1.45C1.51,53.84.74,53,.75,52.36S1.57,51,2,50.26A2.18,2.18,0,0,1,4.37,52.8Z" transform="translate(0 -2.91)" fill="#020202"/><path d="M5.53,99.54c-.09.34-.35.64-.22,1,.24.71-.26.87-.61,1a1.84,1.84,0,0,1-2.07-.25c-.64-.53-.37-.94-.31-1.58.08-.89.63-2,1.53-1.94a1.68,1.68,0,0,1,.92.48c.19.15.43.22.58.42a1.14,1.14,0,0,1,.19.47A.61.61,0,0,1,5.53,99.54Z" transform="translate(0 -2.91)" fill="#020202"/><path d="M4.92,107.54c.16.13.76.37.86.74.79,2.29-1.1,2.82-1.78,2.68s-1.43-.46-1.48-.81C2.26,108.44,3,107.69,4.92,107.54Z" transform="translate(0 -2.91)" fill="#020202"/><path d="M1.6,81.23a1,1,0,0,1,0-.21,10.7,10.7,0,0,0,.14-1.24c.07-.39.2-.44.59-.6a1.53,1.53,0,0,1,1.61,0c.47.21.64.44.94,1.2.36.92-.3,1.69-1.42,2.22a.79.79,0,0,1-.62,0A10.24,10.24,0,0,1,2,81.91C1.68,81.62,1.54,81.57,1.6,81.23Z" transform="translate(0 -2.91)" fill="#020202"/><path d="M5.4,90.79c-.18.85-1.77,1.75-2.22,1.47-.63-.41-1.41-1.24-1.41-1.89S2.58,89,3,88.26A2.2,2.2,0,0,1,5.4,90.79Z" transform="translate(0 -2.91)" fill="#020202"/><path d="M7,137.52c-.09.34-.35.64-.22,1,.25.7-.25.87-.6,1a1.84,1.84,0,0,1-2.07-.23c-.64-.53-.38-.93-.32-1.58.07-.89.61-2,1.51-1.95a1.8,1.8,0,0,1,.93.47c.18.15.43.22.58.41a1.2,1.2,0,0,1,.2.48A.81.81,0,0,1,7,137.52Z" transform="translate(0 -2.91)" fill="#020202"/><path d="M6.39,145.52c.17.14.77.36.87.74.81,2.28-1.07,2.83-1.76,2.69-.54-.11-1.43-.45-1.48-.8C3.75,146.44,4.42,145.69,6.39,145.52Z" transform="translate(0 -2.91)" fill="#020202"/><path d="M2.86,119.24c0-.06,0-.13.05-.21A10.65,10.65,0,0,0,3,117.79c.06-.39.19-.45.58-.61a1.55,1.55,0,0,1,1.61-.05c.47.21.65.44.95,1.19.37.92-.28,1.7-1.4,2.23a.76.76,0,0,1-.61,0,10.77,10.77,0,0,1-.86-.65C3,119.63,2.8,119.58,2.86,119.24Z" transform="translate(0 -2.91)" fill="#020202"/><path d="M6.73,128.77c-.17.85-1.75,1.76-2.2,1.48-.63-.39-1.42-1.22-1.43-1.87s.8-1.41,1.25-2.12A2.18,2.18,0,0,1,6.73,128.77Z" transform="translate(0 -2.91)" fill="#020202"/><path d="M8.68,175.48c-.09.35-.35.65-.22,1,.26.71-.24.88-.59,1a1.83,1.83,0,0,1-2.07-.21c-.64-.52-.39-.93-.34-1.58.07-.89.59-2,1.49-2a1.77,1.77,0,0,1,.94.46,3.45,3.45,0,0,1,.59.41,1.52,1.52,0,0,1,.2.47A.81.81,0,0,1,8.68,175.48Z" transform="translate(0 -2.91)" fill="#020202"/><path d="M8.18,183.49c.17.13.77.36.87.73.83,2.27-1,2.84-1.73,2.7s-1.44-.43-1.5-.78C5.54,184.43,6.21,183.68,8.18,183.49Z" transform="translate(0 -2.91)" fill="#020202"/><path d="M4.43,157.24a1.31,1.31,0,0,1,.05-.22,10.44,10.44,0,0,0,.12-1.23c.06-.39.19-.45.58-.61a1.52,1.52,0,0,1,1.61-.07c.47.21.65.43,1,1.18.37.92-.27,1.7-1.38,2.24a.75.75,0,0,1-.62,0c-.3-.19-.58-.43-.87-.65S4.38,157.58,4.43,157.24Z" transform="translate(0 -2.91)" fill="#020202"/><path d="M8.39,166.73c-.17.86-1.74,1.78-2.19,1.51a3,3,0,0,1-1.45-1.86c0-.7.79-1.42,1.24-2.13A2.18,2.18,0,0,1,8.39,166.73Z" transform="translate(0 -2.91)" fill="#020202"/><path d="M10.71,213.43c-.08.35-.34.65-.21,1,.26.71-.23.88-.58,1a1.83,1.83,0,0,1-2.07-.2c-.65-.52-.4-.92-.35-1.57,0-.89.58-2,1.48-2a1.75,1.75,0,0,1,.94.45c.18.14.43.21.58.4a1.33,1.33,0,0,1,.21.47A.81.81,0,0,1,10.71,213.43Z" transform="translate(0 -2.91)" fill="#020202"/><path d="M10.29,221.44c.17.13.77.35.88.72.84,2.27-1,2.85-1.72,2.72-.54-.1-1.44-.42-1.5-.77C7.66,222.41,8.32,221.64,10.29,221.44Z" transform="translate(0 -2.91)" fill="#020202"/><path d="M6.32,195.22a1,1,0,0,1,0-.21,10.57,10.57,0,0,0,.11-1.24c0-.39.19-.45.57-.62a1.56,1.56,0,0,1,1.61-.08c.47.21.65.43,1,1.18.38.91-.26,1.7-1.37,2.25a.73.73,0,0,1-.61,0c-.3-.19-.59-.42-.87-.64S6.27,195.56,6.32,195.22Z" transform="translate(0 -2.91)" fill="#020202"/><path d="M10.35,204.68c-.16.86-1.72,1.8-2.17,1.53-.65-.39-1.44-1.2-1.46-1.85s.77-1.43,1.21-2.14A2.19,2.19,0,0,1,10.35,204.68Z" transform="translate(0 -2.91)" fill="#020202"/></svg>