<svg xmlns="http://www.w3.org/2000/svg" viewBox="0 0 13.64 224.87"><path d="M5.91,34.88c-.45-.81-.89-1.63-1.39-2.42-.23-.36-.71-.61-.85-1a4.32,4.32,0,0,1-.48-1.39c.07-.83.73-1.44.81-2.28,0-.12.3-.58.41-.94a2.86,2.86,0,0,1,.33-.47c.13-.13.37-.16.5-.29.3-.29.84-.68.79-.91-.17-.66-.42-1.64-.9-1.83-1.55-.6-.89-2.49-2.08-3.22,0,0-.34-.27-.31-.35.11-.33-.42-.41-.3-.74,0,0,.07-.37,0-.39,0-.47.89-.74,1-1.21.06-.29.62-.63.73-.76.88-1.08,1.38-1,1.49-2a3.36,3.36,0,0,0-.34-2,5.1,5.1,0,0,1-.72-1.37,26.16,26.16,0,0,0-.94-2.56,1.31,1.31,0,0,1-.1-.62c.2-.48.44-.58.55-1.1A10.27,10.27,0,0,1,4.46,6a2.06,2.06,0,0,1,.37-.79,2.57,2.57,0,0,0,.57-.76,7.8,7.8,0,0,1,.38-.7c.1-.22,0-.62,0-.87.06-.54.09-.73-.36-1.09a1.35,1.35,0,0,0-1.26-.36l-.76.53A2.69,2.69,0,0,0,3,3C2.68,4,1.52,4.59,1.53,5.8c0,.16-.24.31-.26.48C1.2,6.82.92,7,.88,7.54c0,.19,0,.49-.07.55-.15.39-.46,1,.11,1.49a3.34,3.34,0,0,1,.85,1.29,14,14,0,0,1,.8,2.39,1.58,1.58,0,0,1,0,1.08c-.36.5-.95.83-1.33,1.32a6,6,0,0,0-1,1.84C.11,18.73-.4,19,.66,20.64c.23.35.1.87.27,1.25A4.07,4.07,0,0,0,1.73,23c.5.5.35,1.05.3,1.63,0,.27.25.59.19.83a11.15,11.15,0,0,1-1,2.15l-.13.11s-.06.05-.08.08c0,.79-.58,1.55-.7,2.39A4.69,4.69,0,0,0,2,33.58a2.74,2.74,0,0,1,.71.78c-.22.27-.47.51-.69.76l3.91-.07A.26.26,0,0,0,5.91,34.88Z" transform="translate(0 -1.36)" fill="#020202"/><path d="M7.21,87.48c-.46-.81-.91-1.63-1.42-2.41-.24-.36-.72-.6-.86-1a4.37,4.37,0,0,1-.49-1.38c.06-.84.71-1.45.79-2.29,0-.12.28-.58.39-1A2.86,2.86,0,0,1,6,79c.13-.13.36-.17.5-.3.29-.29.82-.69.77-.91-.17-.67-.44-1.64-.92-1.82-1.56-.59-.92-2.49-2.12-3.2,0,0-.34-.27-.32-.35.11-.33-.42-.4-.3-.74-.05,0,.06-.37,0-.38,0-.48.89-.76,1-1.22.06-.3.62-.64.72-.78.87-1.08,1.37-1,1.48-2a3.38,3.38,0,0,0-.37-2A4.94,4.94,0,0,1,5.67,64a27.3,27.3,0,0,0-1-2.55c0-.11.06-.28.11-.4a8.15,8.15,0,0,0,.61-1.47c.06-.31-.07-.63,0-.94.18-.57.79-.91,1-1.45,0-.07-.11-.26-.1-.27a3.14,3.14,0,0,0,.93-2.48c-.26-.75-.67-.82-.79-1.62,0-.08-.16-.13-.2-.21-.53-1.11-1.43-1.69-1.69-2.86-.16-.69.47-1.52.64-2.31.1-.44-.11-1,0-1.39s.49-1.06.54-1.61a4.09,4.09,0,0,0-.87-2.85c-.57-.63-1.38-1-1.72-1.8-.54-1.35.52-2,1-2.83a12.22,12.22,0,0,1,1.63-1.67.86.86,0,0,0,.11-.19L2,35.12c-.32.36-.63.72-1,1.06a4.25,4.25,0,0,0-.95,1.55A8.94,8.94,0,0,0,.14,40.1,3.76,3.76,0,0,0,1.4,42.18c1,.56.94,1.48,1.27,2.24.54,1.23-.53,2.23-.69,3.37-.13.93-1.11,1.75-.33,2.8.39.52.77,1.06,1.14,1.6A12.22,12.22,0,0,0,4.06,54c.68.67,0,1.08-.16,1.57-.28,1-1.43,1.63-1.4,2.84,0,.16-.24.32-.26.49-.06.54-.34.72-.37,1.26,0,.2,0,.5-.07.56-.14.39-.44,1,.13,1.48a3.56,3.56,0,0,1,.87,1.28,14.27,14.27,0,0,1,.83,2.38c.07.35.16.84,0,1.08-.35.51-.94.84-1.31,1.34a6.06,6.06,0,0,0-1,1.85c-.08,1.23-.58,1.53.5,3.13.23.35.11.87.28,1.25a4.14,4.14,0,0,0,.82,1.13c.5.49.36,1,.32,1.62,0,.27.25.58.19.83a10.69,10.69,0,0,1-1,2.11l0,0a.9.9,0,0,1-.11.1v0l-.09.08c0,.79-.56,1.56-.68,2.4a4.73,4.73,0,0,0,1.72,3.35A2.67,2.67,0,0,1,4,87c-.21.27-.46.51-.68.77l3.91-.12A.23.23,0,0,0,7.21,87.48Z" transform="translate(0 -1.36)" fill="#020202"/><path d="M9.11,140.05c-.47-.8-.93-1.61-1.44-2.39-.25-.36-.73-.59-.87-1a4.17,4.17,0,0,1-.51-1.38c0-.84.69-1.46.76-2.3,0-.12.28-.59.38-1a2.51,2.51,0,0,1,.32-.48c.13-.13.36-.17.5-.31.28-.29.81-.69.75-.92-.17-.66-.45-1.63-.94-1.81-1.56-.57-.94-2.47-2.14-3.17,0,0-.35-.27-.33-.34.11-.34-.42-.4-.31-.74,0,0,.07-.37,0-.38,0-.48.88-.77,1-1.24.06-.29.61-.64.72-.78.85-1.09,1.36-1,1.45-2.05a3.34,3.34,0,0,0-.39-1.95,4.93,4.93,0,0,1-.75-1.35,26.49,26.49,0,0,0-1-2.55c0-.1,0-.27.1-.4a8.11,8.11,0,0,0,.6-1.47c.06-.32-.08-.64,0-.94.17-.57.78-.92,1-1.46,0-.08-.12-.27-.1-.27A3.15,3.15,0,0,0,8.75,107c-.26-.74-.67-.81-.81-1.61,0-.08-.16-.13-.2-.21-.54-1.1-1.45-1.68-1.72-2.84-.17-.68.45-1.53.61-2.32.09-.44-.12-.94,0-1.39s.48-1.07.53-1.62a4.07,4.07,0,0,0-.9-2.84c-.58-.62-1.4-.94-1.74-1.77-.56-1.35.49-2,1-2.84a11.1,11.1,0,0,1,1.6-1.7.68.68,0,0,0,.11-.19l-3.91.12c-.32.36-.62.73-1,1.07a4.24,4.24,0,0,0-.94,1.56,9.87,9.87,0,0,0,.1,2.37,3.82,3.82,0,0,0,1.29,2.07c1,.54,1,1.47,1.29,2.22.55,1.23-.51,2.24-.66,3.38-.12.93-1.09,1.77-.29,2.8.4.52.78,1,1.16,1.59a12.07,12.07,0,0,0,1.3,1.83c.68.66,0,1.07-.15,1.56-.27,1-1.41,1.66-1.37,2.86,0,.16-.24.32-.26.49-.05.54-.33.73-.35,1.27,0,.19,0,.5-.06.56-.14.39-.44,1,.14,1.48a3.35,3.35,0,0,1,.88,1.27,13.43,13.43,0,0,1,.86,2.37,1.59,1.59,0,0,1,0,1.08c-.35.51-.94.85-1.3,1.35a6.07,6.07,0,0,0-1,1.87c-.06,1.22-.57,1.53.53,3.12.23.35.11.87.29,1.25a3.94,3.94,0,0,0,.83,1.11c.51.49.37,1,.34,1.62,0,.27.26.58.2.83a10.46,10.46,0,0,1-.93,2.12l0,0-.11.09v0L4,133.1c0,.79-.54,1.57-.64,2.41a4.75,4.75,0,0,0,1.75,3.34,2.54,2.54,0,0,1,.72.75c-.2.28-.45.52-.67.78l3.91-.16A.26.26,0,0,0,9.11,140.05Z" transform="translate(0 -1.36)" fill="#020202"/><path d="M11.61,192.6c-.47-.8-.95-1.6-1.47-2.37-.25-.35-.73-.58-.88-1a4.39,4.39,0,0,1-.53-1.37c0-.84.68-1.47.73-2.31,0-.12.28-.58.37-1a3.08,3.08,0,0,1,.32-.48c.13-.14.36-.18.49-.31.29-.3.82-.71.75-.93-.18-.66-.47-1.63-1-1.8-1.57-.56-1-2.47-2.18-3.15,0,0-.35-.26-.32-.34.1-.34-.43-.4-.33-.73,0,0,.06-.37,0-.39,0-.48.87-.78,1-1.24.06-.3.61-.66.71-.79.84-1.11,1.35-1,1.43-2.07a3.36,3.36,0,0,0-.42-1.95,5,5,0,0,1-.76-1.34c-.25-.87-.69-1.68-1-2.53,0-.11.05-.28.1-.41a9.88,9.88,0,0,0,.58-1.48c.05-.31-.09-.63,0-.93.17-.58.77-.93.93-1.48,0-.07-.12-.26-.1-.27a3.11,3.11,0,0,0,.86-2.5c-.27-.73-.68-.8-.82-1.59,0-.08-.17-.13-.21-.21-.56-1.1-1.47-1.66-1.76-2.82-.16-.68.44-1.54.6-2.33.08-.44-.13-.94-.06-1.39a16.81,16.81,0,0,0,.51-1.62,4.1,4.1,0,0,0-.93-2.83c-.59-.61-1.41-.93-1.77-1.76-.57-1.33.47-2,1-2.85A11.53,11.53,0,0,1,9,140.41a.59.59,0,0,0,.11-.19l-3.91.16c-.31.36-.61.74-.94,1.08A4.35,4.35,0,0,0,3.33,143a9.39,9.39,0,0,0,.13,2.37,3.76,3.76,0,0,0,1.32,2.06c1,.53,1,1.45,1.31,2.2.56,1.22-.48,2.24-.62,3.39-.11.93-1.07,1.78-.26,2.8.4.52.79,1.05,1.17,1.58a12.73,12.73,0,0,0,1.32,1.81c.69.65,0,1.08-.12,1.57-.26,1-1.39,1.67-1.34,2.87,0,.16-.23.33-.25.5,0,.54-.32.73-.34,1.27,0,.19,0,.49-.05.55-.14.4-.43,1,.16,1.48a3.34,3.34,0,0,1,.89,1.26,14.36,14.36,0,0,1,.88,2.37,1.6,1.6,0,0,1,0,1.08c-.34.51-.92.86-1.28,1.36a6.06,6.06,0,0,0-1,1.88c0,1.23-.55,1.54.57,3.12.24.34.12.86.31,1.24a4.12,4.12,0,0,0,.84,1.1c.51.48.38,1,.36,1.62,0,.27.26.58.21.82a11.5,11.5,0,0,1-.92,2.14l0,0a.35.35,0,0,1-.11.1v0l-.08.08c0,.79-.52,1.57-.62,2.42a4.74,4.74,0,0,0,1.8,3.31c.3.2.77.7.73.75-.2.28-.44.52-.66.79l3.9-.21A.26.26,0,0,0,11.61,192.6Z" transform="translate(0 -1.36)" fill="#020202"/><path d="M10.45,224a1,1,0,0,1,.2.31,4.91,4.91,0,0,0,.75,1.5l0,0a1.24,1.24,0,0,0,.41.31c.39.19.72-.14,1.1-.3.33-.32.61-.49.65-1.09a2.82,2.82,0,0,0-.45-1.78,5.35,5.35,0,0,1-.78-1.34c-.26-.86-.71-1.67-1.06-2.52,0-.1,0-.27.09-.4a8.17,8.17,0,0,0,.57-1.49c0-.31-.1-.63,0-.93.16-.58.76-.94.91-1.49,0-.07-.12-.26-.11-.27a3.1,3.1,0,0,0,.84-2.51c-.28-.73-.69-.79-.84-1.58,0-.08-.16-.13-.21-.21-.56-1.09-1.48-1.64-1.78-2.8-.18-.68.42-1.54.56-2.34.08-.44-.14-.93-.07-1.38s.46-1.08.49-1.63a4.11,4.11,0,0,0-1-2.82c-.6-.61-1.42-.91-1.78-1.74-.59-1.32.45-2,.94-2.86A12.15,12.15,0,0,1,11.5,193a.49.49,0,0,0,.1-.19L7.7,193c-.31.36-.6.74-.93,1.09a4.23,4.23,0,0,0-.9,1.58A9.29,9.29,0,0,0,6,198a3.77,3.77,0,0,0,1.34,2.05c1,.52,1,1.44,1.34,2.19.58,1.21-.46,2.24-.58,3.39-.1.93-1,1.79-.23,2.81q.62.77,1.2,1.56a12,12,0,0,0,1.33,1.8c.7.64,0,1.07-.11,1.57-.24,1-1.37,1.68-1.3,2.89,0,.16-.23.32-.25.49,0,.54-.31.74-.32,1.28,0,.19.05.49,0,.55-.13.4-.41,1,.18,1.48a3.39,3.39,0,0,1,.91,1.25,13.94,13.94,0,0,1,.91,2.35Z" transform="translate(0 -1.36)" fill="#020202"/></svg>