<svg xmlns="http://www.w3.org/2000/svg" viewBox="0 0 27.64 56.02"><path d="M2.66,32.7A3.85,3.85,0,0,1,2.72,32c0-.22-.08-.53-.08-.74,0-.41-.1-.82-.11-1.23l0-1.73V26.92l0-.48v-.05c0-.22,0-.44,0-.66a3.67,3.67,0,0,1,0-.45c0-.05,0-.32,0-.37a2.55,2.55,0,0,1-.08-.25H.32c0,.32.07.65.08,1l0,3.59C.36,30.28.06,31.33,0,32.35a1.54,1.54,0,0,0,.19.77c.14.23.1.3.2.39a1,1,0,0,0,.61.12C1.74,33.6,2.71,33.21,2.66,32.7Z" fill="#020202"/><path d="M2.51,23v-.38a.65.65,0,0,0,0-.24c0-.93,0-1.86-.07-2.79a4.59,4.59,0,0,1,0-1,17.3,17.3,0,0,0,.1-1.76,2.87,2.87,0,0,1,0-.83c0-.16.1-.46.1-.62s-.06-.44-.07-.74c0-.65-.06-1.3-.07-2a2.24,2.24,0,0,1,.07-.51,1.52,1.52,0,0,0,0-.79,1.33,1.33,0,0,1-.1-.74,7.23,7.23,0,0,0,0-1.32,15,15,0,0,1,.08-1.77c0-.19,0-.4,0-.61A12.11,12.11,0,0,0,2.71,5.5,28.19,28.19,0,0,1,2.86,2c0-.52-.25-1.77-.59-1.92s-.44,0-.64,0C1.16-.16.35.61.35,1.31L.41,3.52c0,.77,0,1.55,0,2.31,0,.59.21,1.28.17,1.77a3.16,3.16,0,0,1,0,.81,4.56,4.56,0,0,0,0,1.28c0,.94,0,1.9-.11,2.84,0,.6.06,1.21.07,1.8,0,1.63,0,3.26,0,4.89,0,.4,0,.81,0,1.22a5.38,5.38,0,0,1-.07,1.5l0,.08h0v0a2.07,2.07,0,0,0,0,.5,4.1,4.1,0,0,1,0,1c.66.06,1.46.13,2.14.12a.77.77,0,0,0,0-.26A1.28,1.28,0,0,1,2.51,23Z" fill="#020202"/><path d="M2.39,29.82a6.87,6.87,0,0,1,0-.86c0-.39.1-1.11.1-1.49a5.41,5.41,0,0,0,0-.55,3.5,3.5,0,0,1,0-.37c0-.66-.06-1.31-.07-2a2.25,2.25,0,0,1,.07-.52,1.42,1.42,0,0,0,0-.79,1.29,1.29,0,0,1-.09-.73,8.32,8.32,0,0,0,0-1.32c0-.38,0-.74,0-1.09a4.58,4.58,0,0,1-.09-.9c-.54.08-1.12.12-1.67.16a2.32,2.32,0,0,1-.18.71,0,0,0,0,1,0,0l0,.17a4.5,4.5,0,0,0,0,1.27c0,.94,0,1.9-.1,2.84a17.94,17.94,0,0,0,.06,1.8V29.7A3.12,3.12,0,0,1,2.39,29.82Z" fill="#020202"/><path d="M6.38,47a1.13,1.13,0,0,1-.52,1A1.86,1.86,0,0,1,4,48c-.72-.54-1-1.54-1.44-2.27A14,14,0,0,1,.84,42.47C.6,41.73.53,41,.34,40.22a8.63,8.63,0,0,1-.18-2,6.7,6.7,0,0,0,0-.9,2.31,2.31,0,0,1-.1-.86c.17-.79,1.71-.91,2.21-.45s.22,1.15.22,1.6a13.32,13.32,0,0,0,0,1.9,12.57,12.57,0,0,0,1.1,4.25,6.3,6.3,0,0,0,1.18,1.39A13.63,13.63,0,0,0,6,46.28.91.91,0,0,1,6.38,47Z" fill="#020202"/><path d="M15.58,50.26a2.33,2.33,0,0,1-.06.79,1,1,0,0,1-.38.51,1.69,1.69,0,0,1-1.72.11,10.29,10.29,0,0,0-2.21-.51,5.87,5.87,0,0,1-2.33-.79,1.63,1.63,0,0,1-.64-.86c-.13-.57,0-1.1.66-1.19a2.55,2.55,0,0,1,1,.09,4.05,4.05,0,0,1,1,.34,8.37,8.37,0,0,0,3,.13,1.45,1.45,0,0,1,.93.31A1.93,1.93,0,0,1,15.58,50.26Z" fill="#020202"/><path d="M21.21,50.71a2.38,2.38,0,0,1-.27.62,1.45,1.45,0,0,1-2.49.09c-.38-.49-.35-1.71.23-2a2.77,2.77,0,0,1,1-.29C20.49,49.06,21.17,49.32,21.21,50.71Z" fill="#020202"/><path d="M27.64,50.06c-.07-1.46-9.13-5.61-9.71-5s-.29,10.15.55,10.9C19,56.46,27.71,51.38,27.64,50.06Z" fill="#010101"/></svg>