<svg xmlns="http://www.w3.org/2000/svg" viewBox="0 0 27.9 56.03"><path d="M19.75,49.25a6.55,6.55,0,0,1-.88,0c-.3,0-.72.07-1,.08-.55,0-1.09.07-1.64.06a26.42,26.42,0,0,1-4.55-.52,11.69,11.69,0,0,1-1.44-.37l-.11,0h0c-.33-.09-.63-.22-.95-.33s-.63-.24-.93-.37A8.06,8.06,0,0,1,7,47.1c-.13-.07-.82-.48-.94-.57s-.92-.69-1.14-.86-.39-.49-.57-.74c-.31-.49-.86-1.44-1.14-2h0c-.1-.21-.17-.43-.26-.64l0-.1a3.46,3.46,0,0,0-.18-.47A24.74,24.74,0,0,1,2,35.58a21.8,21.8,0,0,1,0-2.29c.09-1.36.09-2.74.12-4.11a14.18,14.18,0,0,1,0-1.95c0-.38.1-1.09.1-1.46,0-.68,0-1-.07-1.72,0-1.53,0-3.06,0-4.59a12.09,12.09,0,0,1,.07-1.21,7.66,7.66,0,0,0,0-1.85,6.94,6.94,0,0,1-.09-1.72c.09-1,0-2,0-3.09,0-1.65,0-3.11.13-4.76a9.78,9.78,0,0,0,.1-1.42A29.07,29.07,0,0,1,2.51,2c0-.51-.24-1.74-.58-1.89s-.44,0-.65,0C.82-.15,0,.6,0,1.29L.07,3.46c0,.76,0,1.52,0,2.27,0,.6.2,1.21.17,1.79s.06,1.23,0,1.9a24.73,24.73,0,0,0,0,3c0,2.2,0,4.45-.12,6.66-.06,1.4,0,2.83.05,4.21,0,3.82,0,7.64,0,11.46,0,1,0,1.93.06,2.9C.19,39,.36,40,.5,41.32l0,.2h0v0a7.46,7.46,0,0,0,.6,2,9.68,9.68,0,0,0,.93,1.81c.18.28.36.58.56.85l.65.79A11.4,11.4,0,0,0,7,49.55,22.85,22.85,0,0,0,15,51.39a37.1,37.1,0,0,0,4.38.48,2.47,2.47,0,0,0,1.07-.21c.32-.15.42-.11.54-.22a.71.71,0,0,0,.14-.6C21,50.13,20.44,49.18,19.75,49.25Z" transform="translate(0 0)" fill="#020202"/><path d="M27.9,50.07c-.08-1.47-9.13-5.62-9.72-5s-.29,10.14.55,10.9C19.25,56.46,28,51.38,27.9,50.07Z" transform="translate(0 0)" fill="#010101"/></svg>