<svg xmlns="http://www.w3.org/2000/svg" viewBox="0 0 30.01 55.29"><path d="M4.49,18.49c-.32-.44-.64-.88-1-1.3-.17-.19-.52-.33-.62-.53s-.37-.54-.34-.75c.07-.44.58-.75.65-1.19,0-.06.23-.3.32-.49A1.55,1.55,0,0,1,3.76,14c.1-.06.28-.08.38-.15s.64-.34.6-.46c-.11-.36-.29-.88-.65-1-1.15-.35-.62-1.34-1.5-1.73,0,0-.25-.15-.23-.19s-.31-.23-.22-.4c0,0,.06-.2,0-.2.05-.26.68-.39.77-.63s.48-.33.56-.4c.67-.56,1-.51,1.15-1a1.36,1.36,0,0,0-.23-1A2.64,2.64,0,0,1,3.9,6a13.41,13.41,0,0,0-.68-1.37c0-.06-.11-.26-.06-.33.15-.25.33-.3.42-.57a4.17,4.17,0,0,1,.26-.57.89.89,0,0,1,.28-.41,1.44,1.44,0,0,0,.44-.4c.07-.15.21-.23.3-.36s0-.34,0-.46c0-.29.08-.39-.25-.59a1.33,1.33,0,0,0-.94-.2L3.11,1a1.18,1.18,0,0,0-.35.54c-.24.54-1.11.84-1.12,1.48,0,.08-.19.16-.2.25-.06.29-.27.38-.31.67,0,.1,0,.26-.06.29-.11.2-.35.51.07.78a2,2,0,0,1,.62.69A6,6,0,0,1,2.32,7c.05.19.11.44,0,.57s-.73.43-1,.68-.76.73-.79,1c-.09.65-.48.8.29,1.67.17.18.07.46.19.66a2.39,2.39,0,0,0,.58.61c.37.27.25.56.2.86s.18.32.13.45a5.24,5.24,0,0,1-.8,1.12L1,14.64l-.07,0c0,.41-.46.81-.56,1.25s.6,1.49,1.2,1.81a1.88,1.88,0,0,1,.52.42c-.17.14-.36.26-.54.39l2.94,0A.15.15,0,0,0,4.49,18.49Z" transform="translate(0 -0.74)" fill="#020202"/><path d="M6.69,44.49c-.52-.05-1-.2-1.52-.3-.24-.06-.63.05-.81-.08L4.21,44c-.19-.09-.44-.23-.49-.39-.13-.44.22-1,.15-1.39,0-.07.12-.37.16-.58a1.3,1.3,0,0,1,.19-.31c.07-.1.24-.18.32-.27s.54-.52.48-.61c-.18-.25-.43-.64-.79-.64-1.19,0-.79-1.07-1.69-1.33,0,0-.26-.12-.24-.16.07-.19-.32-.2-.24-.39,0,0,0-.2,0-.21,0-.27.66-.43.74-.67s.47-.34.55-.41c.66-.57,1-.52,1.13-1a1.33,1.33,0,0,0-.23-1,2.64,2.64,0,0,1-.52-.73,13.41,13.41,0,0,0-.68-1.37c0-.06,0-.14.09-.21a3.71,3.71,0,0,0,.49-.77c.06-.16,0-.33,0-.49s.61-.47.76-.75c0,0-.08-.14-.07-.15.4-.15.88-1,.74-1.29s-.48-.45-.56-.87c0,0-.11-.07-.14-.12-.38-.59-1-.92-1.21-1.54-.11-.36.38-.8.52-1.21.08-.23-.06-.5,0-.74s.39-.55.44-.84A1.73,1.73,0,0,0,3.57,22c-.42-.34-1-.53-1.26-1-.38-.72.43-1,.84-1.48a8.46,8.46,0,0,1,1.24-.86.28.28,0,0,0,.09-.1l-2.94,0-.73.55c-.25.16-.75.66-.75.8,0,.52-.15.75,0,1.25A2.06,2.06,0,0,0,1,22.29c.74.31.68.79.91,1.2.38.66-.44,1.17-.59,1.77s-.86.91-.29,1.47l.82.87a7.15,7.15,0,0,0,.92,1c.49.37,0,.57-.15.83-.24.54-1.11.84-1.12,1.48,0,.08-.19.16-.2.25-.06.29-.27.38-.31.66,0,.11,0,.27-.06.3-.11.2-.35.51.07.78a2,2,0,0,1,.62.69,6,6,0,0,1,.56,1.28c0,.19.11.44,0,.57s-.72.44-1,.7-.75.77-.77,1c0,.7-.43,1,.42,1.86.18.19.11.52.27.72a1.72,1.72,0,0,0,.66.53c.39.2.34.52.36.86,0,.15.25.27.23.41A14.41,14.41,0,0,1,1.91,43v0l-.06.09h0a.43.43,0,0,1,0,.07c.13.45-.09,1.06.05,1.58a1,1,0,0,0,.37.52,2.48,2.48,0,0,0,1.68.54,2.19,2.19,0,0,1,.67,0c0,.21-.1.43-.14.65l2.31-1.93S6.72,44.5,6.69,44.49Z" transform="translate(0 -0.74)" fill="#020202"/><path d="M20.48,50.86a.46.46,0,0,1,.17-.14,2.19,2.19,0,0,0,.81-.51v0a.92.92,0,0,0,.17-.29c.11-.29-.06-.55-.14-.84s-.25-.47-.55-.52a1.08,1.08,0,0,0-.93.26,2.41,2.41,0,0,1-.71.52c-.46.15-.9.44-1.36.64-.06,0-.14-.05-.2-.1a8.27,8.27,0,0,0-.72-.53c-.16-.06-.33,0-.48-.07s-.4-.64-.65-.81c0,0-.14.06-.14,0-.11-.42-.81-1-1.1-.88s-.48.41-.86.43c0,0-.08.1-.12.12-.57.26-1,.87-1.67.87-.37,0-.61-.55-.9-.81s-.46-.1-.63-.24-.28-.54-.49-.68a1.83,1.83,0,0,0-1.56-.12c-.53.2-1.06.58-1.58.5-.87-.13-.54-1-.55-1.56a5.25,5.25,0,0,1,.42-1.45.17.17,0,0,0,0-.12L4.42,46.49l-.16.95a2.13,2.13,0,0,0,.14,1.15c.45.41.57.7,1.16.92a2.09,2.09,0,0,0,1.63,0c.7-.43,1.11-.14,1.63-.17.79,0,.93.85,1.51,1.22s.69,1.1,1.46.72l1.12-.6a4.89,4.89,0,0,0,1.17-.73c.43-.44.54.14.79.27.5.28.72,1.2,1.38,1.25.09,0,.16.2.25.23.29.07.37.29.66.35.11,0,.27,0,.3.07.21.13.53.38.82,0a2,2,0,0,1,.72-.61,7.63,7.63,0,0,1,1.29-.56A1.08,1.08,0,0,1,20.48,50.86Z" transform="translate(0 -0.74)" fill="#020202"/><path d="M30,50.07c-.07-1.47-9.13-5.62-9.72-5S20,55.24,20.85,56C21.36,56.46,30.08,51.38,30,50.07Z" transform="translate(0 -0.74)" fill="#010101"/></svg>