<svg xmlns="http://www.w3.org/2000/svg" viewBox="0 0 24.97 53.55"><path d="M2.61,20.16c-.08.29-.28.54-.2.85.16.62-.22.74-.49.85a1.25,1.25,0,0,1-1.54-.28c-.46-.48-.25-.81-.19-1.36.09-.76.53-1.66,1.2-1.61a1.32,1.32,0,0,1,.69.44c.13.13.31.21.42.38a1.31,1.31,0,0,1,.13.41A.68.68,0,0,1,2.61,20.16Z" transform="translate(0 -2.48)" fill="#020202"/><path d="M1.9,27c.12.13.56.34.62.67.52,2-.91,2.37-1.41,2.22S.05,29.42,0,29.12C-.12,27.65.42,27,1.9,27Z" transform="translate(0 -2.48)" fill="#020202"/><path d="M.17,4.4c0-.05,0-.11,0-.18a9.71,9.71,0,0,0,.13-1c.06-.33.16-.37.46-.5A1.06,1.06,0,0,1,2,2.68c.35.2.47.4.67,1.06S2.43,5.18,1.57,5.59a.5.5,0,0,1-.46,0C.89,5.41.69,5.2.49,5S.12,4.69.17,4.4Z" transform="translate(0 -2.48)" fill="#020202"/><path d="M2.75,12.68c-.15.73-1.37,1.44-1.69,1.19a2.53,2.53,0,0,1-1-1.65c0-.6.65-1.18,1-1.77C2.53,10.42,2.86,11.89,2.75,12.68Z" transform="translate(0 -2.48)" fill="#020202"/><path d="M9.56,48c.23.16.37.45.69.44.6,0,.62.4.65.68a1.22,1.22,0,0,1-.65,1.42c-.61.31-.91,0-1.44-.24-.75-.33-1.43-1.16-1.08-1.74a1.33,1.33,0,0,1,.66-.44,2.82,2.82,0,0,1,.49-.25,1.35,1.35,0,0,1,.4,0A.65.65,0,0,1,9.56,48Z" transform="translate(0 -2.48)" fill="#020202"/><path d="M15.85,49.88c.13-.11.37-.54.68-.59,1.93-.45,2.32.94,2.18,1.46s-.45,1-.76,1.08C16.43,51.94,15.82,51.36,15.85,49.88Z" transform="translate(0 -2.48)" fill="#020202"/><path d="M0,36.93l0-.18c.09-.38.06-.72.12-1.08s.16-.38.45-.5a1,1,0,0,1,1.21,0c.35.2.47.4.69,1s-.23,1.39-1,1.86a.54.54,0,0,1-.46,0,7.09,7.09,0,0,1-.66-.57C.08,37.28,0,37.23,0,36.93Z" transform="translate(0 -2.48)" fill="#020202"/><path d="M4.39,44.07c.16.6-.28,1.89-.69,1.92a2.3,2.3,0,0,1-1.87-.86A3.49,3.49,0,0,1,1.91,43,2,2,0,0,1,4.39,44.07Z" transform="translate(0 -2.48)" fill="#020202"/><path d="M25,50.07c-.08-1.47-9.13-5.62-9.72-5S15,55.24,15.81,56C16.32,56.46,25,51.38,25,50.07Z" transform="translate(0 -2.48)" fill="#010101"/></svg>