<svg xmlns="http://www.w3.org/2000/svg" viewBox="0 0 28.5 189.81"><path d="M.85,25.07A13.76,13.76,0,0,1,0,19.83a13.81,13.81,0,0,1,1.12-4.7c.14-.3,1.22-.47,1.65-.25s1,1,.89,1.33a19.32,19.32,0,0,0-1.58,7.27,9.72,9.72,0,0,1,.09,1.31c0,.18-.5.45-.79.5S.88,25.08.85,25.07Z" fill="#020202"/><path d="M4.69,31.29c1-.3,1.46.27,2,.68,1,.86,2,1.8,3,2.74a19.45,19.45,0,0,0,2.2,2.06c.63.4.74.88.41,1.69,0,.1-.32.22-.39.18-2.1-1.16-3.84-2.41-6-3.82C5.42,34.55,5,34.31,4.5,34A1.6,1.6,0,0,1,4.69,31.29Z" fill="#020202"/><path d="M6.71,6.86C7,6.23,7.54,5.44,8,4.69S9,3.26,9.24,2.83A14.86,14.86,0,0,1,10.87.41,2.35,2.35,0,0,1,12.43,0c.17,0,.34.6.51.93.7,1.38-.48,1.87-1.12,2.65A48.79,48.79,0,0,0,8.4,7.21c-.68,1-1,1-1.71-.06C6.59,7,6.73,6.69,6.71,6.86Z" fill="#020202"/><path d="M20.56,70.55c.12-1.92.1-3.53.11-5.1s.06-2.94.15-4.39c0-.28,1-.77,1.45-.74s1.31.66,1.31,1a34.57,34.57,0,0,1-1.36,8.12,5,5,0,0,1-.39,1.36c-.11.17-.61.22-.88.14S20.58,70.57,20.56,70.55Z" fill="#020202"/><path d="M19.22,77.84c.8.64.47,1.4.28,2.06A25.47,25.47,0,0,1,17.74,84a21,21,0,0,0-1.44,2.67c-.23.7-.66.93-1.52.82-.11,0-.3-.24-.28-.32.56-2.34,1.46-4.36,2-6.69a13.45,13.45,0,0,0,.19-1.42A1.85,1.85,0,0,1,19.22,77.84Z" fill="#020202"/><path d="M20.52,51.68a27.53,27.53,0,0,0-2-4.07,10,10,0,0,0-.84-1.1,11.46,11.46,0,0,1-.78-1.09,2.44,2.44,0,0,1,0-1.56c0-.16.65-.22,1-.3a1.37,1.37,0,0,1,1.53.49,11.85,11.85,0,0,1,.76,1.46,14.05,14.05,0,0,1,.94,2.5c.3,1,.51,2,.71,2.54.45,1.25.16,1.47-1.1,1.32C20.55,51.85,20.41,51.56,20.52,51.68Z" fill="#020202"/><path d="M23.22,119c-.48-.83-.91-1.6-1.33-2.33s-.88-1.38-1.27-2.07-.77-1.26-1.12-1.91l-1-1.94c-.13-.25.43-1.16.86-1.37s1.47-.1,1.66.22a38.57,38.57,0,0,1,3.07,7.62,5.7,5.7,0,0,1,.4,1.36c0,.2-.41.51-.68.58S23.26,119,23.22,119Z" fill="#020202"/><path d="M25.88,125.94c1,.14,1.12,1,1.3,1.64a23,23,0,0,1,.5,4.46c.06,1-.16,2.07,0,3.06.12.73-.15,1.14-1,1.43a.45.45,0,0,1-.4-.16c-.57-2.32-.73-4.52-1.47-6.77-.15-.45-.36-.88-.55-1.31A1.85,1.85,0,0,1,25.88,125.94Z" fill="#020202"/><path d="M13.47,102.52a12.47,12.47,0,0,1-1.76-2,8.9,8.9,0,0,1-1.09-2.06,8,8,0,0,1-.27-.83,4.28,4.28,0,0,1-.08-2.13c.11-.5.74-1,1.26-1.36.15-.1.59.23.92.35C13.84,95,13,96.05,13,97c0,.06,0,.13,0,.28a6.71,6.71,0,0,0,.4,2.19,6.4,6.4,0,0,0,1.08,1.87c.83.89.67,1.14-.75,1.29C13.58,102.67,13.3,102.44,13.47,102.52Z" fill="#020202"/><path d="M25.67,171.87c-.29-1.91-.56-3.53-.68-5.15a27.64,27.64,0,0,1,0-4.55c0-.3,1-.75,1.47-.69s1.29.71,1.27,1.07c-.16,2.66-.46,5.31-.67,8a5.68,5.68,0,0,1-.12,1.38c-.06.19-.55.34-.83.32S25.7,171.9,25.67,171.87Z" fill="#020202"/><path d="M26.5,179.23c1,.31.95,1.1,1,1.78a41.77,41.77,0,0,1,.14,4.34,15.61,15.61,0,0,0,0,3c.16.71-.1,1.12-.9,1.47-.1,0-.38-.05-.4-.14-.73-2.31-.85-4.55-1.39-6.92-.11-.47-.27-.93-.4-1.4A1.83,1.83,0,0,1,26.5,179.23Z" fill="#020202"/><path d="M26.3,152.58c-.16-1.39-.21-3.7-.35-4.67a19.71,19.71,0,0,1-.35-2.83,2.37,2.37,0,0,1,.87-1.34c.12-.11.66.2,1,.32,1.44.53,1,1.74.94,2.77s-.54,4-.51,5.09c0,1.28-.29,1.42-1.46.91C26.28,152.75,26.22,152.43,26.3,152.58Z" fill="#020202"/></svg>