<svg xmlns="http://www.w3.org/2000/svg" viewBox="0 0 35.88 203.36"><path d="M1.68,17.83A27.49,27.49,0,0,1,4,13.12,17.55,17.55,0,0,1,7.24,9.33a2.48,2.48,0,0,1,1.9.17c.43.32.79,1.19.54,1.41A42.14,42.14,0,0,0,4.2,16.79a5.1,5.1,0,0,1-.85,1.15,2.62,2.62,0,0,1-1.29.23C1.72,18.13,1.72,17.86,1.68,17.83Z" transform="translate(-0.97)" fill="#020202"/><path d="M2.31,24.91a3.67,3.67,0,0,1,2.59.93c1.27.82,2.33,1.57,3.44,2.4A17.1,17.1,0,0,0,10.55,30c.68.34.72.73.22,1.4a.71.71,0,0,1-.51.14C7.72,30.39,5.7,29.07,3.2,27.78c-.5-.26-1.05-.51-1.55-.8A1.12,1.12,0,0,1,1,25.85a1,1,0,0,1,.34-.54,1.62,1.62,0,0,1,.35-.22A4.9,4.9,0,0,1,2.31,24.91Z" transform="translate(-0.97)" fill="#020202"/><path d="M16.54,3.72A37.63,37.63,0,0,1,21,1.28,12.92,12.92,0,0,1,23.91,0a2.48,2.48,0,0,1,1.62.51c.14.09-.07.69-.13,1.06-.23,1.53-1.49,1.31-2.49,1.64s-4,.94-4.9,1.53c-1.1.6-1.41.47-1.62-.78C16.36,3.8,16.64,3.58,16.54,3.72Z" transform="translate(-0.97)" fill="#020202"/><path d="M35.12,56.06a13.67,13.67,0,0,0-1-5.05,17,17,0,0,0-.93-2c-.4-.62-.74-1.29-1.17-1.87-.09-.14.07-.49.31-.81a1.61,1.61,0,0,1,.59-.53,1.55,1.55,0,0,1,.59-.11,1.78,1.78,0,0,1,1.26.34,12.16,12.16,0,0,1,2,8.57,7,7,0,0,1-.28,1.53c-.1.2-.63.35-.91.32S35.15,56.08,35.12,56.06Z" transform="translate(-0.97)" fill="#020202"/><path d="M33,63.42c.7.73.09,1.46-.31,2.12a16.36,16.36,0,0,1-3.47,3.63,9.25,9.25,0,0,1-1.44,1,13.69,13.69,0,0,0-1.34.92c-.6.54-1.12.51-1.81,0a.47.47,0,0,1,0-.43c1.83-1.74,3.58-3.13,4.82-5.17.24-.4.4-.84.59-1.24C30.26,63.33,31.68,62.89,33,63.42Z" transform="translate(-0.97)" fill="#020202"/><path d="M25,40.72c-1.34-.57-3.51-1.74-4.46-2.16a18.73,18.73,0,0,1-2.77-1.25A2.53,2.53,0,0,1,17,35.82c0-.17.53-.45.82-.67,1.24-.93,2,.16,3,.72s3.36,2.58,4.37,3.12c1.22.66,1.2,1,.11,1.73C25.14,40.83,24.83,40.71,25,40.72Z" transform="translate(-0.97)" fill="#020202"/><path d="M5.58,97.27a7.71,7.71,0,0,1-3.71-4.38A7.07,7.07,0,0,1,2.42,88a2.71,2.71,0,0,1,1.86-.68c.68.09,1.64.67,1.51,1a8.75,8.75,0,0,0-.86,3.83,5.78,5.78,0,0,0,1.4,3.56c.28.35.75.64.9,1,.07.14-.45.48-.84.6A1.76,1.76,0,0,1,5.58,97.27Z" transform="translate(-0.97)" fill="#020202"/><path d="M13.23,100.52a3.13,3.13,0,0,1,2.59,0,27.68,27.68,0,0,1,3.89,1.69,24.08,24.08,0,0,0,2.56,1.41c.69.23.91.67.77,1.54a.46.46,0,0,1-.35.26c-2.51-.74-4.78-1.65-7.52-2.36-.55-.14-1.15-.23-1.73-.36C12.27,102.45,11.89,101.42,13.23,100.52Z" transform="translate(-0.97)" fill="#020202"/><path d="M9.85,80.16a46,46,0,0,1,3.66-3.28,15.12,15.12,0,0,1,2.39-2,3.33,3.33,0,0,1,1.9-.16c.18,0,.26.61.39.93.55,1.36-.76,1.57-1.62,2.13a47.07,47.07,0,0,0-4.47,2.63A1.78,1.78,0,0,1,11,81a1.77,1.77,0,0,1-1.15-.62C9.68,80.28,9.89,80,9.85,80.16Z" transform="translate(-0.97)" fill="#020202"/><path d="M21.36,134.52c1.08-1.77,2-3.26,3-4.64s1.89-2.55,2.89-3.72c.2-.23,1.27-.08,1.63.24s.63,1.35.39,1.66c-1.81,2.26-3.93,4.23-5.83,6.21a6.57,6.57,0,0,1-1,1,1.2,1.2,0,0,1-.91-.21C21.34,134.92,21.36,134.56,21.36,134.52Z" transform="translate(-0.97)" fill="#020202"/><path d="M17.83,141.26a1,1,0,0,1,.58.88,3.72,3.72,0,0,1-.16,1,14.44,14.44,0,0,0-.37,4.26,6,6,0,0,0,.62,2.86c.41.62.29,1-.41,1.55a.62.62,0,0,1-.48,0,11.11,11.11,0,0,1-2.46-7.17c0-.53-.06-1.05-.07-1.57A2.19,2.19,0,0,1,17.83,141.26Z" transform="translate(-0.97)" fill="#020202"/><path d="M32,117.82c0-.34-.08-.75-.11-1.17s-.15-.85-.27-1.26a8.33,8.33,0,0,0-.78-2,11,11,0,0,0-.79-1.1,5.3,5.3,0,0,1-.82-1,2.42,2.42,0,0,1-.22-1.54c0-.17.61-.3,1-.43a1.42,1.42,0,0,1,1.66.39,17.76,17.76,0,0,1,1,1.6,9.76,9.76,0,0,1,.82,2.88,10,10,0,0,1,.17,1.66c0,.51,0,1,0,1.27.05.73-.08,1.14-.31,1.27s-.59,0-1.15-.31C31.92,118,31.89,117.67,32,117.82Z" transform="translate(-0.97)" fill="#020202"/><path d="M33.9,184.44c-.12-.5-.24-1-.35-1.43l-.4-1.31c-.27-.85-.45-1.67-.71-2.47s-.43-1.5-.6-2.26-.41-1.51-.55-2.27c-.06-.3.72-1.06,1.19-1.15s1.44.32,1.54.7a46.31,46.31,0,0,1,1.15,8.58,6.22,6.22,0,0,1,0,1.49c-.05.21-.52.42-.8.42S33.92,184.46,33.9,184.44Z" transform="translate(-0.97)" fill="#020202"/><path d="M34.94,192.2c1,.37.91,1.24.92,2a26.48,26.48,0,0,1-.4,4.7,30.49,30.49,0,0,0-.57,3.16c0,.79-.36,1.16-1.22,1.32a.45.45,0,0,1-.36-.24c-.14-2.52.11-4.84-.16-7.35,0-.5-.17-1-.26-1.48A1.91,1.91,0,0,1,34.94,192.2Z" transform="translate(-0.97)" fill="#020202"/><path d="M28.37,165.18c-.22-.29-.44-.65-.72-1l-.86-1.05a13.74,13.74,0,0,0-1.48-1.7,19.3,19.3,0,0,1-2.14-2,2.71,2.71,0,0,1-.35-1.62c0-.17.64-.29,1-.44a1.4,1.4,0,0,1,1.62.24c.39.38.69.93,1.05,1.36.86.86,2.25,3.76,2.91,4.73.72,1.18.54,1.46-.74,1.6C28.45,165.35,28.23,165.08,28.37,165.18Z" transform="translate(-0.97)" fill="#020202"/></svg>