<svg xmlns="http://www.w3.org/2000/svg" viewBox="0 0 37.94 207.57"><path d="M8.47,12.18c-.29.14-.66.14-.8.47-.26.62-.73.38-1.07.23a1.9,1.9,0,0,1-1.35-1.57c-.1-.81.34-.93.84-1.31.68-.54,1.81-.83,2.39-.13a2,2,0,0,1,.3,1,4,4,0,0,1,.12.68,1.09,1.09,0,0,1-.18.43A.59.59,0,0,1,8.47,12.18Z" fill="#020202"/><path d="M3.37,17.25c.08.19.45.69.35,1-.2,1-.65,1.35-1.21,1.47A2.2,2.2,0,0,1,1,19.53c-.48-.29-1.14-1-1-1.37C.64,16.41,1.68,16.27,3.37,17.25Z" fill="#020202"/><path d="M20.92.23h.21c.43,0,.77-.19,1.18-.21s.47.08.72.42A1.63,1.63,0,0,1,23.48,2c-.06.51-.22.71-.78,1.19s-1.51.15-2.35-.72a.82.82,0,0,1-.22-.57,7.43,7.43,0,0,1,.3-1C20.58.43,20.59.27,20.92.23Z" fill="#020202"/><path d="M14.49,7.35c-.73.23-2.3-.64-2.33-1.15a2.71,2.71,0,0,1,.76-2.15c.59-.36,1.6,0,2.38.11A2.12,2.12,0,0,1,14.49,7.35Z" fill="#020202"/><path d="M19.18,33.73c.22.25.3.62.66.71.68.16.53.66.44,1A2,2,0,0,1,19,37.06c-.77.26-.93-.17-1.4-.55-.64-.52-1.17-1.53-.65-2.27a1.76,1.76,0,0,1,.87-.53,3.23,3.23,0,0,1,.64-.27,1.11,1.11,0,0,1,.48.09A.58.58,0,0,1,19.18,33.73Z" fill="#020202"/><path d="M25,38.36c.2-.07.71-.45,1-.33a1.68,1.68,0,0,1,1.08,2.86c-.39.4-1.14,1-1.44.82C24.24,41,24,40.09,25,38.36Z" fill="#020202"/><path d="M2.79,27.53l-.14-.17c-.26-.38-.61-.6-.89-1s-.19-.49,0-.87a1.63,1.63,0,0,1,1.17-1.11,1.72,1.72,0,0,1,1.34,0c.78.2.92,1.09.7,2.3a.8.8,0,0,1-.33.52,7.05,7.05,0,0,1-1,.34C3.17,27.7,3,27.79,2.79,27.53Z" fill="#020202"/><path d="M12.34,29.36c.57.59.39,2.37-.07,2.6a2.76,2.76,0,0,1-2.23.22c-.55-.36-.65-1.4-.94-2.14A2.07,2.07,0,0,1,12.34,29.36Z" fill="#020202"/><path d="M35.18,62.06c-.25.25-.63.35-.73.71-.19.71-.69.57-1.05.47a2,2,0,0,1-1.57-1.37c-.27-.75.17-.86.5-1.32a1.89,1.89,0,0,1,2.18-.78,1.73,1.73,0,0,1,.63.83,2.81,2.81,0,0,1,.3.63,1.09,1.09,0,0,1-.07.5A.82.82,0,0,1,35.18,62.06Z" fill="#020202"/><path d="M29.78,67.64c0,.21.25.8,0,1.11a1.75,1.75,0,0,1-1.92,1.12,1.82,1.82,0,0,1-1.17-.93c-.23-.5-.52-1.4-.31-1.62C27.42,66.25,28.31,66.28,29.78,67.64Z" fill="#020202"/><path d="M32,46.43,32,46.26a5.6,5.6,0,0,0-.59-.85c-.19-.28-.13-.4,0-.78s.23-.85,1.07-1.21c.48-.19.76-.17,1.52.19.92.47.92,1.58.24,2.6a.86.86,0,0,1-.5.36l-1,0C32.28,46.61,32.14,46.68,32,46.43Z" fill="#020202"/><path d="M37.91,53.66a1.82,1.82,0,0,1-1.15,1,1.47,1.47,0,0,1-1.23.09,4.42,4.42,0,0,1-.81-.86,1.48,1.48,0,0,1-.41-.88c.07-.55.8-1.12,1.23-1.81a1.88,1.88,0,0,1,2,.69A2.3,2.3,0,0,1,37.91,53.66Z" fill="#020202"/><path d="M8.15,84.65c-.27.15-.64.17-.76.49-.24.62-.68.41-1,.29A1.88,1.88,0,0,1,4.87,84c-.14-.81.34-.94.8-1.37.66-.6,1.8-.91,2.39-.24a1.88,1.88,0,0,1,.33,1,3.38,3.38,0,0,1,.15.67,1,1,0,0,1-.16.42A.66.66,0,0,1,8.15,84.65Z" fill="#020202"/><path d="M4.21,90.11c.15.15.69.43.77.69a1.36,1.36,0,0,1-.27,1.65,2.32,2.32,0,0,1-1.3.72c-.55.07-1.52-.11-1.63-.54a2.08,2.08,0,0,1,.32-2.15A2.55,2.55,0,0,1,4.21,90.11Z" fill="#020202"/><path d="M19.66,72a.74.74,0,0,1,.19,0,8.29,8.29,0,0,0,1-.45c.34-.12.46,0,.78.22a1.65,1.65,0,0,1,.86,1.37c.07.5,0,.77-.49,1.38s-1.52.53-2.5-.21a.83.83,0,0,1-.32-.52,9.35,9.35,0,0,1,.11-1C19.39,72.21,19.36,72.06,19.66,72Z" fill="#020202"/><path d="M14,79.69c-.73.27-2.32-.57-2.36-1.08a2.68,2.68,0,0,1,.69-2.16c.57-.36,1.56,0,2.36,0A2.09,2.09,0,0,1,14,79.69Z" fill="#020202"/><path d="M25.38,103.68c.25.23.36.61.73.69.71.16.58.67.5,1a2,2,0,0,1-1.3,1.63c-.74.29-.87-.13-1.35-.46a1.82,1.82,0,0,1-.83-2.18,1.7,1.7,0,0,1,.81-.62,2.61,2.61,0,0,1,.62-.32,1.22,1.22,0,0,1,.5,0A.72.72,0,0,1,25.38,103.68Z" fill="#020202"/><path d="M31.07,109.08c.21,0,.86-.19,1.14.11a3,3,0,0,1,.9,1.21,1.43,1.43,0,0,1-.09,1,1.81,1.81,0,0,1-1.19.92c-.55.09-1.46.17-1.59,0a1.61,1.61,0,0,1-.43-1.5A3.8,3.8,0,0,1,31.07,109.08Z" fill="#020202"/><path d="M8.14,99.81A1.06,1.06,0,0,1,8,99.66c-.29-.32-.65-.47-1-.75s-.26-.41-.17-.82a1.64,1.64,0,0,1,.9-1.34,1.71,1.71,0,0,1,1.4-.21c.87.11,1.1,1,1,2.24a.84.84,0,0,1-.28.54,7.7,7.7,0,0,1-1,.45C8.51,99.94,8.39,100,8.14,99.81Z" fill="#020202"/><path d="M17.81,100.28c.66.48.8,2.27.39,2.57a2.72,2.72,0,0,1-2.16.61c-.6-.26-.88-1.26-1.3-1.95A2.08,2.08,0,0,1,17.81,100.28Z" fill="#020202"/><path d="M23.87,134.56c-.28.17-.66.19-.79.52-.26.64-.72.42-1.07.28a1.91,1.91,0,0,1-1.4-1.53c-.14-.81.32-.91.77-1.32.64-.56,1.73-.91,2.36-.27a1.78,1.78,0,0,1,.37.95,3.35,3.35,0,0,1,.16.68,1.06,1.06,0,0,1-.16.45A.69.69,0,0,1,23.87,134.56Z" fill="#020202"/><path d="M18.93,139.79c.09.2.51.67.45,1-.1,1-.54,1.4-1.09,1.58a2.22,2.22,0,0,1-1.5-.1c-.48-.27-1.19-.89-1.11-1.27C16.14,139.21,17.19,138.92,18.93,139.79Z" fill="#020202"/><path d="M30.83,119.21l.11-.14a5.43,5.43,0,0,0,.4-.93c.13-.29.25-.32.66-.39a1.7,1.7,0,0,1,1.6.21c.43.3.58.56.66,1.4.1,1-.82,1.62-2,1.61a.88.88,0,0,1-.58-.23c-.2-.28-.36-.57-.56-.85S30.69,119.45,30.83,119.21Z" fill="#020202"/><path d="M29.36,128.51c-.68.51-2.42.05-2.57-.44a2.82,2.82,0,0,1,.07-2.21c.41-.47,1.43-.44,2.19-.67A2,2,0,0,1,29.36,128.51Z" fill="#020202"/><path d="M29.86,162.05c.1.33,0,.7.28,1,.52.5.15.88-.1,1.15a2,2,0,0,1-1.94.75c-.78-.12-.66-.58-.93-1.09a1.81,1.81,0,0,1,.37-2.29,1.74,1.74,0,0,1,1-.12,2.72,2.72,0,0,1,.7,0,1.21,1.21,0,0,1,.41.3A.64.64,0,0,1,29.86,162.05Z" fill="#020202"/><path d="M32.42,169.29c.2.07.83.09,1,.41,1.39,1.91-.3,2.88-1,2.91s-1.5,0-1.64-.33C30.14,170.91,30.6,170.06,32.42,169.29Z" fill="#020202"/><path d="M16.16,150.5c0-.06,0-.14-.05-.23-.06-.46-.26-.83-.32-1.27s.06-.51.39-.76a1.61,1.61,0,0,1,1.55-.44,1.73,1.73,0,0,1,1.19.65c.57.54.26,1.33-.46,2.33a.88.88,0,0,1-.53.33,5.7,5.7,0,0,1-1.06-.17C16.41,150.85,16.26,150.85,16.16,150.5Z" fill="#020202"/><path d="M24.66,155.35c.43.72-.19,2.42-.7,2.51a2.77,2.77,0,0,1-2.2-.3c-.45-.47-.31-1.51-.42-2.31A2.08,2.08,0,0,1,24.66,155.35Z" fill="#020202"/><path d="M36.27,197.15c-.12.31-.41.56-.32.92.16.68-.35.78-.71.87a2,2,0,0,1-2-.44c-.58-.55-.28-.89-.16-1.47.18-.81.78-1.74,1.69-1.65a1.9,1.9,0,0,1,.89.52c.17.15.41.24.54.44a.93.93,0,0,1,.15.46A.59.59,0,0,1,36.27,197.15Z" fill="#020202"/><path d="M34.74,204.49c.15.15.71.45.75.81a1.69,1.69,0,0,1-2.14,2.2c-.52-.19-1.34-.64-1.34-1C32,205,32.77,204.36,34.74,204.49Z" fill="#020202"/><path d="M32.53,180.23s0-.12,0-.19a4.77,4.77,0,0,0,0-1.13c0-.35.14-.42.5-.62a1.65,1.65,0,0,1,1.59-.26c.49.13.72.32,1.1,1,.44.84-.15,1.65-1.23,2.22a.81.81,0,0,1-.61.07,10,10,0,0,1-.9-.52C32.65,180.57,32.5,180.54,32.53,180.23Z" fill="#020202"/><path d="M36.65,188.92c-.19.81-1.83,1.59-2.26,1.31-.61-.39-1.36-1.16-1.37-1.75s.82-1.27,1.29-1.93A2.07,2.07,0,0,1,36.65,188.92Z" fill="#020202"/></svg>