<svg xmlns="http://www.w3.org/2000/svg" viewBox="0 0 53.54 205.99"><path d="M16.68,3.78c-.35.33-.86,1-1.2,1.31-.8.81-1.48,2-2.27,2.85-.47.47-.79,1.48-1.22,2l1.26.88.13-.18c.64-.92,1.28-1.86,2-2.71.25-.28.33-.82.59-1.1.64-.72,1.33-1.37,2-2.07.28-.3.65-.4.68-1a1,1,0,0,0-1-.68C17.16,3.17,17,3.43,16.68,3.78Z" fill="#020202"/><path d="M9.76,8.38c.45-.66.9-1.3,1.39-1.89L12.54,4.8c.67-.83,1.32-1.46,1.93-2.31.47-.68,1.66-1.12,1.09-2.12A.94.94,0,0,0,14.11.31a8.25,8.25,0,0,0-.67,1.06c-.28.4-.64.53-1,.89-.64.76-1.34,1.46-2,2.24S9,6.36,8.34,7.38Z" fill="#020202"/><path d="M20.57,5.74c-.6.57-1.05,1.32-1.61,2-1.14,1.35-2.3,2.7-3.36,4.18l-.29.42,1.35,1,.06-.06c.8-1.11,2.45-3.3,3.34-4.31s.84-.79,1.7-1.7c.63-.64.26-1.16-.15-1.53A1.06,1.06,0,0,0,20.57,5.74Z" fill="#020202"/><path d="M23,9.3,21.69,11c-.52.66-1.19,1.09-1.7,1.77S19,14,18.6,14.63l1.37,1,.07-.09c.36-.5.69-1,1.09-1.5.83-1,1.73-2.09,2.63-3.06.5-.54,1.12-1,1.64-1.48a.83.83,0,0,0,0-.81,1.3,1.3,0,0,0-1.23-.58C23.68,8.21,23.3,8.92,23,9.3Z" fill="#020202"/><path d="M25.69,15.23c.31-.33.72-.57,1-.92.51-.61.94-1.28,1.41-1.93a2,2,0,0,0,.39-.87c0-.11-.39-.29-.62-.41-.53-.29-.79-.08-1.13.42a22.89,22.89,0,0,1-1.87,2.2l-1.73,2.06a8,8,0,0,0-.93,1.39l1.25.89a4.82,4.82,0,0,1,.5-.79C24.54,16.6,25.06,15.88,25.69,15.23Z" fill="#020202"/><path d="M29.18,15.34c-.77.67-1.17,1.27-1.89,2a16.14,16.14,0,0,0-1.58,2.33l1.25.89v0c.33-.41.65-.73,1-1.18A13.51,13.51,0,0,1,28.79,18a14.1,14.1,0,0,1,1-1.16c.35-.33.62-1.25,1.05-1.38.71-.2,1.14-.61.84-1.27-.11-.26-.36-.64-.67-.66C30.4,13.54,29.6,15,29.18,15.34Z" fill="#020202"/><path d="M31.74,21.05c.35-.42.79-.78,1.14-1.2a13.22,13.22,0,0,0,1-1.3,4.24,4.24,0,0,0,.56-.82.71.71,0,0,0-.13-.72.74.74,0,0,0-.66-.19c-1.09.22-1.16,1.1-1.76,1.85-.76,1-1.63,1.54-2.09,2.32-.27.43-.41.78-.61,1.13l1.2.85c.22-.3.45-.62.57-.77C31.26,21.84,31.46,21.41,31.74,21.05Z" fill="#020202"/><path d="M12.48,47.72l.45.42a8.37,8.37,0,0,0,1.83,1.47l.08,0a3.33,3.33,0,0,1-.72-.52C13.67,48.68,13.07,48.2,12.48,47.72Z" fill="#020202"/><path d="M18.76,45.22c-.48-.45-1.41-1.17-1.87-1.6l-1.35-1.19A34.94,34.94,0,0,0,18.76,45.22Z" fill="#020202"/><path d="M17.43,46.31l-.65-.55C17,45.93,17.25,46.17,17.43,46.31Z" fill="#020202"/><path d="M19.85,40.89,20,41Z" fill="#020202"/><path d="M23.21,38.17c-.25-.23-.48-.49-.71-.68l-.13-.09c.28.28.6.57.92.85Z" fill="#020202"/><path d="M25.94,34.76l-.48-.3.52.34Z" fill="#020202"/><path d="M28.93,31.83l-.67-.55c-.18-.16-.44-.36-.58-.5a1.89,1.89,0,0,0,.36.41,3.11,3.11,0,0,0,.41.31A4.14,4.14,0,0,1,28.93,31.83Z" fill="#020202"/><path d="M17,49.19l-.17-.12-1.18-.89-.05,0a24.43,24.43,0,0,1-2.56-2.27,27.32,27.32,0,0,1-2.32-2.48A18.31,18.31,0,0,1,9,40.64l-.06-.12c-.36-.82-.68-1.66-1.07-2.45a23.58,23.58,0,0,1-.9-2.2,10.89,10.89,0,0,1-.63-2.3c-.09-.44-.16-.88-.22-1.32s0-.88-.06-1.33a16.89,16.89,0,0,1,.07-2.66,29.62,29.62,0,0,1,.36-3.06,12,12,0,0,1,.66-2.6L8,20.2c.15-.45.37-1,.59-1.46l.71-1.36c.6-1.24,1.3-2.33,2-3.47s1.29-2.11,2-3.07l-.48-.62L12,10h0a16,16,0,0,0-1.41,1.64,22.9,22.9,0,0,0-1.36,2.44c-.46.9-.94,1.42-1.35,2.39S6.92,18,6.57,18.93L6,20.5c-.18.55-.36,1.11-.59,1.65a5.37,5.37,0,0,0-.57,2.36c0,.68-.29,1.44-.35,2.1a27.54,27.54,0,0,0-.25,3,29.77,29.77,0,0,0,.37,3.89l.3,1.64c.12.54.31,1.06.47,1.59l.53,1.58.71,1.51c.26.54.53,1.12.81,1.69q.34.6.72,1.14s.58.83.56.85c.39.52.58.74.82,1,.4.54,1,1.17,1.34,1.59a13,13,0,0,0,1.64,1.6c.59.48,1.19,1,1.64,1.41a3.33,3.33,0,0,0,.72.52,8.87,8.87,0,0,1,1.25.77L16.6,50Z" fill="#020202"/><path d="M14.43,52.59c-.57-.43-1.2-.9-1.82-1.45l-.79-.69L11,49.68l-.22-.22-1-1.05L8.62,47.19a31.11,31.11,0,0,1-2-2.57L5.29,42.7c-.54-.91-1.08-1.83-1.56-2.79a27.07,27.07,0,0,1-1-3c-.1-.29-.18-.58-.26-.88l-.16-.9c-.09-.6-.18-1.2-.31-1.8a29.19,29.19,0,0,1-.15-4.08,27.48,27.48,0,0,1,.27-3.36c.09-.56.23-1.14.35-1.7s.22-1,.32-1.52a35.21,35.21,0,0,1,2.48-7,31.43,31.43,0,0,1,1.84-3.35c.69-1.09,1.44-2.12,2.15-3.13l.54-.77L9.23,7.7l-.89-.32-.57.81a49,49,0,0,0-3.08,5,37.78,37.78,0,0,0-3.18,7.57A32.32,32.32,0,0,0,.45,25.47C.31,26.76.17,28.08,0,29.41a22.65,22.65,0,0,0,.12,4A23.84,23.84,0,0,0,1.33,38c.29.76.47,1.67.85,2.5s.72,1.68,1.11,2.41c.13.22.24.46.38.68.65,1,1.38,2,2.09,2.9.55.68,1,1.47,1.58,2.13A20.8,20.8,0,0,0,9.09,50.4c.52.49,1,.88,1.5,1.33.95.83,1.95,1.61,2.79,2.24l.61-.65Z" fill="#020202"/><path d="M19.56,45.87l0-.06-.75-.59a34.94,34.94,0,0,1-3.22-2.79L15.17,42c-.11-.13-.48-.42-.7-.64a11.93,11.93,0,0,1-1.25-1.51,13.67,13.67,0,0,1-.76-1.21c-.35-.69-.65-1.41-1-2.11a23.69,23.69,0,0,1-.91-2.48,18.92,18.92,0,0,1-.36-3.59,18.7,18.7,0,0,1,.15-3.08,10.41,10.41,0,0,1,.26-1.53c.11-.49.17-1,.32-1.45a25.14,25.14,0,0,1,1-3c.34-.88.78-1.7,1.19-2.52s.83-1.57,1.24-2.36.85-1.45,1.29-2.15c.28-.41.66-.73,1-1.12l-.53-.7-.82-.26c-.5.7-1,1.42-1.42,2.17S13,16,12.52,16.72s-.92,1.28-1.28,2a7.94,7.94,0,0,0-.4.95c-.1.33-.2.67-.32,1s-.35.84-.53,1.26-.31.88-.45,1.33l-.33,1.12L9,25.54c-.09.42-.18.85-.25,1.27l-.12,1.26-.1,1.26,0,1.27.06,1.26.21,1.25a12.19,12.19,0,0,0,.48,2.07,16,16,0,0,0,.71,2l1.08,2.28a20.43,20.43,0,0,0,2.59,3.69,7.54,7.54,0,0,0,1.07.89c.31.26.61.49.88.75a9.88,9.88,0,0,0,1,.81l.18.15.65.55.73.58.4.3.64-.56Z" fill="#020202"/><path d="M22,42.65l-.08-.07c-.49-.39-1-.73-1.47-1.14L20,41l-.11-.1-.12-.11c-.54-.49-1.43-1.12-1.9-1.66L17.74,39a13.68,13.68,0,0,1-1-1.31c-.24-.32-.45-.68-.69-1a11,11,0,0,1-.59-1.13,13.33,13.33,0,0,1-.77-2.31A13.7,13.7,0,0,1,14.19,30a7.46,7.46,0,0,1,.12-1.56l.11-.78.16-.76a26.3,26.3,0,0,1,.65-3c.19-.56.45-1.11.67-1.66a26.87,26.87,0,0,1,1.53-3,30.86,30.86,0,0,1,1.91-2.9c.2-.26.43-.49.63-.74l-.56-.68-.81-.29-.37.51c-.35.48-.67,1-1,1.48s-.71,1.08-1,1.65-.67,1.11-1,1.7l-.65,1.28c-.2.44-.37.89-.55,1.33a20.2,20.2,0,0,0-1.49,6.25,6.46,6.46,0,0,0,0,1.39c.07.52.11,1,.21,1.55a18.48,18.48,0,0,0,.31,2.09,10,10,0,0,0,.67,1.91c.31.57.59,1.13.92,1.68s.8,1.16,1.28,1.8a17.59,17.59,0,0,0,2.32,2.61c.23.19.5.34.73.53a2.69,2.69,0,0,0,.27.2c.57.49,1.16.95,1.74,1.4l.74-.56Z" fill="#020202"/><path d="M24.61,39.27a5.36,5.36,0,0,1-.78-.55l-.54-.47c-.32-.28-.64-.57-.92-.85-.12-.13-.27-.25-.37-.38l-.66-.71a5,5,0,0,1-.88-.9h0c-.12-.21-.24-.41-.34-.62a2.9,2.9,0,0,0-.19-.29,4.21,4.21,0,0,1-.36-.57c-.13-.25-.27-.49-.38-.74l-.25-.8a7.37,7.37,0,0,1-.31-1.62c0-.52-.05-1.06,0-1.58,0-.31.18-.6.2-.9L19,27c.1-.48.25-1,.36-1.47A8.63,8.63,0,0,1,20.06,24a14.92,14.92,0,0,0,.83-1.54,18.62,18.62,0,0,1,1.57-2.57c.35-.52.64-1.19,1-1.8l-.5-.61-.75-.28c-.35.6-.69,1.19-1.06,1.7a9,9,0,0,0-1.06,1.51,36,36,0,0,0-2.21,5c-.12.4-.28.8-.41,1.2l-.31,1.14A9.23,9.23,0,0,0,17.2,32c.08.47.27.91.39,1.37a4.09,4.09,0,0,0,.44,1c.17.31.32.63.51.94L19,36a17,17,0,0,0,2,2.55,15,15,0,0,0,1.46,1.09h0a10.29,10.29,0,0,0,1.25.9l.64-.52Z" fill="#020202"/><path d="M27.22,35.85h0a11.12,11.12,0,0,0-1.16-1l-.06,0-.52-.34c-.18-.13-.35-.25-.51-.39a1.3,1.3,0,0,0-.31-.21.44.44,0,0,1-.22-.14l-.33-.24-.28-.32a2.47,2.47,0,0,1-.39-.61c-.11-.22-.18-.47-.27-.7s-.08-.49-.17-.68a5.88,5.88,0,0,1-.34-2.29.56.56,0,0,1,.15-.33A1,1,0,0,0,23,28.2c0-.21.08-.46.14-.71a4.73,4.73,0,0,1,.19-.74L24.23,25A13.43,13.43,0,0,1,25,23.5a7.94,7.94,0,0,1,.75-1.17c.43-.57.75-1.21,1.24-1.79l-.34-.75-.91-.14c-.08.12-.15.24-.23.34-.62.76-.95,1.32-1.51,2.08-.3.45-.43,1-.72,1.44a20,20,0,0,0-1.5,3.33l-.28.69-.16.61a4.91,4.91,0,0,0-.19,1,7.39,7.39,0,0,0,.16,2.19c.07.2.21.39.28.59l.12.34.17.31c.12.21.23.42.36.62l.05.07a8,8,0,0,0,1,1.34,4.83,4.83,0,0,0,.4.38,6.39,6.39,0,0,0,.53.49,15.49,15.49,0,0,0,2.14,1.56l.6-.55Z" fill="#020202"/><path d="M29.78,32.51l-.8-.65-.05,0a4.14,4.14,0,0,0-.48-.33,3.11,3.11,0,0,1-.41-.31,1.89,1.89,0,0,1-.36-.41.42.42,0,0,1-.06-.14c0-.06-.12-.08-.21-.11h0a.18.18,0,0,1-.05-.07.07.07,0,0,0-.06-.05c-.1-.1-.31-.11-.28-.3s-.33,0-.22-.12.17-.12.18-.16-.16-.07-.2-.12.06-.08.06-.11.2-.22.25-.3-.06-.35.12-.68a11.17,11.17,0,0,1,.69-1.4,7.89,7.89,0,0,0,.44-.87A9.52,9.52,0,0,1,29,25.2c.62-.79.25-.88,1-1.67.1-.11.27-.33.45-.56l-.33-.63-.87-.22a4.18,4.18,0,0,1-.42.61,14.78,14.78,0,0,1-1,1.47,13.26,13.26,0,0,0-1.08,1.48,9.49,9.49,0,0,0-.67,1.3l-.27.62-.17.56a3.65,3.65,0,0,0-.15.53l0,.22,0,.1c-.07.11.05.3,0,.44s0,.29,0,.48a.78.78,0,0,0,.21.63,3.46,3.46,0,0,0,.39.58,1.73,1.73,0,0,1,.17.21c.11.16.16.37.27.56s.29.22.53.4.35.32.58.49h0c.08.06.16.14.24.19l1.15.68.6-.53Z" fill="#020202"/><path d="M25.56,67.33l0,.36a4.28,4.28,0,0,0,0,1.43v0a1.79,1.79,0,0,1,0-.56A5.45,5.45,0,0,0,25.56,67.33Z" fill="#020202"/><path d="M31.46,69.74a16.71,16.71,0,0,0,.09-2.09,8.35,8.35,0,0,0-.09-1.41A34,34,0,0,1,31.46,69.74Z" fill="#020202"/><path d="M29.8,69.34c0-.22,0-.44,0-.67Z" fill="#020202"/><path d="M35.55,68.08v0Z" fill="#020202"/><path d="M39.78,69.12c0-.43.09-.87.08-1.3v-.21l-.09,1.66A.77.77,0,0,0,39.78,69.12Z" fill="#020202"/><path d="M44.14,69.19c0-.27,0-.6,0-1l0,1Z" fill="#020202"/><path d="M48.27,70.19c.06-1,.07-2.38,0-3.8l0,1.49C48.23,68.65,48.32,69.43,48.27,70.19Z" fill="#020202"/><path d="M27.2,70.29l0-.16c0-.35,0-.71,0-1.07v0c0-.77,0-1.43,0-2.2a17.71,17.71,0,0,0-.15-1.8c0-.61-.09-1.17-.1-1.78a9,9,0,0,0-.17-1.38c-.12-.39-.27-.77-.41-1.15A11.55,11.55,0,0,1,26,59.62c-.16-.4-.32-.78-.46-1.19L25,57.29a7.49,7.49,0,0,0-.73-1.18,15.61,15.61,0,0,0-1.51-2c-.35-.33-.72-.84-1.15-1.22a25.87,25.87,0,0,0-2.09-1.77c-.76-.59-1.63-1.18-2.53-1.89l-.63.46-.3.77h0c.5.46.88,1,1.35,1.33s1.21.79,1.73,1.16.8.77,1.24,1.11a7.52,7.52,0,0,1,.86,1l.49.5a3.43,3.43,0,0,1,.39.6c.18.35.2.56.57.79s.31.42.42.65l.25.49c.1.22.19.45.25.55a9.11,9.11,0,0,1,.69,1.4,19,19,0,0,1,.79,2.74c.1.45.12,1,.21,1.43,0,0,.07.45,0,.46a5.79,5.79,0,0,1,.09.59c0,.31.06.7,0,1a5.37,5.37,0,0,0,.06,1.12,5.45,5.45,0,0,1,0,1.28,1.79,1.79,0,0,0,0,.56,3.29,3.29,0,0,1,.1,1l.62.17Z" fill="#020202"/><path d="M23,69.94c0-.45,0-.9.09-1.35l.05-1.12a.76.76,0,0,0,0-.15,15.87,15.87,0,0,0,0-2.49,4.86,4.86,0,0,0-.24-1c-.12-.31-.24-.62-.33-.94s-.12-.72-.25-1.07-.17-.8-.38-1.12-.19-.84-.44-1.17a17,17,0,0,0-1-1.65,4.18,4.18,0,0,0-.4-.44,2.22,2.22,0,0,0-.4-.41,9.56,9.56,0,0,0-.9-.84l-1.5-1.29c-.65-.54-1.32-1.14-2.17-1.81l-.67-.5-.69.52-.36.86.69.53c1.24,1,2.27,1.73,3,2.34.49.4.78.7,1.06,1s.47.48.69.77a2,2,0,0,1,.32.43c.1.16.23.29.34.47a2.29,2.29,0,0,1,.35.86,5.5,5.5,0,0,0,.3,1c.21.4.37.75.57,1.2a4.25,4.25,0,0,1,.16.76,3.37,3.37,0,0,0,.1.8c.11.44.27.88.34,1.35,0,.29-.1.59-.08.88,0,.58.1,1.1.07,1.7s-.05,1.22-.08,1.83l.87.13Z" fill="#020202"/><path d="M31.38,70.64v-.07c0-.23,0-.52.07-.83a34,34,0,0,0,0-3.5v-.4a5.36,5.36,0,0,0-.14-.7l-.21-1.43c-.09-.92-.21-1.82-.38-2.72-.17-.62-.37-1.23-.57-1.83a25.42,25.42,0,0,0-.8-2.47,22,22,0,0,0-2.12-3.77c-.49-.62-1-1.26-1.51-1.83a17,17,0,0,0-1.53-1.53c-.54-.48-1.14-.93-1.75-1.39l-1.85-1.33c-.37-.28-.66-.66-1-1l-.71.51-.29.81c1.32,1,2.56,1.85,3.63,2.77.46.4.79.91,1.19,1.3s.77.54,1.07.87.39.44.57.66.34.49.52.72a20,20,0,0,1,2.84,5.28l.41,1.26.34,1.3a22,22,0,0,1,.44,4.46,5.58,5.58,0,0,0,.17.89,2.85,2.85,0,0,1,.07.82c0,.41,0,.59,0,1v.17c0,.23,0,.45,0,.67l-.05.75c0,.14,0,.27,0,.41l.82.22Z" fill="#020202"/><path d="M35.41,71l0-.11c0-.64,0-1.28.09-1.92l0-.71V67.9c0-.76-.18-1.9-.2-2.66a.59.59,0,0,0,0-.13c-.06-.59-.09-1.18-.16-1.78-.09-.89-.29-1.76-.46-2.63s-.32-1.72-.55-2.56a28.13,28.13,0,0,0-1.28-3.3,23.69,23.69,0,0,0-1.5-3c-.3-.44-.61-.88-.95-1.31l-1.05-1.22c-.43-.45-.83-.94-1.26-1.4a34,34,0,0,0-2.63-2.33l-2.75-2.24c-.26-.2-.48-.45-.73-.66l-.7.54L21,44l.5.38,1.38,1.06c1,.77,2,1.55,2.88,2.38a23.8,23.8,0,0,1,1.87,1.89,21.78,21.78,0,0,1,3.27,4.82c.18.37.36.75.56,1.12s.46.84.64,1.28.32,1.24.51,1.85a33.2,33.2,0,0,1,1.15,5.52c.06.87,0,2.37,0,3.23,0,.28.07.57.07.85,0,.1,0,.21,0,.32,0,.72-.07,1.43-.12,2.14l.86.32Z" fill="#020202"/><path d="M39.65,71.32c0-.4,0-.79,0-1.16l.08-.89.09-1.66c0-.25,0-.5,0-.75,0-.55,0-1,0-1.58,0-.28-.2-1.22-.27-2.14h0c0-.41,0-.82-.09-1.22a13,13,0,0,0-.37-1.73,38,38,0,0,0-1.59-5.6A27.3,27.3,0,0,0,36.41,52c-.22-.5-.41-1-.68-1.51a23.71,23.71,0,0,0-2.82-3.88,31.48,31.48,0,0,0-3.46-3.7l-2.92-2.39a17.63,17.63,0,0,0-1.92-1.21l-.64.47-.29.75a15.2,15.2,0,0,1,1.75,1.22A19.17,19.17,0,0,0,27,43.08a23.65,23.65,0,0,1,5,4.8,25.74,25.74,0,0,1,1.88,2.91,42.19,42.19,0,0,1,2.62,5.79,15.49,15.49,0,0,1,.59,2q.3,1,.51,2.07A18.6,18.6,0,0,1,38,62.72a32.26,32.26,0,0,1,.09,4.5c0,.72.11,1.48.08,2.21h0c-.05.56,0,1.16,0,1.76l.77.3Z" fill="#020202"/><path d="M43.94,71.67v0a17,17,0,0,0,.21-2.25v-.11l0-1c0-.38,0-.77,0-1.15s-.17-1.08-.18-1.57l0-.51-.1-.73L43.6,63a48.52,48.52,0,0,0-1.19-6.91c-.22-.71-.43-1.35-.64-1.95s-.47-1.15-.71-1.7-.52-1.1-.81-1.68-.6-1.19-1-1.86c-.22-.39-.38-.77-.55-1.15a9.44,9.44,0,0,0-.61-1.12c-.61-1-1.5-1.9-2.21-2.87a26.33,26.33,0,0,0-2.68-3c-.84-.76-1.49-1.24-2.28-1.88-.57-.45-1.1-.86-1.6-1.3-.72-.63-1.5-1.11-2.11-1.64l-.79.29-.14.93c.12.09.25.17.35.26.85.71,1.49,1.2,2.46,2,.56.48,1.28.85,1.88,1.41a30.07,30.07,0,0,1,4.56,4.87,35.93,35.93,0,0,1,5.07,10.21c.18.52.38,1,.52,1.55A37.53,37.53,0,0,1,42,61.11a41.07,41.07,0,0,1,.37,4.1c0,.89.09,1.7.07,2.52-.06,1.14.06,2.59,0,3.81l.78.27Z" fill="#020202"/><path d="M48.14,72c.07-.68.11-1.4.13-1.72v-.11c0-.76,0-1.54,0-2.31l0-1.49c0-.43,0-.87,0-1.31a25.86,25.86,0,0,0-.3-2.76L48,62l-.15-1.09a19.6,19.6,0,0,0-.58-2.71c-.19-.78-.44-1.57-.71-2.72-.16-.71-.62-1.16-.74-1.92a8.72,8.72,0,0,0-.26-1.41,15.85,15.85,0,0,0-.77-1.48c-.16-.36-.29-.81-.46-1.19-.27-.61-.5-1.24-.77-1.87s-.58-1.26-.9-1.86a16.75,16.75,0,0,0-1.15-1.73c-.38-.57-.81-1.12-1.24-1.69a38.12,38.12,0,0,0-3.39-4.09c-.49-.52-1.39-1.31-1.87-1.71L32.87,34.8a5.53,5.53,0,0,0-1.29-.91,4.38,4.38,0,0,1-1.14-.82c-.14-.13-.41-.35-.66-.56l-.68.27-.22.89a6.91,6.91,0,0,1,.72.52,9.43,9.43,0,0,0,1,.71,7,7,0,0,1,1,.81L34.09,38c.8.76,1.67,1.58,2.51,2.51A33.75,33.75,0,0,1,41,46.42a28,28,0,0,1,1.47,2.67c.46,1.15.86,1.74,1.22,2.91s1,2.78,1.36,4a36,36,0,0,1,1.32,5.92,31.6,31.6,0,0,1,.15,3.76c0,.65.11,1.31.1,2s0,1,0,1.55h0l0,.59c0,.81.06,1.45,0,2.14l.77.29Z" fill="#020202"/><path d="M17.27,95.29,17,96a14.53,14.53,0,0,0-1,2.82l0,.11a5.26,5.26,0,0,1,.35-1.1C16.66,97,16.93,96.16,17.27,95.29Z" fill="#020202"/><path d="M21.76,100.18c.31-.7.77-1.93,1-2.56s.46-1.16.66-1.76C23,97.06,22.26,98.83,21.76,100.18Z" fill="#020202"/><path d="M20.22,99.53l.37-1C20.47,98.86,20.31,99.26,20.22,99.53Z" fill="#020202"/><path d="M26.5,99.12l-.06.13Z" fill="#020202"/><path d="M30.42,100.75a5.71,5.71,0,0,0,.35-.7l0-.12-.43.89Z" fill="#020202"/><path d="M34.79,101.6a2,2,0,0,0,0-.29l0,.32Z" fill="#020202"/><path d="M38.92,102.51a1.28,1.28,0,0,0,.1-.28c-.05,0-.09,0-.11.09S38.94,102.46,38.92,102.51Z" fill="#020202"/><path d="M17.13,101l.07-.27c.17-.61.33-1.23.54-1.85l0-.09c.46-1.33.92-2.45,1.51-3.79l.55-1.36.42-1.07c.3-.71.65-1.37,1-2.05a16.76,16.76,0,0,0,.77-1.6c.35-1,.58-2,.92-3s.83-2.09,1.2-3.12A14.94,14.94,0,0,0,24.7,81c.3-1.24.81-2.09,1.05-3.31.12-.66.41-1.45.57-2.09.23-.92.44-1.84.59-2.75l.17-1.28c0-.43.07-.86.12-1.29l-.72-.22-.81.1h0a13.89,13.89,0,0,0-.39,1.36c-.11.58-.07,1.17-.16,1.81s-.31,1.09-.42,1.75-.43,1.11-.56,1.71a10.56,10.56,0,0,1-.63,2,3.09,3.09,0,0,0-.42,1.42,3.5,3.5,0,0,1-.34,1.1c-.09.24-.5,1.28-.6,1.59-.2.72-.44,1.43-.71,2.15-.44,1.22-.93,2.46-1.43,3.71-.24.59-.57,1.2-.79,1.81,0,0-.23.59-.27.58-.13.38-.2.55-.28.76-.18.38-.38.88-.54,1.19a9.33,9.33,0,0,0-.42,1c-.15.38-.29.77-.44,1.16-.34.87-.61,1.75-1,2.52a5.26,5.26,0,0,0-.35,1.1c-.14.69-.22,1.4-.38,1.94l.6.27Z" fill="#020202"/><path d="M12.81,100.64a16.35,16.35,0,0,1,.95-3.21c.33-.82.67-1.8,1.05-2.65l.16-.36c.62-1.37,1.28-2.86,1.9-4.23.41-1,.62-2,.95-2.93.19-.55.49-1.05.66-1.59s.54-1.18.7-1.78.6-1.26.79-1.94c.28-1.08.8-2.1,1.07-3.13.35-1.41.68-2.75,1-4.07.15-.73.33-1.45.48-2.16s.34-1.39.42-2.11l.05-.54-.82-.2-.91.06,0,.52c-.06.49-.15,1-.22,1.46s-.18,1-.28,1.58c-.28,1.34-.67,2.73-1.06,4.18-.19.74-.45,1.44-.65,2.21-.32,1.14-1,2.22-1.44,3.4-.25.81-.44,1.44-.7,2.24S16,87,15.72,87.85,15.27,89.3,15,90c-.17.43-.5.82-.69,1.25L14,92l-.46,1.17c-.29.77-.63,1.54-.92,2.34L11.69,98a22.93,22.93,0,0,0-.64,2.5l.87.23Z" fill="#020202"/><path d="M21.37,101.3l0-.09.35-1c.5-1.35,1.19-3.12,1.69-4.32l.19-.44c.06-.13.15-.5.22-.75.18-.51.35-1,.57-1.5.4-.94.85-1.86,1.23-2.79.28-.66.47-1.35.73-2,.37-.9.79-1.77,1.13-2.67.59-1.53,1.09-3.07,1.57-4.61.27-.86.5-1.72.75-2.57s.43-1.52.59-2.29.29-1.49.41-2.24.17-1.42.26-2.12c0-.42.2-.83.28-1.24l-.82-.29-.84.15a28.31,28.31,0,0,1-.57,4.12c-.13.6-.46,1.17-.6,1.77s-.14,1.07-.27,1.6c-.18.68-.41,1.34-.63,2-.68,2.26-1.5,4.53-2.35,6.83-.36,1-.75,2-1.14,2.93-.63,1.6-1.45,3.17-2.19,4.79a2.76,2.76,0,0,0-.17.53c-.06.22-.11.45-.18.67A9.93,9.93,0,0,1,21.19,97a14.62,14.62,0,0,0-.51,1.38l-.09.25-.37,1c-.13.35-.26.7-.36,1l-.17.59.79.27Z" fill="#020202"/><path d="M25.5,101.62l0-.1c.21-.56.39-1.12.63-1.67l.27-.6.06-.13.07-.15c.29-.66.53-1.67.85-2.37a.56.56,0,0,0,0-.12c.23-.54.46-1.07.69-1.62.36-.8.63-1.63,1-2.43s.72-1.55,1-2.35c.44-1.07.8-2.17,1.2-3.26s.84-2,1.18-3.09.54-2,.79-3.06c.15-.6.35-1.19.5-1.79.29-1.12.53-2.26.76-3.4s.47-2.34.63-3.53c.05-.33.14-.65.19-1l-.83-.3-.84.16-.07.6c-.06.57-.12,1.14-.22,1.7a35.71,35.71,0,0,1-.73,3.65c-.21.88-.45,1.76-.69,2.64-.53,1.94-1.15,3.85-1.84,5.76-.14.4-.29.8-.42,1.22s-.23,1-.41,1.41c-.23.62-.55,1.2-.81,1.8-.85,2-1.23,3.46-2.11,5.41-.2.4-.46.94-.72,1.49s-.56,1.17-.73,1.61c-.11.29-.16.59-.27.87l-.11.33c-.3.72-.59,1.43-.84,2.17l.83.3Z" fill="#020202"/><path d="M30,102a2.57,2.57,0,0,1,.2-.65l.23-.49.43-.89.19-.39.21-.42.1-.21.13-.32c.08-.22.31-1,.64-1.76h0c.16-.32.33-.63.48-1s.34-1,.53-1.46c.63-1.59,1.26-3.16,1.88-4.73.3-.76.6-1.54.88-2.32.16-.45.44-.86.59-1.32.42-1.31.8-2.65,1.13-4,.35-1.52,1-2.79,1.25-4.36.23-1.24.51-2.47.73-3.77a14.7,14.7,0,0,0,.1-2.59L38.92,71l-.79.19A12.69,12.69,0,0,1,38,73.53c-.15.72-.37,1.43-.47,2.13A40.21,40.21,0,0,1,36,82c-.3,1-.7,2-1,3-.67,1.83-1.38,3.6-2,5.42-.2.6-.46,1.17-.69,1.75-.47,1.21-.9,2.43-1.42,3.6s-1.24,2.58-1.67,3.42a14.31,14.31,0,0,0-.48,1.49h0a6.24,6.24,0,0,0-.38,1.18l.78.2Z" fill="#020202"/><path d="M34.45,102.31h0a2.4,2.4,0,0,0,.32-.64v0l0-.32a1.46,1.46,0,0,1,.1-.34c0-.14,0-.36.07-.5l.3-.92.4-1c.56-1.44,1.66-3.58,2.26-5.1.87-2.19,1.24-3.58,2-5.9.23-.66.58-1.21.82-1.86.31-.9.47-1.85.77-2.77s.77-2.13,1-3.15.33-1.7.51-2.69L43.51,75c.25-1.09.28-2.2.43-3.31L43.28,71l-.87.53c0,.2,0,.4,0,.57-.18,1.35-.34,2.32-.62,3.63-.18.75-.15,1.56-.36,2.3-.52,2-.85,3.61-1.51,5.48-1.13,3.14-2.11,5.92-3.25,8.82-.17.42-.28.86-.43,1.28l-1.11,2.92c-.42,1.12-.94,2-1.36,3.08l-.44,1.09a7.26,7.26,0,0,0-.45,1.48l.82.13Z" fill="#020202"/><path d="M38.85,102.65l.07-.13h0c0-.05,0-.13,0-.19s.06-.06.11-.09l0,0h0l0,0,0-.1a16.67,16.67,0,0,0,.69-1.87l.07-.2.3-.73c.64-1.53.7-2.25,1.38-3.82.22-.5.11-1,.42-1.46a9,9,0,0,0,.57-.89,8.28,8.28,0,0,0,.26-1.2c.08-.29.27-.57.38-.86.36-.89.86-1.81,1.21-2.74s.53-1.93.87-2.93q.63-1.84,1.2-3.78c.17-.51.38-1.5.49-2s.42-2,.56-2.58c.41-1.89,0-1.73.41-3.66,0-.25.12-.75.18-1.27l-.59-.62-.88.5a12.26,12.26,0,0,1-.1,1.25,28.15,28.15,0,0,1-.42,3.06c-.25.87-.62,2.36-.86,3.21l-.75,2.81c-.52,1.82-1,3.63-1.65,5.33-.26.75-.41,1.48-.72,2.18-.39.85-.48,1.38-.87,2.21a29.18,29.18,0,0,0-1.12,3c-.5,1.46-1,2.9-1.57,4.26-.18.44-.4.87-.6,1.27l-.32.62c-.1.2-.23.48-.23.46s0,.22-.07.32-.08.15-.1.24h0a.18.18,0,0,0,0,.09c0,.13.05.24.05.34l.82.09Z" fill="#020202"/><path d="M27.46,129.55l.1.39a4.42,4.42,0,0,0,.5,1.5l0,.05a1.85,1.85,0,0,1-.22-.57A6.1,6.1,0,0,0,27.46,129.55Z" fill="#020202"/><path d="M33.87,130.2c-.11-.58-.44-1.55-.58-2.07a7.53,7.53,0,0,0-.51-1.37C33.14,127.69,33.54,129.13,33.87,130.2Z" fill="#020202"/><path d="M32.16,130.34l-.19-.68C32,129.86,32.1,130.15,32.16,130.34Z" fill="#020202"/><path d="M37.24,127.36l0,.15Z" fill="#020202"/><path d="M41.57,127.05c-.1-.4-.16-.82-.29-1.21l-.07-.19.39,1.54Z" fill="#020202"/><path d="M45.75,125.78c-.08-.23-.19-.52-.32-.82l.34.91Z" fill="#020202"/><path d="M50,125.4c-.26-.9-.61-2.07-1-3.3.12.44.21.88.33,1.31C49.5,124.08,49.78,124.73,50,125.4Z" fill="#020202"/><path d="M30,132.14l0-.17a10.8,10.8,0,0,0-.32-1.11v-.06c-.28-.78-.43-1.48-.68-2.29-.21-.62-.47-1.22-.68-1.83s-.44-1.21-.64-1.85a6.81,6.81,0,0,0-.54-1.43c-.46-.78-1-1.54-1.46-2.26-.26-.42-.51-.84-.74-1.27s-.53-.82-.8-1.22a7.74,7.74,0,0,0-1-1.32c-.1-.1-.19-.21-.28-.31l-.39-.49-.87-1.11c-.56-.74-1.12-1.46-1.78-2.27a15,15,0,0,1-1.82-3.07,13.24,13.24,0,0,1-1.2-4.2l0-.39a14.35,14.35,0,0,1,.42-4.52l-.68-.35-.88.23v0a13.21,13.21,0,0,0-.67,2.74A11.47,11.47,0,0,0,15,106.1c.06.35.15.7.21,1.05a13.52,13.52,0,0,0,1,3.21,20.5,20.5,0,0,0,1.49,3c.73,1.07,1.62,2.08,2.39,3.16.33.46.58.79.81,1.1l.39.46a2.17,2.17,0,0,0,.3.23,2.06,2.06,0,0,1,.63.77c.12.18.62,1,.79,1.21a12.13,12.13,0,0,1,1.08,1.57c.61.9,1.05,1.94,1.58,2.91.21.48.37,1,.61,1.52,0,0,.21.47.18.49a4.29,4.29,0,0,1,.27.61c.1.34.26.75.32,1a11.12,11.12,0,0,0,.42,1.17,6.1,6.1,0,0,1,.41,1.37,1.85,1.85,0,0,0,.22.57,3.25,3.25,0,0,1,.42,1l.65,0Z" fill="#020202"/><path d="M25.87,133.19c-.13-.52-.27-1-.4-1.52s-.21-.85-.32-1.25l0-.17c-.26-.91-.52-1.9-.86-2.76a15.83,15.83,0,0,0-1.18-2.09c-.24-.39-.35-.82-.59-1.21a11.09,11.09,0,0,0-.74-1.31c-.35-.45-.45-1-.84-1.44a8,8,0,0,1-.78-1.12c-.12-.19-.26-.36-.4-.54l-.7-.87a28.71,28.71,0,0,1-5.21-7.22A15.4,15.4,0,0,1,12.45,107c0-.19-.06-.38-.08-.58a18.47,18.47,0,0,1,.21-4.52c.07-.43.14-.85.23-1.28l-.77-.41-1,.27c-.09.47-.16,1-.23,1.41a18.33,18.33,0,0,0-.09,4.74,21.52,21.52,0,0,0,.67,3.19,23.1,23.1,0,0,0,5.06,8.73c.59.67,1.18,1.33,1.66,2,.22.27.4.47.63.71.55.75.9,1.67,1.39,2.48.35.52.69.88,1,1.46s.53,1.26.79,1.84.57,1,.79,1.5c.13.33.1.72.2,1.05.22.65.5,1.23.67,1.92s.43,1.37.59,2.1l.87-.15Z" fill="#020202"/><path d="M34.07,131.12v-.07l-.19-.85c-.33-1.07-.73-2.51-1.09-3.44l-.13-.39c0-.13-.22-.44-.33-.66l-.59-1.38c-.38-.87-.63-1.8-1.08-2.64-.3-.6-.67-1.16-1-1.76l-1.3-2.4-1.32-1.92a10,10,0,0,0-.7-.91l-.86-1.07c-.73-.89-1.5-1.75-2.18-2.65a16.36,16.36,0,0,1-1.59-2.54,9.26,9.26,0,0,1-.92-2.76c0-.11,0-.22-.05-.33a8.74,8.74,0,0,1,.07-2.45,11.11,11.11,0,0,1,.53-1.6l-.76-.35-.92.22a12.44,12.44,0,0,0-.44,4.38,11.26,11.26,0,0,0,.3,1.62,11.5,11.5,0,0,0,.81,2.51,13.81,13.81,0,0,0,1.36,1.88c.6.8,1.2,1.61,1.86,2.39l.81,1,.63.79a14.61,14.61,0,0,1,1,1.35l.95,1.37.87,1.44c.52.79.91,1.67,1.36,2.51a16.36,16.36,0,0,1,.9,2.2c.29.73.51,1.51.74,2.27a5.67,5.67,0,0,0,.45.84,3.47,3.47,0,0,1,.31.81,10,10,0,0,0,.33,1l0,.18.19.68c.08.25.13.51.19.76l.11.43.85-.06Z" fill="#020202"/><path d="M38,130.13l0-.11c-.13-.62-.34-1.22-.51-1.84l-.18-.67,0-.15-.05-.17c-.17-.74-.71-1.76-.95-2.48a.61.61,0,0,0-.05-.12c-.2-.55-.38-1.11-.61-1.67-.33-.82-.72-1.61-1.08-2.42s-.7-1.58-1.08-2.36c-.58-1-1.21-2-1.83-3s-1.15-1.91-1.86-2.77-1.33-1.54-2.05-2.28c-.4-.43-.76-.89-1.13-1.35a8.48,8.48,0,0,1-1.61-2.89,5.71,5.71,0,0,1-.16-1,6.57,6.57,0,0,1,.34-2.32,8.81,8.81,0,0,1,.38-.89l-.81-.29-.92.16-.2.62a10,10,0,0,0-.36,1.81,7,7,0,0,0,0,1.12,7.17,7.17,0,0,0,.84,2.74,14.22,14.22,0,0,0,1.66,2.42c.7.82,1.42,1.65,2.08,2.51l.94,1.18.85,1.23c.24.35.48.7.74,1s.59.77.84,1.19a17.64,17.64,0,0,1,.87,1.74c.43,1,.9,1.72,1.3,2.53a27.08,27.08,0,0,1,1.15,2.61c.25.84.67,2.29.92,3.13.09.27.24.52.32.79a2.83,2.83,0,0,0,.11.31c.21.69.4,1.39.55,2.09l.93,0Z" fill="#020202"/><path d="M42.12,129.09a7.48,7.48,0,0,1-.3-1.07l-.22-.83-.39-1.54L41,125a14.24,14.24,0,0,0-.47-1.44c-.1-.25-.47-1.08-.79-1.91h0c-.12-.37-.24-.74-.38-1.11s-.49-1-.72-1.52c-.85-1.65-1.63-3.3-2.59-4.88a22.43,22.43,0,0,0-1.42-2.26c-.29-.42-.48-.91-.78-1.33s-.45-.58-.68-.86l-.63-.74c-.3-.33-.58-.66-.91-1a9.82,9.82,0,0,1-1.51-2.28,3.16,3.16,0,0,1-.42-1.46,3.8,3.8,0,0,1,.06-.75c.08-.47.07-1,.16-1.48l-.73-.21-.87.09-.33,1.6a5.64,5.64,0,0,0-.15,1A1.77,1.77,0,0,0,28,105a11.67,11.67,0,0,0,2.6,3.93c.25.3.46.61.69.93l.41.58.49.65c.59.83,1.12,1.69,1.7,2.52s1,1.72,1.61,2.56a17.26,17.26,0,0,1,.93,1.75c.31.62.66,1.21.94,1.83s.56,1.25.82,1.89a19.26,19.26,0,0,1,.68,2.07c.2.71.42,1.4.59,2.1s.51,1.35.72,2h0c.15.53.31,1.08.5,1.63l.82,0Z" fill="#020202"/><path d="M46.29,128v0a11.86,11.86,0,0,0-.48-2l0-.1-.34-.91c-.12-.34-.25-.68-.35-1s-.45-.91-.58-1.35L44,121.52l-.42-1.15c-.37-.84-.78-1.92-1.2-3s-.94-2.14-1.36-3a49.3,49.3,0,0,0-3.87-5.92c-.43-.65-.75-1.27-1.2-1.89a3,3,0,0,0-.42-.44,2.44,2.44,0,0,1-.35-.37c-.2-.3-.34-.67-.54-1a2.54,2.54,0,0,1-.45-.8,1.41,1.41,0,0,1-.07-.41,1.43,1.43,0,0,1,0-.29,4.52,4.52,0,0,1,.27-1l-.67-.26c-.31,0-.62.08-.94.14a1.8,1.8,0,0,1-.06.22,3.94,3.94,0,0,0-.34,1.43v.07c0,.34.27.63.37.93a9.49,9.49,0,0,0,1.4,2l.3.47.61.82c.54.68,1,1.4,1.47,2.1,1,1.39,1.81,2.85,2.7,4.37l.75,1.31c.57,1,1.12,2.11,1.58,3.18.28.62.51,1.22.73,1.81s.37,1.19.6,1.82c.3.79.55,1.51.76,2.25.23,1.05.83,2.31,1.1,3.42h.82Z" fill="#020202"/><path d="M50.37,127c-.13-.6-.27-1.23-.36-1.51l0-.1c-.2-.67-.48-1.32-.68-2-.12-.43-.21-.87-.33-1.31s-.22-.77-.34-1.15a24.65,24.65,0,0,0-.94-2.33l-.12-.25-.38-.91c-.41-1-.74-1.61-1.08-2.25s-.74-1.28-1.19-2.22c-.28-.59-.73-.9-1-1.53a10,10,0,0,0-.45-1.19,11.2,11.2,0,0,0-.89-1.14c-.19-.3-.34-.67-.54-1-.63-1-1.15-2-1.8-3-.18-.24-.36-.47-.55-.69l-.28-.33a1.43,1.43,0,0,0-.22-.24c-.09-.06-.12-.08-.15-.13a1.61,1.61,0,0,1-.1-.36s-.06-.12-.09-.16a.24.24,0,0,1,0-.22l0,0c0-.12-.28-.11-.09-.26l.08-.1-.63-.11h-.91a.28.28,0,0,1,0,.19c-.09.15,0,.32-.06.48v0a.77.77,0,0,0-.06.57,1.33,1.33,0,0,0,.23.46c.11.15.23.28.35.42l.19.23.86,1.1a26,26,0,0,1,1.53,2.13,26.6,26.6,0,0,1,1.45,2.35c.51,1,1.36,2.26,1.88,3.26.44.81.91,1.62,1.31,2.44s.77,1.66,1.13,2.5c.46,1.07.68,2.19,1,3.28.2.57.44,1.12.61,1.69l.41,1.36h0c0,.18.09.35.15.52.28.71.47,1.25.66,1.84h.82Z" fill="#020202"/><path d="M30.28,158.44l0,.45a6.27,6.27,0,0,0,0,1.83v.07a2.43,2.43,0,0,1,0-.71A8.05,8.05,0,0,0,30.28,158.44Z" fill="#020202"/><path d="M36.12,161.35c.08-.62.1-1.7.14-2.25s0-1,0-1.54C36.21,158.62,36.16,160.17,36.12,161.35Z" fill="#020202"/><path d="M34.46,160.94l0-.76C34.49,160.4,34.47,160.73,34.46,160.94Z" fill="#020202"/><path d="M40.24,159.68v0Z" fill="#020202"/><path d="M44.44,160.75c0-.38.11-.78.11-1.16v-.19l-.13,1.48Z" fill="#020202"/><path d="M48.8,160.88c0-.22,0-.49,0-.78l0,.86Z" fill="#020202"/><path d="M52.94,161.73c0-.79.07-1.81.09-2.92,0,.39-.08.77-.1,1.15C52.9,160.55,53,161.14,52.94,161.73Z" fill="#020202"/><path d="M31.87,162.13v-.2c0-.42,0-.86,0-1.29v-.06c0-.94.08-1.73.13-2.67,0-.73,0-1.49,0-2.2s.09-1.44.16-2.18a12.25,12.25,0,0,0,.09-1.71c0-1-.22-2-.29-3l-.12-3.32a14.76,14.76,0,0,0-.2-1.89c-.21-1.28-.07-2.28-.33-3.54-.12-.68-.17-1.56-.26-2.24-.13-1-.28-2-.48-2.93s-.43-1.83-.64-2.74h-.77l-.73.37h0c.06.52,0,1.06.13,1.57s.35,1.28.51,1.93.12,1.2.27,1.9.05,1.24.14,1.89A14.92,14.92,0,0,1,29.8,142a3,3,0,0,0,.15,1.51,3.8,3.8,0,0,1,.13,1.16c0,.25,0,1.39.07,1.71.1.74.16,1.48.19,2.23.08,1.28.1,2.57.11,3.86,0,.61-.06,1.28,0,1.89,0,0,0,.59,0,.6,0,.38,0,.55,0,.76,0,.39,0,.91-.07,1.24a8.63,8.63,0,0,0,0,1.45,8.05,8.05,0,0,1-.06,1.64,2.43,2.43,0,0,0,0,.71,5.24,5.24,0,0,1,.11,1.26l.63.18Z" fill="#020202"/><path d="M27.61,161.92c0-.63,0-1.25.09-1.87s.09-1.06.11-1.56l0-.21c.1-1.14.21-2.38.23-3.47a27.68,27.68,0,0,0-.23-2.89c0-.56.06-1.1,0-1.66s0-1.24-.06-1.86.06-1.37,0-2.06c-.15-1.12-.09-2.26-.25-3.36-.09-.75-.24-1.46-.34-2.19s-.22-1.45-.36-2.16l-.37-2.38c-.13-.83-.21-1.67-.4-2.46l-.15-.6-.85,0-.83.38.14.61c.27,1.12.46,2.33.7,3.5l.35,2.28c.09.77.19,1.55.31,2.32s.13,1.57.26,2.38c.16,1.19-.09,2.47,0,3.68.06.81.16,1.44.23,2.26s-.12,1.75-.07,2.54.11,1.41.11,2.12c0,.42-.16.85-.19,1.3-.06.87,0,1.66-.05,2.53s-.08,1.8-.12,2.71l.88.12Z" fill="#020202"/><path d="M36.05,162.33l0-.08,0-.9c0-1.18.09-2.73.13-3.79l0-.43c0-.14,0-.52-.06-.76,0-.53-.05-1.05,0-1.58,0-1,.1-2,.09-3,0-.71-.07-1.41-.1-2.11,0-1,0-1.93,0-2.88L36,144.36l-.22-2.42c-.08-.9-.22-1.8-.31-2.69s-.2-1.59-.31-2.39-.27-1.53-.45-2.28-.31-1.46-.5-2.16c-.1-.42-.09-.87-.16-1.3l-.87,0-.74.43a42.81,42.81,0,0,1,.93,4.25c.1.64,0,1.3.09,1.94s.3,1.06.37,1.61c.1.72.12,1.44.21,2.16.23,2.38.41,4.8.51,7.23,0,1,.07,2.05.08,3.09.05,1.69-.15,3.4-.25,5.12a7.33,7.33,0,0,0,.1,1,4.13,4.13,0,0,1,0,.93c0,.46,0,.67,0,1.1v.2l0,.76,0,.84,0,.47.82.21Z" fill="#020202"/><path d="M40.1,162.52v-.11c0-.63,0-1.26.07-1.88l0-.7v-.32c0-.75-.08-1.88,0-2.63a.48.48,0,0,0,0-.12l.05-1.77c0-.87,0-1.75,0-2.63s.08-1.71.05-2.57c0-1.16-.1-2.31-.17-3.47s0-2.21-.15-3.31-.28-2.08-.45-3.12c-.1-.61-.14-1.22-.21-1.83l-.55-3.44c-.23-1.16-.37-2.35-.64-3.51-.06-.32-.09-.65-.15-1l-.88,0-.75.43.14.6c.13.56.29,1.11.38,1.68.22,1.23.48,2.45.62,3.7.12.9.27,1.81.36,2.72q.38,3,.55,6c0,.43.05.86.1,1.28a14.74,14.74,0,0,1,.18,1.47c0,.65,0,1.31,0,2,0,2.12.2,3.65.09,5.77,0,.89-.24,2.41-.25,3.3,0,.29.06.58.05.86,0,.11,0,.22,0,.34l-.11,2.18.88.29Z" fill="#020202"/><path d="M44.35,162.73a6,6,0,0,1,0-1l.06-.81.13-1.48.05-.67c0-.49.08-.92.08-1.41,0-.25-.06-1.1,0-1.94h0c0-.36.08-.73.1-1.09,0-.53,0-1.06-.06-1.59,0-1.74-.06-3.45-.09-5.16,0-.82-.07-1.65-.11-2.49,0-.47.07-1,0-1.44-.15-1.36-.28-2.73-.53-4.09-.24-1.51-.17-2.89-.46-4.41-.21-1.21-.45-2.43-.63-3.65a16.25,16.25,0,0,0-.76-2.37l-.79-.05-.69.42a13.37,13.37,0,0,1,.6,2.2,18.29,18.29,0,0,0,.29,2.1,47,47,0,0,1,1,6.34c.14,1,.1,2.08.18,3.11.11,1.94.17,3.85.32,5.77.06.63,0,1.27,0,1.9,0,1.31.12,2.62.05,3.92s-.21,2.78-.34,4.16c-.06.68.05,1.38,0,2.06h0a14.89,14.89,0,0,0,0,1.64l.79.24Z" fill="#020202"/><path d="M48.65,162.94v0a13,13,0,0,0,.15-1.86V161l0-.86c0-.32,0-.64,0-1s-.11-.9-.08-1.3c0,0,0-.8,0-1v-1.11c0-1.64.2-4.13.17-5.79,0-2.42-.28-3.85-.45-6.28-.06-.7.06-1.32,0-2,0-.92-.29-1.85-.36-2.79a31.17,31.17,0,0,0-.25-3.18c-.17-.94-.3-1.63-.48-2.57-.13-.67-.26-1.34-.35-2-.11-1-.47-2-.66-3l-.82-.38-.66.75c0,.18.1.36.13.52.26,1.26.44,2.14.61,3.4.1.73.42,1.44.48,2.17.1,1,.25,1.87.38,2.75s.22,1.77.28,2.74c.14,3.26.39,6.19.46,9.36,0,.46.08.91.1,1.37l.09,3.23c0,1.23-.12,2.31-.15,3.51l-.06,2.15c-.12,1,0,2.21,0,3.25l.79.21Z" fill="#020202"/><path d="M52.85,163.14c0-.52.07-1.07.09-1.32v-.09c0-.59,0-1.18,0-1.77,0-.38.06-.76.1-1.15s.08-.67.09-1a17.37,17.37,0,0,0,0-2.16v-1.08c0-1.76-.22-2.5-.18-4.28,0-.56-.28-1-.19-1.55a7.71,7.71,0,0,0,.18-1.07,7.29,7.29,0,0,0-.23-1.22c0-.3,0-.64,0-.94,0-1,.1-2,0-3s-.26-1.95-.33-3l-.31-3.79c0-.51-.21-1.46-.3-2l-.39-2.44c-.24-1.76-.51-1.45-.78-3.23,0-.22-.13-.67-.24-1.14l-.73-.35-.69.71a8.9,8.9,0,0,1,.29,1.11,22.34,22.34,0,0,1,.59,2.74c.07.85.25,2.28.33,3.12l.33,2.74.32,2.71c.09.9.15,1.79.22,2.69a21.71,21.71,0,0,1,.18,2.26c0,.94.12,1.46.08,2.39a29.34,29.34,0,0,0,.14,3.25c.09,1.6.18,3.2.15,4.78,0,1-.16,2-.23,3,0,.51,0,1,0,1.56l-.06,1.22h0c0,.15,0,.31,0,.46,0,.65.07,1.15.1,1.69l.78.22Z" fill="#020202"/><path d="M29.59,191.76l0,.51a6.56,6.56,0,0,0,.22,2.06l0,.08a3.67,3.67,0,0,1-.13-.81A13.16,13.16,0,0,0,29.59,191.76Z" fill="#020202"/><path d="M35.76,194.15c0-.66-.15-1.77-.16-2.36s-.1-1.06-.17-1.6C35.5,191.3,35.63,192.91,35.76,194.15Z" fill="#020202"/><path d="M34.06,194l-.07-.81C34,193.38,34,193.73,34.06,194Z" fill="#020202"/><path d="M39.62,191.92v0Z" fill="#020202"/><path d="M43.92,192.42c0-.35,0-.73,0-1.08l0-.18c0,.47,0,.93.05,1.39Z" fill="#020202"/><path d="M48.26,192l-.13-.67c0,.25.09.5.13.74Z" fill="#020202"/><path d="M52.46,192.17c-.07-.63-.13-1.48-.2-2.38,0,.32,0,.63,0,1C52.27,191.23,52.41,191.7,52.46,192.17Z" fill="#020202"/><path d="M31.68,195.63l0-.21c0-.47-.1-.95-.17-1.43v-.06c-.15-1-.15-1.91-.21-3-.05-.82-.13-1.63-.15-2.44s0-1.62,0-2.44a17.54,17.54,0,0,0,.08-1.91c-.07-1.13-.2-2.24-.24-3.37s.08-2.47.11-3.7c0-.7.05-1.41,0-2.11-.06-1.45.25-2.52.21-3.95,0-.76.13-1.73.18-2.49l.22-3.3.13-3.13-.73-.24-.8.16v0a17.82,17.82,0,0,0-.34,1.77c-.05.75,0,1.51,0,2.28s-.17,1.36-.18,2.18-.23,1.41-.25,2.15a18,18,0,0,1-.15,2.54,3.71,3.71,0,0,0-.05,1.72,5.47,5.47,0,0,1,0,1.34c0,.28-.11,1.57-.09,1.95,0,.85,0,1.69,0,2.55,0,1.47,0,2.93.05,4.42,0,.7-.05,1.46,0,2.16,0,0,0,.68,0,.69,0,.44.06.64.07.88,0,.46,0,1,0,1.41a12,12,0,0,0,.13,1.65,13.16,13.16,0,0,1,.13,1.84,3.67,3.67,0,0,0,.13.81,6.12,6.12,0,0,1,.3,1.39l.65.1Z" fill="#020202"/><path d="M27.44,196.1c-.08-.73-.17-1.46-.21-2.19l-.1-1.81v-.25c0-1.34-.05-2.78-.08-4.11-.05-1.16-.24-2.28-.31-3.43,0-.67,0-1.31,0-2s.07-1.49,0-2.22.16-1.61.11-2.44c-.06-1.33.16-2.67.14-4,0-1.76,0-3.5.1-5.22,0-1,.1-1.91.18-2.86l.29-3,0-.75-.82-.24-.91.16,0,.77c-.11,1.44-.18,2.9-.26,4.38-.1,1.86-.22,3.74-.26,5.66,0,1-.08,1.9-.06,2.89,0,1.44-.33,3-.3,4.46,0,1,.09,1.77.14,2.76s-.11,2.14-.05,3.1.18,1.72.22,2.58c0,.53-.1,1.06-.1,1.59,0,1,.18,2,.24,3s.2,2.15.31,3.23h.89Z" fill="#020202"/><path d="M35.84,195.17v-.08l-.09-.94c-.13-1.24-.26-2.85-.33-4l0-.45c0-.15-.08-.53-.12-.79-.05-.55-.1-1.1-.12-1.65,0-1.06,0-2.11,0-3.16,0-.74-.08-1.47-.07-2.21,0-1,.1-2,.14-3l.15-5.12.12-2.83.17-2.52.09-2.43c0-.77,0-1.56.07-2.32,0-.46.16-.91.21-1.36l-.82-.28-.83.2c-.07,1.56-.11,3.1-.24,4.67,0,.69-.27,1.36-.32,2.05s.06,1.18,0,1.78c0,.76-.12,1.54-.15,2.31-.12,2.56-.2,5.17-.2,7.77,0,1.11,0,2.21,0,3.33,0,1.81,0,3.68,0,5.52a8.71,8.71,0,0,0,.21,1.09,5.58,5.58,0,0,1,.12,1c0,.5.09.71.12,1.17l0,.22.07.81.08.9.06.49.84.09Z" fill="#020202"/><path d="M39.87,194.72v-.11c-.06-.62-.17-1.23-.21-1.85,0-.23,0-.46,0-.69v-.32c0-.74-.27-1.84-.29-2.58a.53.53,0,0,0,0-.13l-.06-1.75c0-.86-.08-1.73-.09-2.6s.07-1.7.08-2.54c0-1.15,0-2.3,0-3.45s.15-2.18.18-3.27,0-2.09,0-3.13c0-.61.06-1.22.09-1.83l.19-3.45L40,163.5c0-.33.1-.65.14-1l-.84-.27-.84.19,0,.62-.1,1.74L38,168.59l-.17,2.78c-.11,2-.19,4.09-.25,6.14,0,.43,0,.87,0,1.31s.1,1,.09,1.49c0,.66-.09,1.33-.12,2-.07,2.15.17,3.7.21,5.85,0,.9-.05,2.45,0,3.35,0,.29.11.58.13.87,0,.11,0,.22.05.33l.21,2.21.91.14Z" fill="#020202"/><path d="M44.1,194.25a6.54,6.54,0,0,1-.14-1l0-.74c0-.46,0-.92-.05-1.39l0-.62a11.65,11.65,0,0,0-.05-1.32c0-.22-.14-1-.15-1.79h0c0-.33,0-.67,0-1s-.07-1-.09-1.46c-.08-1.61,0-3.21,0-4.8,0-.78,0-1.55.07-2.33,0-.44.15-.89.15-1.33l0-3.86c0-1.43.33-2.69.36-4.13,0-1.16.13-2.3.23-3.46a16.58,16.58,0,0,0-.07-2.32l-.74-.27-.79.2a13,13,0,0,1,0,2.17,17.26,17.26,0,0,0-.23,2c0,2.12-.15,4-.24,6.13,0,1-.18,2-.23,3a50.77,50.77,0,0,0-.11,5.51c0,.6,0,1.21,0,1.81,0,1.24.11,2.49.13,3.72s-.06,2.65,0,4a17.75,17.75,0,0,0,.27,1.94h0a12.15,12.15,0,0,0,.22,1.54l.81.11Z" fill="#020202"/><path d="M48.38,193.78v0a9.78,9.78,0,0,0-.09-1.63l0-.07c0-.24-.09-.49-.13-.74s-.08-.56-.1-.83-.19-.77-.2-1.13c0,0-.1-.69-.12-.9l0-1c-.12-1.42.06-3.59.06-5.06,0-2.11-.11-3.39-.07-5.55,0-.62.21-1.15.25-1.75.06-.83,0-1.68,0-2.5s.28-1.93.32-2.82,0-1.48.06-2.33c0-.6.07-1.2.14-1.8.12-.92.08-1.83.18-2.74L48,162.4l-.84.46c0,.17,0,.34,0,.49-.11,1.15-.18,2-.29,3.11-.08.66,0,1.35,0,2-.19,1.76-.16,3.24-.34,5a78.11,78.11,0,0,0-.36,8.45c0,.41.05.82.07,1.23l.12,2.88c.07,1.1,0,2,0,3.13,0,.68.1,1.29.14,1.92a23.14,23.14,0,0,0,.4,2.88l.81.05Z" fill="#020202"/><path d="M52.56,193.31l-.08-1.07,0-.07c-.05-.47-.19-.94-.21-1.43,0-.32,0-.63,0-1s0-.55,0-.82c0-.58-.08-1.17-.16-1.75l0-.19,0-.68c0-1.46-.27-2-.22-3.51,0-.47-.26-.81-.15-1.29a5.25,5.25,0,0,0,.21-.87,6.08,6.08,0,0,0-.16-1,6.87,6.87,0,0,1,.08-.78c0-.8.24-1.66.3-2.48s0-1.65,0-2.5c.09-1.06.19-2.12.31-3.2,0-.42.08-1.23.1-1.66s.09-1.6.16-2.09c.19-1.47-.19-1.32,0-2.81,0-.19.06-.58.09-1l-.6-.47-.86.4a8.53,8.53,0,0,1,0,1c-.08.76,0,1.67-.12,2.41s-.3,1.95-.38,2.68-.14,1.58-.19,2.37l-.23,4.65c0,.66,0,1.31,0,2s0,1.24-.09,2a16.82,16.82,0,0,0,0,2.75c.09,1.35.17,2.69.23,4,0,.83-.07,1.68,0,2.5,0,.43.1.86.15,1.3s0,.69.07,1h0a2.58,2.58,0,0,0,0,.39c.11.53.23.93.31,1.37l.8.07Z" fill="#020202"/><polygon points="36.58 200.66 36.58 200.64 36.58 200.68 36.58 200.66" fill="#020202"/><path d="M39,200.7c.06.34.1.67.17,1,0-.19-.07-.38-.1-.57Z" fill="#020202"/><path d="M32.77,204.37a5,5,0,0,0-.05-1.84c0-.34-.11-.68-.18-1-.12-.82-.28-1.63-.38-2.44-.15-1.15-.38-2.29-.48-3.44l-1.53.17v0c0,.48,0,1,0,1.46l0,.33a5.14,5.14,0,0,0,.08,1c.12.92.25,1.84.4,2.76s.27,1.85.5,2.77c.05.23.35.58.52.58C32.06,204.69,32.71,204.61,32.77,204.37Z" fill="#020202"/><path d="M28.45,205.73c.58-.64.14-1.46.19-2.24a10.09,10.09,0,0,0-.29-2.27c-.21-1.17-.61-2.4-.74-3.57l-.07-.68-.1-.87-1.72.2.1.91c.14,1.21.29,2.4.48,3.61h0c.22,1.23.43,2.45.73,3.68a4.68,4.68,0,0,0,.37,1C27.67,206,28,206.22,28.45,205.73Z" fill="#020202"/><path d="M36.82,202.37c-.13-.63-.1-1-.22-1.56h0l0-.12v0L36.26,199c-.13-.79-.28-1.6-.39-2.4a13.78,13.78,0,0,1,0-1.44l-1.64.18c0,.31.06.62.11.93h0c.13,1.4.32,3.37.59,4.73a16.91,16.91,0,0,1,.32,2.2.73.73,0,0,0,.41.74,6.41,6.41,0,0,1,.8.25C37.16,204.34,37,203.27,36.82,202.37Z" fill="#020202"/><path d="M41,203.32c.19-.32,0-1,0-1.35-.12-.9-.41-1.38-.5-2.29a18,18,0,0,0-.38-3.05c0-.15-.19-.75-.26-1.16v-.75l-1.67.19.06.62.22,1.76c.13,1.14.34,2.27.51,3.41l.07.4c0,.19.06.38.1.57v.05h0l0,.11a4.46,4.46,0,0,0,.6,1.4A.73.73,0,0,0,41,203.32Z" fill="#020202"/><path d="M45.13,202.37a3.44,3.44,0,0,0,0-1.28c-.08-.59-.06-1.14-.18-1.73l-.06-.22c0-.09,0-.16,0-.16a22.62,22.62,0,0,1-.36-2.62c-.06-.68-.33-1.39-.46-2.11l-1.52.17.12.69c0,.4,0,1.4,0,1.78.09.73.24,1.44.38,2.15s.24,1.42.36,2.13c.18,1.18.07,1.24.89,1.47C44.59,202.7,45.09,202.52,45.13,202.37Z" fill="#020202"/><path d="M49.54,200.75a5.62,5.62,0,0,0-.27-1.32c-.1-.44-.23-.88-.31-1.35s-.12-.65-.2-1a7.84,7.84,0,0,1-.11-1c0-.8-.26-1.56-.27-2.37l-1.53.17a3.15,3.15,0,0,1,0,.43c.09,1,.16,1.75.25,2.77a8.31,8.31,0,0,0,.3,1.29l.09.48c.11.75.48,1.32.28,2.11a1.1,1.1,0,0,0-.07.44c.07.38.77.37,1.07.46A1.33,1.33,0,0,0,49.54,200.75Z" fill="#020202"/><path d="M53.44,200.35a5.26,5.26,0,0,0,.1-.56,5,5,0,0,0-.17-.77c-.16-.67,0-.61-.15-1.29l-.06-.29c-.06-.39-.13-.83-.15-1.08-.06-1.22-.39-1-.41-2.24l0-.81-1.46.16c0,.25.08.52.11.82h0c.08.65,0,1.32.13,2,0,.35.12.7.19,1.05,0,.14.17.73.21.88.16.59-.14,1.27.15,1.79C52.1,200.37,53,200.73,53.44,200.35Z" fill="#020202"/></svg>