<svg xmlns="http://www.w3.org/2000/svg" viewBox="0 0 29.51 192.26"><path d="M3.49,19.24c-.16.26-.48.45-.44.79.1.64-.37.7-.74.77a1.92,1.92,0,0,1-2-.55c-.57-.66-.16-1,0-1.63.25-.87,1.17-1.68,2-1.36a1.9,1.9,0,0,1,.74.7c.13.18.34.32.42.52a1.39,1.39,0,0,1,.09.45A.63.63,0,0,1,3.49,19.24Z" transform="translate(0 -1.81)" fill="#020202"/><path d="M2.67,26.05c.19.08.83.12,1,.39A2.81,2.81,0,0,1,4,27a1.35,1.35,0,0,1,.18.48,1.33,1.33,0,0,1-.17.85,2.16,2.16,0,0,1-1.13,1c-.53.15-1.47.2-1.67-.12a2.83,2.83,0,0,1-.46-1.07,1.62,1.62,0,0,1,.13-.89A2.76,2.76,0,0,1,2.67,26.05Z" transform="translate(0 -1.81)" fill="#020202"/><path d="M8.84,2.86,9,2.74A11.45,11.45,0,0,0,9.91,2c.3-.23.44-.18.82,0A1.62,1.62,0,0,1,11.94,3a1.59,1.59,0,0,1-.06,1.45c-.29.87-1.23,1-2.41.6A.81.81,0,0,1,9,4.67c-.1-.33-.16-.69-.23-1S8.59,3.06,8.84,2.86Z" transform="translate(0 -1.81)" fill="#020202"/><path d="M6.5,12.22c-.55.54-2.35.47-2.61,0A2.7,2.7,0,0,1,3.62,10c.35-.6,1.44-.7,2.19-1A2.13,2.13,0,0,1,6.5,12.22Z" transform="translate(0 -1.81)" fill="#020202"/><path d="M21.47,46.47c.06.35-.07.71.18,1,.46.58,0,.9-.25,1.14a2,2,0,0,1-2,.48c-.74-.24-.62-.64-.79-1.19-.2-.75-.17-1.84.64-2.24a1.71,1.71,0,0,1,1,0,2.85,2.85,0,0,1,.71.12,1.13,1.13,0,0,1,.36.36A.62.62,0,0,1,21.47,46.47Z" transform="translate(0 -1.81)" fill="#020202"/><path d="M22.93,54.14c.18.11.82.25.94.6A1.78,1.78,0,0,1,23.72,57a1.92,1.92,0,0,1-1.43.48c-.54-.09-1.44-.35-1.51-.66C20.41,55.3,21,54.57,22.93,54.14Z" transform="translate(0 -1.81)" fill="#020202"/><path d="M7.15,36.2A.83.83,0,0,1,7,36c-.23-.37-.56-.57-.8-.9s-.19-.45,0-.84A1.61,1.61,0,0,1,7.28,33.1a1.63,1.63,0,0,1,1.43,0c.84.27,1,1.21.63,2.4A.83.83,0,0,1,9,36a9.64,9.64,0,0,1-1,.25C7.5,36.38,7.36,36.46,7.15,36.2Z" transform="translate(0 -1.81)" fill="#020202"/><path d="M16.53,39.23c.5.75-.18,2.48-.69,2.54a3,3,0,0,1-2.15-.26c-.44-.42-.34-1.45-.53-2.23A2,2,0,0,1,16.53,39.23Z" transform="translate(0 -1.81)" fill="#020202"/><path d="M19.26,82.25c-.21.26-.57.41-.59.77-.06.71-.57.65-1,.63a1.94,1.94,0,0,1-1.79-1.05c-.39-.71,0-.94.3-1.47.4-.72,1.3-1.43,2.12-1.06a1.77,1.77,0,0,1,.68.77,2.83,2.83,0,0,1,.38.59,1.16,1.16,0,0,1,0,.49A.77.77,0,0,1,19.26,82.25Z" transform="translate(0 -1.81)" fill="#020202"/><path d="M15.58,88.83c.1.18.55.63.49,1a1.69,1.69,0,0,1-2.66,1.53c-.45-.32-1.12-1-1-1.3C12.81,88.49,13.73,88.14,15.58,88.83Z" transform="translate(0 -1.81)" fill="#020202"/><path d="M20.69,64.89l.08-.18a7.15,7.15,0,0,0,.28-1.08c.11-.35.26-.38.66-.48a1.61,1.61,0,0,1,1.6.12c.45.26.59.49.79,1.26.26,1-.55,1.6-1.73,1.87a.85.85,0,0,1-.61-.09c-.26-.24-.5-.5-.74-.75S20.58,65.18,20.69,64.89Z" transform="translate(0 -1.81)" fill="#020202"/><path d="M22.16,74.44c-.43.72-2.21,1-2.54.59a2.81,2.81,0,0,1-.77-2.1c.18-.6,1.17-1,1.79-1.47A2.07,2.07,0,0,1,22.16,74.44Z" transform="translate(0 -1.81)" fill="#020202"/><path d="M23.26,112.48c.06.33-.08.7.16,1,.47.55.06.88-.22,1.13a2,2,0,0,1-2,.54c-.77-.22-.63-.67-.81-1.22a1.81,1.81,0,0,1,.65-2.25,1.73,1.73,0,0,1,1,0,2.71,2.71,0,0,1,.69.13,1.19,1.19,0,0,1,.37.34A.73.73,0,0,1,23.26,112.48Z" transform="translate(0 -1.81)" fill="#020202"/><path d="M25.13,119.93c.19.08.83.14,1,.47,1.32,2-.5,2.87-1.17,2.87s-1.48-.12-1.6-.42C22.79,121.4,23.25,120.59,25.13,119.93Z" transform="translate(0 -1.81)" fill="#020202"/><path d="M10.71,99.4a1.69,1.69,0,0,1,0-.25,12.64,12.64,0,0,1-.12-1.48c0-.47.18-.53.57-.69a1.62,1.62,0,0,1,1.62,0,2.13,2.13,0,0,1,1,.81c.45.48,0,1.16-.73,2.14a.8.8,0,0,1-.54.3A4.18,4.18,0,0,1,11.4,100C10.94,99.83,10.78,99.8,10.71,99.4Z" transform="translate(0 -1.81)" fill="#020202"/><path d="M19.08,105.07c.31.82-.58,2.38-1.1,2.39a2.78,2.78,0,0,1-2.1-.65c-.37-.5-.09-1.49-.12-2.29A2.07,2.07,0,0,1,19.08,105.07Z" transform="translate(0 -1.81)" fill="#020202"/><path d="M29.16,148c-.11.32-.39.58-.28.94.19.68-.32.8-.67.91a1.94,1.94,0,0,1-2.05-.36c-.6-.53-.31-.89-.22-1.48.12-.82.72-1.79,1.62-1.73a1.77,1.77,0,0,1,.9.48c.18.15.42.23.56.42a1.35,1.35,0,0,1,.17.46A.72.72,0,0,1,29.16,148Z" transform="translate(0 -1.81)" fill="#020202"/><path d="M28,155.45c.15.14.73.4.79.76.6,2.21-1.32,2.54-2,2.35s-1.38-.55-1.41-.89C25.27,156.07,26,155.43,28,155.45Z" transform="translate(0 -1.81)" fill="#020202"/><path d="M25,131c0-.06,0-.12,0-.2a8.52,8.52,0,0,0,0-1.13c0-.37.15-.44.52-.63a1.63,1.63,0,0,1,1.59-.26c.49.15.69.34,1.08,1,.48.83-.14,1.65-1.21,2.23a.81.81,0,0,1-.61.08c-.31-.16-.61-.35-.9-.53S24.94,131.3,25,131Z" transform="translate(0 -1.81)" fill="#020202"/><path d="M29.23,139.69c-.18.82-1.77,1.66-2.21,1.4-.64-.38-1.4-1.14-1.42-1.73s.78-1.31,1.23-2A2.08,2.08,0,0,1,29.23,139.69Z" transform="translate(0 -1.81)" fill="#020202"/><path d="M28.33,183.37c-.08.32-.34.6-.2.94.26.64-.23.81-.57,1a1.93,1.93,0,0,1-2.08-.12c-.65-.47-.4-.87-.36-1.48.05-.85.57-1.88,1.47-1.87a1.81,1.81,0,0,1,.94.42,3.25,3.25,0,0,1,.59.37,1.15,1.15,0,0,1,.21.43A.69.69,0,0,1,28.33,183.37Z" transform="translate(0 -1.81)" fill="#020202"/><path d="M28.23,190.78c.18.1.81.24.95.56a1.71,1.71,0,0,1-1.41,2.73c-.56,0-1.47-.2-1.57-.53C25.72,192,26.29,191.16,28.23,190.78Z" transform="translate(0 -1.81)" fill="#020202"/><path d="M25,166.18A1.14,1.14,0,0,1,25,166a9.59,9.59,0,0,0,.23-1.14c.09-.37.23-.41.63-.53a1.61,1.61,0,0,1,1.61.09c.45.24.61.46.85,1.19.29.88-.42,1.55-1.57,2a.88.88,0,0,1-.62,0,10.41,10.41,0,0,1-.81-.68C25,166.55,24.88,166.49,25,166.18Z" transform="translate(0 -1.81)" fill="#020202"/><path d="M28.23,175.3c-.22.79-1.82,1.58-2.26,1.31-.63-.39-1.37-1.2-1.35-1.81s.86-1.3,1.35-1.94A2.1,2.1,0,0,1,28.23,175.3Z" transform="translate(0 -1.81)" fill="#020202"/></svg>